<?xml version="1.0" encoding="utf-8"?>
<!-- Generator: Adobe Illustrator 26.0.1, SVG Export Plug-In . SVG Version: 6.00 Build 0)  -->
<svg version="1.1" id="Layer_1" xmlns="http://www.w3.org/2000/svg" xmlns:xlink="http://www.w3.org/1999/xlink" x="0px" y="0px"
	 viewBox="0 0 23.5 24.4" style="enable-background:new 0 0 23.5 24.4;" xml:space="preserve">
<style type="text/css">
	.st0{fill:#A7A7A6;}
</style>
<path class="st0" d="M21.5,6.1V0H1.9v6.1H0v5h1.9v11.3h1.3v2h4.4v-2H16v2h4.4v-2h1.1V11.1h2v-5H21.5z M9.4,1.6H14
	c0.3,0,0.5,0.2,0.5,0.5S14.3,2.7,14,2.7H9.4c-0.3,0-0.5-0.2-0.5-0.5S9.1,1.6,9.4,1.6z M3.7,18.8c0-0.9,0.8-1.7,1.7-1.7
	s1.7,0.8,1.7,1.7c0,0.9-0.8,1.7-1.7,1.7S3.7,19.8,3.7,18.8z M14,19.5H9.4c-0.3,0-0.5-0.2-0.5-0.5s0.2-0.5,0.5-0.5H14
	c0.3,0,0.5,0.2,0.5,0.5S14.3,19.5,14,19.5z M3.8,15.1V4h15.8v11.2H3.8z M19.8,18.8c0,0.9-0.8,1.7-1.7,1.7c-0.9,0-1.7-0.8-1.7-1.7
	c0-0.9,0.8-1.7,1.7-1.7C19,17.1,19.8,17.9,19.8,18.8z"/>
</svg>
