<?xml version="1.0" encoding="utf-8"?>
<!-- Generator: Adobe Illustrator 26.0.1, SVG Export Plug-In . SVG Version: 6.00 Build 0)  -->
<svg version="1.1" id="Layer_1" xmlns="http://www.w3.org/2000/svg" xmlns:xlink="http://www.w3.org/1999/xlink" x="0px" y="0px"
	 viewBox="0 0 16.6 23.5" style="enable-background:new 0 0 16.6 23.5;" xml:space="preserve">
<style type="text/css">
	.st0{fill:#A7A7A6;}
</style>
<g>
	<g>
		<path class="st0" d="M16.5,5.7L16.5,5.7L14,0L2.6,0L0,5.6h0v6.3l0,0v1.3h3.3V12h9.9v1.3h3.3v-1.3l0,0V5.7z M3.5,1.4l9.8,0l1.2,3.4
			H2.1L3.5,1.4z M2.7,9.6c-0.6,0-1.2-0.5-1.2-1.2c0-0.6,0.5-1.2,1.2-1.2c0.6,0,1.2,0.5,1.2,1.2C3.9,9.1,3.3,9.6,2.7,9.6z M10,8.8
			H6.5c-0.2,0-0.4-0.2-0.4-0.4C6.1,8.1,6.3,8,6.5,8H10c0.2,0,0.4,0.2,0.4,0.4C10.4,8.6,10.2,8.8,10,8.8z M12.7,8.4
			c0-0.6,0.5-1.2,1.2-1.2S15,7.8,15,8.4c0,0.6-0.5,1.2-1.2,1.2S12.7,9.1,12.7,8.4z"/>
		<polygon class="st0" points="11.8,19.5 11.2,19.5 11.2,15.5 9,15.5 9,12.8 7.9,12.8 7.9,15.5 5.8,15.5 5.8,19.5 5.1,19.5 
			5.1,20.6 6.3,20.6 6.3,23.5 7.3,23.5 7.3,20.6 9.6,20.6 9.6,23.5 10.6,23.5 10.6,20.6 11.8,20.6 		"/>
	</g>
</g>
</svg>
