<?xml version="1.0" encoding="utf-8"?>
<!-- Generator: Adobe Illustrator 26.0.1, SVG Export Plug-In . SVG Version: 6.00 Build 0)  -->
<svg version="1.1" id="Layer_1" xmlns="http://www.w3.org/2000/svg" xmlns:xlink="http://www.w3.org/1999/xlink" x="0px" y="0px"
	 viewBox="0 0 80.6 72.1" style="enable-background:new 0 0 80.6 72.1;" xml:space="preserve">
<style type="text/css">
	.st0{fill-rule:evenodd;clip-rule:evenodd;}
</style>
<path class="st0" d="M40.1,44.5l-7.6,0.3c-0.5-3.6-2.3-6.9-4.8-9.2c-2.9-2.6-6.8-4.2-11-4c-4.2,0.2-8,2.1-10.6,4.9
	c-2.6,2.9-4.2,6.8-4,11c0.2,4.2,2.1,8,4.9,10.6c2.9,2.6,6.8,4.2,11,4c4.2-0.2,8-2.1,10.6-4.9c2.4-2.6,3.9-6,4-9.7l7.6-0.3
	c0.4,0,0.8-0.4,0.8-0.8l0-1.1C41,44.8,40.6,44.5,40.1,44.5L40.1,44.5z M29.9,44.9l-13.5,0.6c-0.4,0-0.8,0.4-0.8,0.8l0,1.1
	c0,0.4,0.4,0.8,0.8,0.8L30,47.6c-0.2,3-1.4,5.7-3.3,7.8c-2.2,2.4-5.3,3.9-8.8,4.1c-3.5,0.2-6.7-1.1-9.1-3.3
	c-2.4-2.2-3.9-5.3-4.1-8.8c-0.2-3.5,1.1-6.7,3.3-9.1c2.2-2.4,5.3-3.9,8.8-4.1c3.5-0.2,6.7,1.1,9.1,3.3C28,39.5,29.4,42,29.9,44.9z"
	/>
<g>
	<path d="M15.8,45.6c-0.3,0.7,0,1.5,0.6,1.8c0.7,0.3,1.5,0,1.8-0.6l5.1-11c-0.8-0.4-1.6-0.8-2.5-1L15.8,45.6z"/>
	<path d="M22.8,30.6L22,32.3c0.9,0.3,1.7,0.6,2.5,1l0.4-0.8L22.8,30.6z"/>
	<path d="M75.6,33.5c-2.9-2.6-6.8-4.2-11-4c-2.2,0.1-4.2,0.6-6,1.5l-4.6-8c-0.1-0.2-0.3-0.4-0.5-0.5l2.9-8.1l0.9,0
		c0.4,0,0.8-0.4,0.8-0.8l0-1.1c0-0.4-0.4-0.8-0.8-0.8L50,12.1c-0.4,0-0.8,0.4-0.8,0.8l0,1.1c0,0.4,0.4,0.8,0.8,0.8l3.4-0.2l-2.8,7.9
		l-20.1,0.9l-1.3-2.8l6.9-0.3c0.6,0,1-0.5,1-1.1l-0.1-1.4c0-0.6-0.5-1-1.1-1l-10.1,0.4c-0.6,0-1,0.5-1,1.1l0,0.2l7.4,7.4l19.8-0.9
		l1.6,2.7l-9,10.5l1.9,1.9l8.5-10l1.3,2.2c-0.8,0.6-1.6,1.3-2.3,2c-2.3,2.5-3.7,5.7-4,9.2l2.7,2.7c0-0.4-0.1-0.7-0.1-1.1
		c-0.2-3.5,1.1-6.7,3.3-9.1c0.5-0.6,1.1-1.1,1.7-1.5l5.8,10c0.4,0.6,1.2,0.9,1.8,0.5c0.6-0.4,0.9-1.2,0.5-1.8l-5.8-10.1
		c1.5-0.7,3.1-1.1,4.8-1.2c3.5-0.2,6.7,1.1,9.1,3.3c2.4,2.2,3.9,5.3,4.1,8.8c0.2,3.5-1.1,6.7-3.3,9.1c-2.2,2.4-5.3,3.9-8.8,4.1
		c-0.7,0-1.5,0-2.2-0.1l2.7,2.7c4.1-0.3,7.6-2.1,10.2-4.9c2.6-2.9,4.2-6.8,4-11C80.4,39.9,78.5,36.2,75.6,33.5z"/>
	<path d="M37.8,45.6l0.3,0.6c0.2,0.4,0.6,0.7,1.1,0.8L37.8,45.6z"/>
</g>
<polygon points="3.6,4.2 0,7.8 32.7,40.4 32.6,40.4 40.9,48.8 41,48.8 64.3,72.1 67.9,68.5 "/>
</svg>
