<?xml version="1.0" encoding="utf-8"?>
<!-- Generator: Adobe Illustrator 26.0.1, SVG Export Plug-In . SVG Version: 6.00 Build 0)  -->
<svg version="1.1" id="Layer_1" xmlns="http://www.w3.org/2000/svg" xmlns:xlink="http://www.w3.org/1999/xlink" x="0px" y="0px"
	 viewBox="0 0 500 500" style="enable-background:new 0 0 500 500;" xml:space="preserve">
<style type="text/css">
	.st0{fill:#010101;}
</style>
<g>
	<g id="g2995">
		<path id="path2997" class="st0" d="M78.1,248.8l6.6,10.5L97.9,238l0.1,46.9h11.5l-0.1-68.2H97.7L78.1,248.8z"/>
	</g>
	<g id="g2999">
		<path id="path3001" class="st0" d="M45.9,216.7H34.4l0.1,68.2h11.5l-0.1-46.9L72,279.7l6.6-10.7L45.9,216.7z"/>
	</g>
	<g id="g3003">
		<path id="path3005" class="st0" d="M178.3,263.5l10.6,21.1l13.8-0.1L168,216.5h-12.4l0,0l17.4,36.1l-23.1,0.1l6-11.8l-6.3-12.8
			l-29.1,56.7h12.9l10.8-21.2L178.3,263.5z"/>
	</g>
	<g id="g3007">
		<path id="path3009" class="st0" d="M279,216.3h-11.5v33.1l11.5,11.5L279,216.3z"/>
	</g>
	<g id="g3011">
		<path id="path3013" class="st0" d="M223.6,216.4H212l0.1,68.2h11.5l-0.1-50.9l47.1,50.9h8.5v-8.4L223.6,216.4z"/>
	</g>
	<g id="g3017">
		<g id="g3023">
			<path id="path3025" class="st0" d="M359.2,235.1c-5.6-5.6-13.9-9.3-23.4-9.2c-15.1,0-27.6,9.3-29.5,21.3l-12.6,0.1
				c1.6-18.7,20.7-32.5,42.3-32.5c12.8,0,24.4,4.8,32.2,12.4L359.2,235.1z"/>
		</g>
		<g id="g3027">
			<path id="path3029" class="st0" d="M334.9,274.9c-12.5,0-23.3-6.9-27.3-16.3h-12.9c4.3,16.5,21.1,27.4,41,27.4
				c4.8,0,9.7-0.5,14.4-1.6c10-2.5,20.8-8.9,20.8-19.2v-18.2l-36,0.1v11.4l24.5-0.1v5.2c0,5.7-8.6,9-13.8,10.2c-3.1,0.6-6.2,1-9.4,1
				L334.9,274.9z"/>
		</g>
		<g id="g3031">
			<path id="path3033" class="st0" d="M465.6,250.1c-0.1-20.3-18.5-36.1-41.3-36.1c-22,0.1-41.2,15.1-41.2,35.1
				c0,18.8,15.2,33.9,35.6,36.3v-11.4c-13.3-2.2-23.4-12.1-23.4-24.1c0-13.6,12.9-24.7,28.9-24.7c16-0.1,29,11,29.1,24.6
				c0,11.9-9.9,21.9-23.2,24.2l0.1,11.4C449.8,283,465.6,268.4,465.6,250.1"/>
		</g>
	</g>
</g>
</svg>
