<?xml version="1.0" encoding="utf-8"?>
<!-- Generator: Adobe Illustrator 26.0.1, SVG Export Plug-In . SVG Version: 6.00 Build 0)  -->
<svg version="1.1" id="Layer_1" xmlns="http://www.w3.org/2000/svg" xmlns:xlink="http://www.w3.org/1999/xlink" x="0px" y="0px"
	 viewBox="0 0 500 500" style="enable-background:new 0 0 500 500;" xml:space="preserve">
<style type="text/css">
	.st0{fill:#EA0029;}
</style>
<g>
	<path class="st0" d="M85.2,250.8l1.4,0.1c5.6,0.3,7.5,1.3,8.1,1.9c0.5,0.4,1.5,2,1.5,7.9v20c0.1,0.7-0.2,1.5-0.6,2
		c-0.3,0.2-1.3,1-5,2.2c-1.8,0.6-3.7,1-5.6,1.3c-1.7,0.3-3.4,0.4-5.1,0.4c-8.1,0.1-16-3.2-21.4-9.3c-5.8-6.2-8.7-14.9-8.7-26
		c0-13.5,2.9-23.3,8.7-29.1s12.6-8.7,20.1-8.7c7.6,0,13.5,2.4,18.2,7.4c2.6,2.8,5.2,7.3,7.7,13.2l0.4,0.9h5.4l-1.1-29.4H104
		l-0.4,0.9c-0.3,0.9-0.9,1.8-1.6,2.5c-0.3,0.2-1,0.7-2.8,0.7c-0.2,0-1.4-0.2-7.7-2c-4.8-1.4-9.8-2.1-14.7-2
		c-13.8,0-25.1,4.8-33.5,14.3c-7.6,8.6-11.5,19-11.5,31c0,13.7,4.9,24.7,14.4,32.9c8.7,7.3,19.4,11.1,32,11.1
		c7.2-0.1,14.4-1.4,21.3-3.8c9.8-3.3,11.8-5.3,11.8-7.3v-24.7c0-3.5,0.7-5.9,2-6.9c0.4-0.3,1.7-1,5.3-1.2l1.4-0.1v-5.2h-35
		L85.2,250.8z"/>
	<path class="st0" d="M189.9,212.2l1.4,0.1c4.1,0.4,7,1.4,8.4,2.8c0.8,0.8,2,3.4,2,11.8v32.6c0,7.7-0.9,13.5-2.8,17.1
		c-3.3,6.4-9.6,9.5-19.3,9.5c-8.8,0-14.6-3-17.7-9.2c-1.7-3.4-2.5-8.4-2.5-14.7v-40.1c0-5.4,1-7.2,1.6-7.7c0.6-0.6,2.6-1.6,8.5-2
		l1.4-0.1V207h-38.6v5.2l1.4,0.1c5.7,0.4,7.7,1.5,8.3,2.1s1.6,2.3,1.6,7.7v39.2c0,8,1.4,14.5,4.2,19.5c5.2,9.3,14.9,14,29,14
		c14.2,0,24.1-4.8,29.3-14.2c2.8-5.1,4.2-12.1,4.2-21v-32.6c0-8.1,1.2-10.8,1.9-11.6c0.8-1,3-2.4,8.5-3l1.4-0.1V207h-32V212.2z"/>
	<path class="st0" d="M304.1,269.7c-3.1,6.8-6.5,11.1-10.2,12.7c-3.8,1.8-9.9,2.6-18.2,2.6c-9.6,0-12.7-0.3-13.7-0.6
		c-0.3-0.1-1.3-0.4-1.3-3V252h17.8c6.3,0,8.4,1.2,9.1,1.9c0.9,0.9,2.1,3.2,3.2,8.9l0.2,1.2h5.7v-32h-5.7l-0.2,1.2
		c-1,5.6-2.3,7.9-3.2,8.8c-0.7,0.7-2.7,1.9-9.1,1.9h-17.8v-26.4c-0.1-0.8,0-1.6,0.3-2.4c0,0,0.4-0.3,2.2-0.3h17.1
		c8.7,0,12,1.2,13.3,2.1c1.3,1,3,3.4,4.2,9.8l0.2,1.2h6l-0.5-21H234v5.2l1.4,0.1c5.6,0.4,7.4,1.5,8,2.1s1.6,2.4,1.6,7.7v55.8
		c0,5.7-1.1,7.3-1.5,7.6c-0.6,0.5-2.5,1.5-8.2,2.1l-1.4,0.1v5.2h70.5l6.5-24.2h-6.4L304.1,269.7z"/>
	<path class="st0" d="M367,244.3l-11-6.8c-4-2.4-6.9-4.8-8.8-7c-1.7-2-2.6-4.6-2.6-7.3c0-3.1,1.1-5.5,3.3-7.2c2.3-1.8,5.1-2.8,8-2.7
		c4.1,0,8.3,1.5,12.5,4.5c4.2,3,7.3,8.4,9.2,16l0.3,1.1h5.9l-3.1-29.7h-5.1l-0.3,1.2c-0.2,0.9-0.5,1.8-1.1,2.5
		c-0.6,0.4-1.3,0.6-2,0.5c-0.2,0-1.3-0.2-6.4-2c-4.2-1.5-7.8-2.2-10.8-2.2c-7.3,0-13.3,2.3-17.8,6.8s-6.8,10.1-6.8,16.9
		c0,5.1,1.9,9.9,5.7,14.1c2.4,2.5,5.1,4.6,8,6.4l10.7,6.7c6,3.8,10,6.6,11.8,8.4c2.6,2.5,4,6,4,9.6c0,4.1-1.3,7.2-3.8,9.4
		c-2.6,2.3-5.9,3.5-9.4,3.4c-7,0-12.7-2.7-17.4-8.2c-2.7-3.2-5.1-7.6-7.2-13l-0.4-1h-5.7l4.2,29.7h5.4l0.2-1.3
		c0.1-0.8,0.4-1.6,0.8-2.4c0.2-0.4,0.8-0.6,1.6-0.6c0.2,0,1.4,0.2,6.8,2.1c4.1,1.5,8.3,2.2,12.7,2.3c8.1,0,14.8-2.4,20-7
		c5.1-4.4,8.1-10.8,7.9-17.6c0.1-4.9-1.5-9.8-4.5-13.7C379,252.7,374,248.7,367,244.3z"/>
	<path class="st0" d="M463.5,256.4c-2.9-3.7-8-7.7-15-12l-11-6.8c-4-2.4-6.9-4.8-8.8-7c-1.7-2-2.6-4.6-2.6-7.3
		c0-3.1,1.1-5.5,3.3-7.2c2.3-1.8,5.1-2.8,8-2.7c4.1,0,8.3,1.5,12.5,4.5s7.3,8.3,9.2,16l0.3,1.1h5.8l-3.1-29.7h-5.1l-0.3,1.2
		c-0.2,0.9-0.5,1.8-1.1,2.5c-0.3,0.3-1,0.5-2,0.5c-0.2,0-1.3-0.2-6.4-2c-4.2-1.5-7.8-2.2-10.8-2.2c-7.3,0-13.3,2.3-17.8,6.8
		c-4.5,4.5-6.7,10.1-6.7,16.9c0,5.1,1.9,9.9,5.7,14.1c2.4,2.5,5.1,4.6,8,6.4l10.7,6.7c6,3.8,10,6.6,11.8,8.4c2.6,2.5,4,6,4,9.6
		c0,4.1-1.3,7.2-3.9,9.4c-2.6,2.3-5.9,3.5-9.4,3.5c-7,0-12.7-2.7-17.4-8.2c-2.7-3.2-5.1-7.6-7.2-13l-0.4-1h-5.7l4.2,29.7h5.3
		l0.2-1.3c0.1-0.8,0.4-1.6,0.8-2.4c0.2-0.4,0.8-0.6,1.6-0.6c0.2,0,1.4,0.2,6.8,2.1c4.1,1.5,8.3,2.2,12.7,2.3c8.1,0,14.8-2.4,20-7
		c5.1-4.4,8.1-10.8,7.9-17.6C468.1,265.1,466.5,260.3,463.5,256.4z"/>
</g>
</svg>
