<?xml version="1.0" encoding="utf-8"?>
<!-- Generator: Adobe Illustrator 26.0.1, SVG Export Plug-In . SVG Version: 6.00 Build 0)  -->
<svg version="1.1" id="Layer_1" xmlns="http://www.w3.org/2000/svg" xmlns:xlink="http://www.w3.org/1999/xlink" x="0px" y="0px"
	 viewBox="0 0 399.9 396.2" style="enable-background:new 0 0 399.9 396.2;" xml:space="preserve">
<style type="text/css">
	.st0{fill:#FFFFFF;}
	.st1{fill:#C21230;}
	.st2{fill:#F3D3B5;}
	.st3{fill:#261C02;}
	.st4{fill:#FFEFE0;}
</style>
<rect class="st0" width="399.9" height="396.2"/>
<g>
	<path class="st0" d="M200,126.9c-39.3,0-71.2,31.9-71.2,71.2c0,39.3,31.9,71.2,71.2,71.2c39.3,0,71.2-31.9,71.2-71.2
		C271.2,158.8,239.3,126.9,200,126.9"/>
	<path class="st1" d="M160,226.4c0.6-0.3,0.7-0.4,0.8-0.6c0.2-0.3,0.5-0.5,0.8-0.9c0.8-0.9,1.1-1.1,1.7-1.5c0.7-0.4,2.4-1.4,3.3-1.7
		c0.8-0.4,1-1.2,1.2-1.9c0.8-3.5,1.8-6.9,2.1-7.5c0.3-0.6,0.1-0.7,0.1-0.8c-0.1-0.1-0.4-0.6-1-1.3c-2-2.5-3.5-6-3.8-7
		c-0.3-1-0.5-1.2-1-1.6c-0.5-0.4-0.6-0.2-1.8-1c-2.5-1.6-2.4-4-2.4-4.9c0-0.9-0.1-2.3-1.1-3.1c-0.9-0.8-2.5-3.1-3.4-4.4
		c-0.9-1.3-1.9-3.4-2.7-5.5c-0.5-1.4-0.7-3.9-0.1-5c0.4-0.7,0.1-1-0.4-1.4c-0.9-0.7-2.3-1.9-3-3c-0.7-1.2-0.2-2.1,0.1-2.6
		c0.2-0.5,0.4-1.1,0.9-3.8c0.5-2.8,0.1-5.2-0.5-6.6c-0.6-1.4-2-2.7-2.7-4.2c-0.2-0.5-0.3-1-0.3-1.4l-0.1,0.2
		c-9.7,11.9-15.5,27-15.5,43.5c0,13.6,4,26.3,10.8,37l0.6-0.4C151.2,229.6,159.4,226.7,160,226.4"/>
	<path class="st1" d="M228.9,214.3c-0.4-0.9-1.9-1.4-2.9-1.5c-0.3,0-0.9,0-0.6,0.9c0.3,1,0.7,2.4,2.1,7c1.5,4.8,3.5,14,4.1,17.7
		c0.2,1.3,0.4,1.4,1.3,1.4l0.8,0c0.6,0,1.7,0.1,2.1,0.3c0.7,0.2,0.3,0.7-0.6,0.7c-0.4,0-1.8,0.2-2.9,0.3c0,0,2.3,9.9,3.9,15.6
		c2.6-1.6,5.1-3.4,7.5-5.4c-1.7-4.1-3.6-8.8-5.2-12.6C236,232.7,229.8,216.3,228.9,214.3"/>
	<path class="st1" d="M214.4,257.4c-0.3-1.7-1.6-12.9-1.7-13.6v0c-12.3,1.8-25.2,4.6-32,6.7c-4.2,1.3-12.2,4.2-14.5,5.1
		c-2,0.8-2-1-2.1-2.3c-0.2-3.1-0.2-8.2,0.4-13.9c0.8-8.3,1.3-10.8,1.4-11.5c0.1-0.5-0.2-0.5-0.4-0.4l-0.6,0.3
		c-0.7,0.3-1,1.2-1.5,3.2c-0.7,2.7-3.3,14.8-3.8,18c-0.2,1.2-0.4,3-0.6,4.6c11.4,8.5,25.6,13.5,40.9,13.5c5.4,0,10.6-0.6,15.6-1.8
		c-0.1-0.5-0.2-1.1-0.2-1.6L214.4,257.4"/>
	<path class="st1" d="M220.9,243.7c-0.1-0.3-0.1-0.7-0.2-1c-1,0.1-2,0.3-3.1,0.4c-0.5,0.1-1,0.1-1.5,0.2c0,0,2,11.9,2.4,13.9
		l0.4,2.2c0.2,0.9,0.3,1.8,0.5,2.6c0.1,0.7,0.2,1.5,0.3,2.2c1.6-0.5,3.2-1,4.8-1.6c-0.2-1.4-0.5-2.7-0.5-2.9l-0.8-4.8
		C222.1,249.9,221.4,246.2,220.9,243.7"/>
	<path class="st1" d="M231.9,256.3c-0.9-3.9-3.2-14.6-3.2-14.6c-1.2,0.2-2.7,0.3-4.4,0.6c0,0,2.6,11.4,3.3,14.9l0.7,3.9
		c1.4-0.6,2.8-1.3,4.1-2l-0.4-2C232,256.8,231.9,256.6,231.9,256.3"/>
	<path class="st2" d="M169.1,175.5c0.4-0.4,0.9-0.7,1.2-0.9c0.5-0.4,0.3-1-0.4-0.8c-0.3,0.1-0.8,0.2-1.3,0.3c-0.4,0.1-1,0.3-1.1,0.3
		c-1,0.3-1.5,1.5-1.6,2c-0.2,0.9,0.8,1.2,1.4,0.7C167.8,176.7,168.5,176.1,169.1,175.5"/>
	<path class="st2" d="M175.6,173.6c-0.8,0.1-2.5,1.1-3.3,1.8c-0.5,0.4-0.8,0.6-1.2,0.9c-0.6,0.4-1,0.6-1.1,0.7
		c-0.6,0.6,0.3,0.7,0.5,0.7c0.2,0,1-0.2,1.6-0.6c0.7-0.4,1.6-1.1,3-1.6c1.3-0.5,2-0.4,2.7-0.4c0.7,0,0.5-0.6-0.1-1.1
		C177.1,173.6,176.1,173.5,175.6,173.6"/>
	<path class="st2" d="M182.8,186.3c-0.4,0.6-0.6,2,0.4,3.1c0.9,1,1.8,0.6,1.8,0.3c0-0.2-0.1-0.7-0.3-1c-0.2-0.3-0.6-1.3-0.2-2.5
		C184.6,185.8,183.4,185.3,182.8,186.3"/>
	<path class="st2" d="M203,171.6c-0.7-0.5-1.6-0.8-2.3-0.8c-0.2,0-0.7,0.1-0.9,0.1c-1.1,0.4-2,1.4-2.1,1.6c-0.1,0.2,0,0.7,0.5,0.5
		c0.5-0.2,1-0.4,1.6-0.5c0.9-0.3,1.9-0.1,2.5,0.3c0.9,0.6,1.4,0.8,2,1c0.3,0.1,1.2,0.3,1.5,0.1c0.6-0.4-0.1-0.6-0.4-0.7
		C204.8,172.9,203.7,172.1,203,171.6"/>
	<path class="st2" d="M207.7,171.3c0.2-0.6-0.2-1.3-0.8-1.6c-0.8-0.5-1.8-0.5-3.3-0.2c-0.4,0.1-0.6,0.4-0.2,0.6
		c0.4,0.2,1.2,0.6,1.6,0.9c0.4,0.3,1.5,0.9,1.9,0.9C207.2,171.8,207.5,172,207.7,171.3"/>
	<path class="st2" d="M181.7,206.4c-0.1,0.3-0.3,1-0.5,1.6c-0.1,0.6-0.6,0.7-1.2,0.1c-2.3-2.4-4.1-9.7-4.1-10.6
		c-0.1-1.1-1.1-1-1.3-0.9c-0.2,0-0.5,0.2-1,0.4c-0.9,0.5-2,2.8-1,5.2c3.7,9.2,9.5,10.9,11.6,10.5c0.8-0.1,1-0.7,0.4-1.6
		c-0.5-0.9-1.4-3.1-2.1-4.7C182.3,205.6,181.8,206.2,181.7,206.4"/>
	<path class="st2" d="M223.7,215.6l-0.1-0.3l0-0.1l-0.1-0.3c-0.5-2.4-1.5-2.7-1.7-2.8l-0.2-0.1l0,0h0l0,0l-0.1,0l0,0l0,0l-0.1,0l0,0
		l-0.1,0.1l0,0l0,0.1l0,0.1l0,0.3l0,0.5l0,0.1l0,0.6c0.7,2.5,1.2,5,1.7,7.3l0,0.6c0.2,1,0.6,4.2,1.3,11.5c0.2,2.4,0.3,4.9,0.4,7
		l0.2,0c0.4,0,0.9-0.1,1.2-0.1l0.7-0.1l0.3-0.1l0.1,0l0.2-0.1l0.1,0l0.2-0.1l0,0l0.1-0.1l0,0l0.1-0.2l0,0l0-0.1l0-0.2v0l0-0.4l0-0.1
		l-0.1-0.6c-0.6-4.3-1.2-7.7-1.7-10.6C225,220.7,224.2,217.5,223.7,215.6L223.7,215.6"/>
	<path class="st2" d="M169.2,170.6l0.1,0l0.2,0l0.4-0.1l0,0c0.1-1.5,0.1-3.5,0-5c0.5-4.5,1.2-9.7,2.7-13.2c1.2-2.7,1.1-1.8,1.7-3.1
		l0.1-0.2l-0.1-0.5l-0.1,0l-0.3,0.1l-0.2,0.1l-0.5,0.2l-0.1,0.1l-0.4,0.2l-0.2,0.1l-0.3,0.2l-0.2,0.1l-0.5,0.3l-0.1,0l-0.4,0.4
		l-0.1,0.1l-0.3,0.4l-0.1,0.2l-0.4,0.6c-3.8,5.6-3.6,11.5-3.7,13.3c0,0.6,0.1,1.8-0.5,2.2c-0.3,0.2-0.7,0.6-1.1,0.9
		c-0.2,0.3-0.3,0.8-0.3,1c0,0.5,0.1,1.3,0.2,1.7c0.1,0.5,0.4,0.7,0.9,0.6l0.5-0.1C167.3,171,168.3,170.8,169.2,170.6"/>
	<path class="st2" d="M209.8,192c0.2-1.1,0-1.6-0.4-2.3c-0.4-0.6-1-1.2-1.9-1.8c-0.9-0.6-2.8-2.3-3-2.4l-1.3-1.2
		c-0.2-0.2-0.6-0.5-1.6-1c-2.3-1.1-4.1-0.3-4.1-0.2c-0.1,0-0.4,0.3-0.7,0.6c-0.3,0.3-0.1,0.9,0,1.1l0,0l0-0.1l0,0l0-0.1l0,0l0,0
		l0-0.1l0,0l0.1-0.1l0,0l0.1,0h0l0.2,0h0l0.3,0c1.5,0.2,3,1.1,3.9,2c0.9,0.9,2,2.4,3.3,3.2c1.4,0.9,1.9,0.8,2.5,1.1
		c0.5,0.4,0.9,0.5,1.3,2.5l0.1,0.6l0,0C208.8,193.7,209.6,192.9,209.8,192"/>
	<path class="st2" d="M182.4,180.5l0,0.3c-0.1,1-0.6,2-1.1,2.5c-0.6,0.7-1.7,1.3-2.3,1.6c-0.6,0.3-1.6,0.5-1.7,0.5l-0.4,0.1
		l-0.3,0.1l-0.4,0.1l-0.1,0.1l-0.1,0.1v0l0,0.1l0.2,0.4c0.1,0.1,0.5,0.5,1.1,0.3c0.8-0.2,1.4-0.3,1.9-0.5c0.6-0.2,1.3-0.5,1.4-0.6
		l0.5-0.4h0l0.2-0.2l0.1-0.1l0.1-0.1l0.4-0.4c2.1-2.3,1.9-4.2,2-4.5c0-0.4-0.1-0.6-0.3-0.4c-0.3,0.3-0.4,0.5-0.7,0.7l-0.2,0.1
		l-0.1,0L182.4,180.5L182.4,180.5L182.4,180.5"/>
	<path class="st2" d="M170.1,190.3l0.6,0.6l0,0l0,0c0.4,0.4,0.8,0.8,1.2,1.1l0.4,0.3l0,0l0.2,0.1l0.3,0.1l0.2,0.1l0.3,0.1l0.2,0
		l0.3,0l0.2,0l0.2,0l0.1,0l0.2,0l0.3-0.1l0.1-0.1l0.3-0.2l0.1-0.1l0.4-0.4l0.7-0.7l0.6-0.5h0c-0.3,0.1-0.7,0.3-1.1,0
		c0,0-0.4-0.4-0.8-1c-0.3-0.3-0.6-0.8-0.9-1.2c-0.2-0.3-0.3-0.5-0.4-0.7c-0.2-0.3-0.3-0.6-0.3-0.7l0,0c-0.1-0.2-0.2-0.6-0.2-0.6
		c-0.6-0.1-1.2-0.2-1.8-0.4l0,0l0.1,0.1l0,0l0,0.1l0,0.1l0,0.1v0.1l0,0.1l0,0.1l0,0.1l0,0.1l0,0.1l-0.1,0.2
		c-0.1,0.4-0.4,0.6-0.9,0.5c-0.8-0.2-1.6-0.6-1.8-0.8c-0.3-0.1-0.7,0-0.4,0.6c0.1,0.3,0.3,0.6,0.4,0.9l0.1,0.2
		c0.2,0.3,0.3,0.6,0.5,0.8l0,0l0,0C169.6,189.7,169.8,189.9,170.1,190.3L170.1,190.3"/>
	<path class="st2" d="M204.8,181.3c-0.4,0.1-0.6,0.2-0.7,0.4l0,0.1l0,0.1v0.1l0,0l0,0.1l0,0l0.1,0.1l0,0l0.1,0.1l0,0l0.1,0.1l0,0
		l0.2,0.1l0,0l0.2,0.1l0.2,0.1l0.3,0c0.4-0.1,1-0.3,1.4-0.5l0,0l-0.1,0l-0.1,0l-0.1,0l-0.1,0l-0.1-0.1l0,0l-0.1-0.1l-0.3-0.7l0-0.1
		l0-0.1l0-0.1l0.1-0.1C205.7,180.9,205.4,181.1,204.8,181.3"/>
	<path class="st2" d="M188.4,188.3c-0.1-0.2-0.4-0.8-0.5-1.2c-0.1-0.4-0.2-0.6-0.2-1c-0.1-0.3-0.2-0.9-0.1-1.4c0-0.5,0.1-1,0.4-2.5
		c0.2-1-0.1-2.1-0.1-3.2c0-0.8-0.1-2.8-0.1-4.8v0l-0.4,0.1l-0.1,0l-0.3,0.2l-0.1,0.1l-0.2,0.2c-0.3,0.3-0.8,1.8-0.7,2.8
		c0.1,1.1,0.3,2.6,0.3,3.4c0,1.8-0.8,4.3-0.5,5.4l0.1,0.3l0,0.1l0.2,0.3l0,0l0.2,0.4l0.1,0.1l0.2,0.3l0.1,0.1l0.4,0.4l0.1,0.1
		l0.4,0.3l0.1,0.1l0.5,0.3l0.1,0l0.5,0.3l0.1,0l0,0c-0.2-0.2-0.2-0.2-0.2-0.5C188.6,188.8,188.4,188.5,188.4,188.3"/>
	<path class="st2" d="M193.8,232.1l-0.2,0.1l0,0l0,0l0,0l-0.2,0.1l-0.1,0l-0.3,0.2l-0.1,0c-0.2,0.2-0.5,0.4-0.8,0.6l-0.1,0.1
		l-0.4,0.4l-0.1,0.1l-0.5,0.5v0l-0.1,0.1c0.4-0.1,1-0.3,1.1-0.3c0.1,0-0.4,0.5-0.6,1c-0.3,0.5-1.9,5.4-3.5,8.1
		c-0.5,1.1-0.3,0.6-0.6,1.4l0.3-0.1l0.3-0.1c0.3,0,0.7-0.1,1.1-0.2l0.1,0l0,0l0.1,0h0l0.1-0.1l0,0l0,0l0,0l0.1-0.1l0,0l0.1-0.1l0,0
		l0,0v0l0.1-0.1l0,0l0.1-0.1l0,0l0.1-0.1l0,0l0.1-0.1l0,0l0.1-0.1l0-0.1l0.1-0.1v0l0,0l0.1-0.1l0-0.1l0.1-0.2l0.1-0.1l0-0.1l0,0
		l0.2-0.5l0,0l0.1-0.3l0.1-0.2c0.1-0.3,0.3-0.6,0.4-0.9c2-4.6,2.5-6.8,2.7-7.5C194.5,232.2,194.4,231.9,193.8,232.1"/>
	<path class="st2" d="M204.8,236.2c1.5,1,2.1,1.3,3.8,2c0.5,0.2,2,0,2.6-0.9l0,0h0l-0.1,0h0l-0.1,0l-0.1,0l-0.1,0l0,0l-0.1-0.1
		c-0.2-0.2-0.5-0.5-1.6-1.2c-4.3-3.1-7.3-4.4-8.4-4.8c-0.4-0.1-0.8,0.2-0.5,0.6c0.2,0.4,0.5,0.7,0.7,1.1l0.1,0.1
		C202.1,234,204,235.5,204.8,236.2"/>
	<path class="st2" d="M180.5,227.1c-2,1.1-0.8,3.4-0.6,5c0.4,1.3,0.8,3.7,2.6,3.9c1.3,0.2,4.4-0.7,6-1c0.2-0.4,0.4-0.8,0.6-1
		l0.1-0.2c0.3-0.6-0.2-0.5-0.4-0.5c-0.2,0-0.9,0.2-2.8,0.6c-2,0.4-2.8,0.1-3.4-0.4c-0.6-0.5-0.5-1.5-0.6-2.7
		c-0.1-1.1-0.3-1.8-0.3-2.6l-0.1-0.4l0-0.2l0-0.1l0-0.2l0-0.1l0.1-0.2l0-0.1C181.2,226.8,180.9,227,180.5,227.1"/>
	<path class="st2" d="M177.2,222.9l2,1.5c0.1,0.1,2,1.1,3.1,1.7l0.1-0.1l0.3-0.1c1.6-0.6,3.1-0.7,3.6-0.8c0.5-0.1,0.3-0.5,0.1-0.7
		c-0.2-0.2-0.9-0.4-2.1-1c-5.7-2.5-9.1-5.7-9.5-6.1c-0.4-0.4-0.7-0.5-1.2,0.7l-0.1,0.3l0,0.1l0,0.3l0,0.2l0,0.4l0,0.3l0,0.1l0,0.2v0
		c1,0.9,2.6,2,2.9,2.2L177.2,222.9"/>
	<path class="st2" d="M171.2,234.2c0.5,1,2.1,3.1,2.2,3.2c0.1,0.1,0.4,0.5,0.8,0.9c0.4,0.5,0.7,0.8,0.8,0.9l1,1.1l0.6,0.7
		c0.5,0.5,2.6,2.3,2.8,2.4l1.3,0.8c1.7,0.2,2.6-0.7,2.8-1c0.2-0.3,0.2-0.4,0.1-0.8l0,0.1l0,0l-0.1,0.1l0,0l-0.1,0.1l0,0h-0.1l-0.1,0
		l0,0l-0.3-0.2c-1.8-1.2-3.3-2.9-5.4-5.3c-2.4-2.7-6-10.1-6.2-10.4c-0.2-0.4-0.6-0.3-0.8-0.2c-0.1,0-0.6,0.3-0.9,0.5
		c-0.3,0.2-0.4,0.7-0.6,2.5v0C169.4,230.6,170.7,233.3,171.2,234.2"/>
	<path class="st2" d="M156.1,239.6c0.2-0.6,0.3-1.1,0.4-1.5c0.3-0.9,0.4-1.5,0.5-1.7c0.3-1,0-2-0.5-2.2l-0.2-0.1l0,0
		c-0.2,0-0.4-0.1-0.7-0.2l-0.1,0l-0.2,0c-0.3-0.1-0.6-0.1-0.8-0.2c-1.2,1.9-2.4,8.3-3,11.3c-0.1,0.3-0.3,0.9-0.4,1.6
		c0.9,0.9,1.7,1.7,2.6,2.5c0.6-2.5,1.4-5.3,2-7.7C155.8,240.8,156,240.2,156.1,239.6"/>
	<path class="st3" d="M258,215.4c-2.1-0.5-7-1.5-13.7-2.1c-6.6-0.6-12.1-1.1-12.8-1.2c-0.7-0.1-0.9-0.7-1.6-1
		c-2.3-1.1-6.5-2.2-9.2-3.1c-0.7-0.2-1.1-0.8-2-1.9c-0.6-0.7-0.9-1-1.4-1.4c-0.3-0.3-0.9-0.8-1.1-0.9c-0.2-0.1-0.3-0.5-0.1-1.2
		c0.1-0.7,0.6-3.6,0.5-6.9c0-0.9,0.4-1.5,0.8-1.7c0.2-0.1,1.7-0.8,1.6-2.2c-0.1-1.5-0.6-3.5,0.6-6.3c1.1-2.8,2.6-7.7,2.7-10.9
		c0.2-3.5-0.7-5.7-2.1-6.9c-0.5-0.5-1.2-1.2-0.6-2.7c0.5-1.6,1.5-6,0.6-9c-0.2-0.7-0.5-0.7-0.6-0.7c-0.1-0.1-0.9-0.6-1.1-1.8
		c-0.3-1.6-1.5-7.2-5.8-12.9c-2.3-3-4.8-4.8-5.7-5.5c-0.7-0.4-1.9-1.3-3.3-2c-2-1.1-3.6-1.9-6.8-2.9c-0.3-0.1-1-0.3-1.9-0.5h0
		c0,0-2.7-0.7-5.7-1.1c-0.5,0-1.2-0.1-2-0.2c-3-0.2-4.2,0-5.8,0.2l-0.5,0.1c-0.3,0-0.7,0.1-1,0.1c-4.7,0.8-9.5,3-11.9,4.1
		c-1.3,0.6-2.5,1.3-3.6,1.9l-0.1,0c-0.3,0.2-0.7,0.4-1.1,0.6c-0.7,0.4-1.3,0.7-1.9,1c-1.9,0.9-3.6,1.4-4.8,1.8l-0.6,0.2
		c-0.9,0.3-1.4,0.7-1.5,1.3c-0.2,1,1,2,0.6,3.7c-1.1,4.1-5.7,8-6.4,8.5c-2.2,1.3-2,2.2-2.1,2.7c0,0.4,0.1,0.9,0.3,1.4
		c0.7,1.5,2.1,2.8,2.7,4.2c0.7,1.4,1,3.8,0.5,6.6c-0.5,2.7-0.6,3.3-0.9,3.8c-0.2,0.5-0.7,1.5-0.1,2.6c0.7,1.1,2.1,2.3,3,3
		c0.5,0.4,0.7,0.7,0.4,1.4c-0.6,1.1-0.4,3.6,0.1,5c0.8,2.2,1.8,4.2,2.7,5.5c0.9,1.3,2.5,3.6,3.4,4.4c0.9,0.8,1.1,2.2,1.1,3.1
		c0,0.9-0.1,3.4,2.4,4.9c1.3,0.8,1.4,0.6,1.8,1c0.5,0.4,0.7,0.6,1,1.6c0.3,1,1.8,4.5,3.8,7c0.6,0.7,0.9,1.2,1,1.3
		c0.1,0.1,0.2,0.2-0.1,0.8c-0.3,0.6-1.3,4-2.1,7.5c-0.2,0.6-0.4,1.5-1.2,1.9c-0.8,0.4-2.6,1.4-3.3,1.7c-0.7,0.4-1,0.6-1.7,1.5
		c-0.3,0.4-0.6,0.7-0.8,0.9c-0.1,0.1-0.2,0.2-0.8,0.6c-0.6,0.3-8.8,3.2-17.5,8.5l-0.6,0.4c0.5,0.8,1,1.6,1.6,2.4
		c2-1,6.6-3.4,7.4-3.7c0.6-0.3,1.3-0.4,1.9-0.4c0.4,0,0.6,0,0.8,0.1c0.4,0.1,1.1,0.2,1.7,0.4l0.2,0l0.1,0c0.3,0.1,0.5,0.1,0.7,0.2
		l0,0l0.2,0.1c0.6,0.2,0.8,1.2,0.5,2.2c-0.1,0.2-0.2,0.8-0.5,1.7c-0.1,0.4-0.3,1-0.4,1.5c-0.2,0.6-0.3,1.2-0.5,1.9
		c-0.6,2.3-1.4,5.1-2,7.7c1.7,1.6,3.6,3.1,5.5,4.5c0.2-1.6,0.4-3.4,0.6-4.6c0.4-3.2,3-15.3,3.8-18c0.5-2,0.8-2.9,1.5-3.2l0.6-0.3
		c0.1-0.1,0.4-0.1,0.4,0.4c-0.1,0.6-0.7,3.2-1.4,11.5c-0.6,5.7-0.6,10.8-0.4,13.9c0.1,1.3,0.1,3.1,2.1,2.3
		c2.3-0.9,10.3-3.8,14.5-5.1c6.8-2.1,19.6-4.9,32-6.7l3.4-0.5c0,0,2,11.9,2.4,13.9l0.4,2.2l-0.4-2.2c-0.3-2.1-2.4-13.9-2.4-13.9
		c0.5-0.1,1-0.1,1.5-0.2c1.1-0.1,2.1-0.3,3.1-0.4l3.6-0.5c1.7-0.2,3.1-0.4,4.4-0.6h0c0,0,2.3,10.8,3.2,14.6c0.1,0.2,0.1,0.5,0.2,0.7
		l0.4,2l0,0l-0.4-2c-0.7-3.1-3.4-15.3-3.4-15.3l3.7-0.5c1.1-0.1,2.5-0.3,2.9-0.3c0.9,0,1.2-0.5,0.6-0.7c-0.5-0.1-1.6-0.3-2.1-0.3
		l-0.8,0c-0.9,0-1.1-0.2-1.3-1.4c-0.5-3.7-2.6-12.9-4.1-17.7c-1.4-4.7-1.8-6-2.1-7c-0.3-0.9,0.3-0.9,0.6-0.9c1,0.1,2.5,0.6,2.9,1.5
		c0.9,2,7.2,18.4,9.7,24.5c1.6,3.9,3.4,8.5,5.2,12.6c1.1-0.9,2.2-1.9,3.3-2.9c-3.3-7.1-10.5-23.3-14.3-31.5
		c-0.1-0.3-0.3-0.8-0.4-1.1l0-0.2c0-0.5,0.7-0.6,1-0.6c1.3,0.1,13.6,0.9,16.9,1.3c2.2,0.2,4.4,0.5,5.9,0.8c0.3,0.1,0.6,0.1,0.9,0.2
		c0.3,0.1,0.5,0.1,0.7,0.2c1.1,0.3,3,1,4.8,2c0.7,0.4,1.6,1,2.5,1.7c0.3-0.8,0.5-1.5,0.8-2.3c-0.6-0.4-1.4-0.9-2.1-1.3
		C261.6,216.5,259.9,215.8,258,215.4 M158.4,174.9c-0.3,0.2-0.6,0.2-0.9-0.3c-0.6-1.1-1-3.1-1.1-4.3c-0.2-1.3-0.4-5.1-0.3-7.2
		c0.1-2.1-0.3-3.2-1.1-4.2c-0.7-1-1.2-1.7-1.4-2c-0.2-0.4-0.1-0.7,0.4-1c0.2-0.2,0.6-0.1,1-0.1c0.7-0.1,2.9-0.9,4.6-2.2
		c1.6-1.3,4.3-3.8,6.1-4.8c1.8-1,2.6-1.4,4.7-1.7c0.4,0,0.9,0.1,0.3,0.6c-0.6,0.5-2.6,1.2-5,4.7c-1.4,2.2-1.7,3.4-2.1,4.4
		c-0.5,1-0.9,1.2-1.6,2c-0.4,0.4-1.1,1.2-1.3,2.3c-0.3,1.1-1.3,5.2-0.7,11.3c0.1,0.7,0.4,1.7-0.3,2
		C159.1,174.5,158.7,174.7,158.4,174.9z M161.3,183.1c-0.4-0.3-1.8-2.2-2.5-4.4c-0.1-0.2-0.2-0.8,0.2-1c0.3-0.1,0.7-0.4,0.9-0.5
		c0.2-0.1,0.8-0.2,0.8,0.5c0.1,0.8,0.1,1.7,1,4c0.2,0.4,0.2,0.5,0.2,0.7C162.2,183,161.6,183.3,161.3,183.1z M164.2,175.7
		c-0.1,0-1.1,0.1-1.6,0.2c-0.3,0.1-0.7,0.2-0.7-0.1c0-0.4-0.2-0.8-0.2-1l0.2-0.3c0.4-0.1,1.9-0.4,2.1-0.4c0.1,0,0.3,0,0.4,0.4
		c0.1,0.3,0.1,0.6,0.2,0.8C164.5,175.4,164.5,175.6,164.2,175.7z M164.8,170.7c-0.1-0.5-0.2-1.3-0.2-1.7c0-0.2,0.1-0.7,0.3-1
		c0.3-0.4,0.8-0.7,1.1-0.9c0.5-0.4,0.4-1.5,0.5-2.2c0.1-1.8,0-7.7,3.7-13.3l0.4-0.6l0.1-0.2l0.3-0.4l0.1-0.1l0.4-0.4l0.1,0l0.5-0.3
		l0.2-0.1l0.3-0.2l0.2-0.1l0.4-0.2l0.1-0.1l0.5-0.2l0.2-0.1l0.3-0.1l0.1,0c0.8-0.2,1.6-0.3,2.4-0.5c2.3-0.4,4.9,0,6.3,0.4
		c1.1,0.3,1.6,0.6,2,0.3c0.4-0.3,1.3-1.4,1.7-1.8l0.1-0.2l0-0.1l0-0.1l0-0.1l0-0.1l0-0.1l-0.1-0.2l-0.4-0.4
		c-0.4-0.3-4.8-3.5-10.8-3.6c-5.8-0.1-10.5,1.9-11.8,2.3c-0.3,0.1-0.4,0.1-0.5,0.1c-0.1,0-0.7-0.2-0.5-0.5c0.2-0.4,0.7-1,1.3-1.5
		c0.6-0.5,3.3-3.1,6-4.3c0.5-0.2,0.6-0.3,0.9-0.4c0.4-0.2,0.7-1.1-0.3-1.1c-0.9,0-1.3,0.1-1.8,0.2c-0.5,0.1-0.8-0.1-0.5-0.6
		c0.3-0.4,0.9-0.9,2-1.5c2.4-1.3,6.7-2.7,8.8-3.1c2.7-0.6,3-0.6,4.8-0.7c1.7-0.1,3,0,3.6,0c5.3,0.2,11.5,2,16.2,5.1
		c4.5,3.3,11,8.9,12.3,22.6c0.2,1.6,0,2.6,0,3c-0.1,0.4-0.5,1.2-0.9,0.3c-1.3-2.8-3.4-6.5-5.8-10l-0.4-0.3l-0.1,0l0,0l-0.1,0.1
		l0,0.1l0,0.1l0,0.1l0,0.2c0.1,0.2,0.8,4,0.8,4.5c0,0.5-0.2,1.8,1.7,4.1c0.8,1,1.5,1.8,1.8,3.2c0.3,1.4,0.5,2,0.5,2.2
		c0,0.2,0.2,0.6-0.5,0.6c-0.7,0-3.3-0.2-4.4-0.2c-1.1,0-8.7,0.8-11.6,1.4c-2.8,0.6-4.4,1.3-5.8,2.9c-0.3,0.4-0.8,0.7-0.9,0.7
		c-0.1,0-0.5,0-1.2,0c-0.7,0-2,0.1-2.6,0.4c-0.7,0.3-1.1,0.6-1.9,0.2c-1.1-0.5-3.1-2.6-8.2-2.3c-3,0.1-4.6,0.2-6.7,0.5l-0.4,0.1
		l-0.2,0l-0.1,0c-0.9,0.1-1.8,0.3-3,0.6l-0.5,0.1C165.2,171.4,164.8,171.2,164.8,170.7z M211.4,169.4l-0.4,0.4l-1.8,0.2l-0.4-0.3
		l-0.1-0.8c0-0.1,0-0.3,0.3-0.3c0.2,0,1.6-0.1,2.1-0.2l0.3,0.3V169.4z M205,170.9c-0.4-0.3-1.2-0.8-1.6-0.9
		c-0.3-0.1-0.2-0.5,0.2-0.6c1.5-0.2,2.5-0.2,3.3,0.2c0.6,0.4,0.9,1,0.8,1.6c-0.2,0.7-0.5,0.5-0.8,0.5
		C206.6,171.8,205.4,171.2,205,170.9z M205.9,173.9c-0.3,0.2-1.1,0-1.5-0.1c-0.7-0.3-1.1-0.4-2-1c-0.6-0.4-1.6-0.6-2.5-0.3
		c-0.6,0.2-1.1,0.3-1.6,0.5c-0.5,0.2-0.6-0.3-0.5-0.5c0.1-0.2,1-1.2,2.1-1.6c0.2-0.1,0.7-0.1,0.9-0.1c0.7,0,1.6,0.3,2.3,0.8
		c0.7,0.5,1.7,1.3,2.5,1.6C205.8,173.3,206.5,173.5,205.9,173.9z M183.8,197.7c-2.7,0.9-3.4,0-3.7-0.3c-0.2-0.3,0.1-0.5,0.3-0.7
		c0.6-0.3,1.5-0.9,1.9-1.4c0.4-0.4,1.3-1.9,1.9-2.4c0.3-0.2,1.8-0.8,3-0.2c1.4,0.7,3.6,0.7,4.9,0.6c1.3-0.2,1.8-1.1,2.1-1.7
		c0.3-0.6,1-0.8,1.4-0.9c1-0.4,2.4-1.8,2.5-2c0.1-0.2,0.6-0.4,1.2,0c1.2,0.7,1.8,1.7,3,3c1.1,1.3,2.5,1.5,2.9,1.5
		c0.4,0,0.6,0.5,0.7,0.6c0,0.1-0.3,0.6-0.5,0.7c-0.2,0.2-0.4,0.5-2.5,0.6C192,195.4,187.1,196.6,183.8,197.7z M198.6,199
		c-0.6,0.3-2.6,1.1-3.5,1.2c-1,0.2-4,0.8-4.5,0.8c-0.6,0.1-1.5-0.1-2.3-0.7c-0.2-0.1-0.4-0.5,0.2-0.6c1-0.2,2.8-1,8.9-1.3
		c0.7,0,1,0,1.1-0.1C198.7,198.5,199.2,198.7,198.6,199z M184.3,212.8c-2.2,0.3-7.9-1.3-11.6-10.5c-1-2.4,0.1-4.7,1-5.2
		c0.5-0.3,0.8-0.4,1-0.4c0.2-0.1,1.2-0.2,1.3,0.9c0.1,0.9,1.8,8.2,4.1,10.6c0.6,0.6,1,0.6,1.2-0.1c0.1-0.6,0.4-1.3,0.5-1.6
		c0.1-0.2,0.6-0.8,0.9,0c0.7,1.7,1.5,3.9,2.1,4.7C185.2,212,185.1,212.6,184.3,212.8z M184.7,188.7c0.2,0.3,0.3,0.8,0.3,1
		c0,0.3-0.9,0.7-1.8-0.3c-0.9-1-0.7-2.5-0.4-3.1c0.6-1,1.8-0.5,1.7-0.1C184.1,187.3,184.5,188.4,184.7,188.7z M177.8,175.2
		c-0.7,0-1.4-0.1-2.7,0.4c-1.4,0.5-2.3,1.2-3,1.6c-0.7,0.4-1.4,0.6-1.6,0.6c-0.2,0-1.1-0.1-0.5-0.7c0.2-0.2,0.5-0.3,1.1-0.7
		c0.4-0.3,0.7-0.5,1.2-0.9c0.8-0.7,2.5-1.7,3.3-1.8c0.5-0.1,1.5,0,2.1,0.5C178.3,174.6,178.5,175.2,177.8,175.2z M165.9,176.4
		c0.1-0.5,0.6-1.7,1.6-2c0.1,0,0.7-0.2,1.1-0.3c0.5-0.1,1.1-0.2,1.3-0.3c0.8-0.1,0.9,0.4,0.4,0.8c-0.3,0.2-0.8,0.6-1.2,0.9
		c-0.7,0.5-1.3,1.2-1.8,1.6C166.7,177.6,165.7,177.3,165.9,176.4z M169.4,189.4L169.4,189.4L169.4,189.4c-0.2-0.3-0.4-0.6-0.5-0.8
		l-0.1-0.2c-0.2-0.3-0.3-0.6-0.4-0.9c-0.2-0.6,0.2-0.7,0.4-0.6c0.3,0.1,1,0.6,1.8,0.8c0.5,0.1,0.8-0.1,0.9-0.5l0.1-0.2l0-0.1l0-0.1
		l0-0.1l0-0.1l0-0.1v-0.1l0-0.1l0-0.1l0-0.1l0,0l-0.1-0.1l-0.2-0.1c-0.7-0.3-2.7-0.9-4.2-3.7c-0.2-0.4,0-0.7,0.1-0.9
		c0.1-0.1,0.7-0.5,0.9-0.6c0.2-0.2,0.6-0.1,1,0.1c0.3,0.2,1.1,0.8,1.7,0.7c0.6-0.1,0.6-0.3,0.7-0.4c0.4-0.6,1.5-2.7,4.3-2.7
		c1.2,0,2.2,0.1,2.6,0.1c0.4,0,1.8-0.1,2.6-0.7c0.8-0.5,1.1-0.1,0.7,0.4l-0.2,0.2l-0.1,0.1l-0.2,0.2c-0.2,0.3-0.2,0.6,0.1,0.9
		c0.5,0.5,0.6,0.6,0.8,0.8l0.3,0.1l0.1,0l0.1,0l0.2-0.1c0.3-0.3,0.5-0.4,0.7-0.7c0.2-0.2,0.4,0,0.3,0.4c0,0.3,0.1,2.2-2,4.5
		l-0.4,0.4l-0.1,0.1l-0.1,0.1l-0.2,0.2l-0.2,0.2l-0.2,0.2l-0.1,0.1l-0.2,0.2l-0.1,0.1l-0.2,0.3l-0.2,0.4c-0.6,1.2-0.5,1.6-0.6,2.1
		c-0.1,0.4-0.4,0.6-0.8,0.8c-0.2,0.1-0.9,0.5-1.5,1h0l-0.6,0.5l-0.7,0.7l-0.4,0.4l-0.1,0.1l-0.3,0.2l-0.1,0.1l-0.3,0.1l-0.2,0
		l-0.1,0l-0.2,0l-0.2,0l-0.3,0l-0.2,0l-0.3-0.1l-0.2-0.1l-0.3-0.1l-0.2-0.1l0,0l-0.4-0.3c-0.4-0.3-0.8-0.7-1.2-1.1l0,0l0,0l-0.6-0.6
		l-0.1-0.1C169.8,189.9,169.6,189.7,169.4,189.4z M194.4,233.1c-0.1,0.7-0.7,2.9-2.7,7.5c-0.1,0.3-0.3,0.6-0.4,0.9l-0.1,0.2
		l-0.1,0.3l0,0l-0.2,0.5l0,0l0,0.1l-0.1,0.1l-0.1,0.2l0,0l0,0l-0.1,0.1l0,0v0l-0.1,0.1l0,0l0,0l-0.1,0.1l0,0l-0.1,0.1l0,0l-0.1,0.1
		l0,0l-0.1,0.1l0,0l-0.1,0.1v0l0,0l0,0l-0.1,0.1l0,0l-0.1,0.1l0,0l0,0l0,0l-0.1,0.1h0l-0.1,0l0,0l-0.1,0c-0.4,0.1-0.8,0.1-1.1,0.2
		l-0.3,0.1l-0.3,0.1c-3,0.5-11.1,1.9-14.8,2.7c-2.5,0.5-2.2-0.8-2.9-3c-0.3-0.9-1.2-9.4-0.7-14.7c0.2-1.8,0.2-2.3,0.6-2.5
		c0.3-0.2,0.8-0.5,0.9-0.5c0.1,0,0.6-0.2,0.8,0.2c0.2,0.4,3.8,7.7,6.2,10.4c2.1,2.4,3.6,4.1,5.4,5.3l0.3,0.2l0,0l0.1,0h0.1l0,0
		l0.1-0.1l0,0l0.1-0.1l0,0c0-0.3-0.1-0.7-0.4-1c-0.4-0.4-2-2.1-4.2-5.1c-2.8-3.9-4.6-9.7-5.1-11.6c-0.3-1.2-0.5-3.1-0.5-4.7v0l0-0.2
		l0-0.1l0-0.3l0-0.4l0-0.2l0-0.3l0-0.1l0.1-0.3c0.4-1.2,0.8-1.1,1.2-0.7c0.4,0.4,3.8,3.5,9.5,6.1c1.2,0.5,1.9,0.8,2.1,1
		c0.2,0.2,0.4,0.5-0.1,0.7c-0.5,0.1-2,0.2-3.6,0.8l-0.3,0.1c-0.6,0.2-0.8,0.5-0.9,0.8l-0.1,0.2l0,0.1l0,0.2l0,0.1l0,0.2l0.1,0.4
		c0.1,0.9,0.2,1.5,0.3,2.6c0.1,1.1,0,2.2,0.6,2.7c0.6,0.5,1.3,0.8,3.4,0.4c1.9-0.4,2.6-0.5,2.8-0.6c0.2,0,0.8-0.1,0.4,0.5L189,234
		c-0.4,0.8-1.5,2.6-1.9,3.8c-0.4,1.3-0.5,1.7-0.5,1.9c0,0.2,0.1,0.7,0.5,0.2c0.4-0.5,1.2-2.3,3.2-4.6c0.3-0.3,0.5-0.6,0.7-0.8v0
		l0.5-0.5l0.1-0.1l0.4-0.4l0.1-0.1c0.3-0.3,0.5-0.5,0.8-0.6l0.1,0l0.3-0.2l0.1,0l0.2-0.1l0,0l0,0l0.2-0.1
		C194.4,231.9,194.5,232.2,194.4,233.1z M197.7,243.3c-0.3,0.1-1.7,0.3-1.9,0.3l-0.3-0.3c0.1-0.1,1-1.4,1.6-3.5
		c0.1-0.4,0.3-0.6,0.4-0.1c0.1,0.4,0.5,2.2,0.6,2.9C198.1,242.6,198.2,243.1,197.7,243.3z M198.2,225.7c-0.9,0.3-1.9-0.7-2.7-1.2
		c-1.8-1.3-3.5-2.5-4.9-4.2c-2.1-2.6-1.9-4.4-1.3-7.8c0.4-2.4-0.3-4.6-0.5-4.9c-0.2-0.3,0-0.6,0.5-0.4c0.5,0.2,1,1,1.5,1.6
		c0.5,0.6,0.6,0.2,0.7-0.2c0.1-1-0.1-1.8-0.2-2.2h0l0-0.1c-0.1-0.3-0.3-0.9-0.9-1c-0.7-0.1-1.4-0.2-1.8-0.5l-0.2-0.6
		c0.4-0.4,0.9-0.8,1.4-1c0.7-0.2,1.3-0.6,2.2-0.6c5.9,0,7.4-1.3,9.7-2.2c0.4-0.2,0.7-0.3,1.1-0.2c0.4,0.1,1.4,0.5,1.7,1
		c0.3,0.5,0.3,2.4,0.8,3.7c0.5,1.4,1.3,0,1.5-0.6c0.2-0.6,0.2-2,0.3-2.3c0-0.4,0.1-1.9,0.6-2.4c0.9-1,1.1-2.2,1.3-2.6
		c0.1-0.4,0.2-1.6,0-3.2l-0.1-0.6c-0.3-2-0.7-2.2-1.3-2.5c-0.5-0.4-1.1-0.2-2.5-1.1c-1.2-0.8-2.4-2.3-3.3-3.2
		c-0.9-0.9-2.4-1.8-3.9-2l-0.3,0h0l-0.2,0h0l-0.1,0l0,0l-0.1,0.1l0,0l0,0.1l0,0l0,0l0,0.1l0,0l0,0.1c0,0.4,0.3,0.8,0.4,1
		c0.1,0.3,0.3,1.1-0.1,1.5c-0.4,0.5-3,2.8-5.5,2.7c-1.1,0-2-0.2-2.8-0.6l0,0l-0.1,0l-0.5-0.3l-0.1,0l-0.5-0.3l-0.1-0.1l-0.4-0.3
		l-0.1-0.1l-0.4-0.4l-0.1-0.1l-0.2-0.3l-0.1-0.1l-0.2-0.4l0,0l-0.2-0.3l0-0.1l-0.1-0.3c-0.3-1.1,0.5-3.6,0.5-5.4
		c0-0.8-0.2-2.3-0.3-3.4c-0.1-1,0.4-2.5,0.7-2.8l0.2-0.2l0.1-0.1l0.3-0.2l0.1,0l0.4-0.1v0c0.2-0.1,0.5-0.1,0.7-0.2
		c0.9-0.2,1.9,0.2,2.1,0.9c0.9,2.5,1.9,3,2.2,3.2c0.3,0.2,0.9-0.3,1.1-0.5c0.2-0.2,0.7-0.8,0.5-1.1c-0.3-0.4-0.5-0.7-0.6-1
		c-0.2-0.5,0.4-0.5,0.6-0.4c1.9,0.8,2.7,0.9,4.5,0.9c1.8-0.1,4.6-1.2,4.9-1.2c0.3,0,0.8,0.2,1,0.5l0.1,0.2c0.2,0.3,0.4,0.6,0.6,0.7
		l0,0c0.3,0.1,0.9,0,1.2,0c0.5,0,1.2-0.1,1.2,0.7c0,2.2-1.8,3.6-2,3.7l-0.1,0.2l0,0.1l0,0.1l0,0.1l0.3,0.7l0.1,0.1l0,0l0.1,0.1
		l0.1,0l0.1,0l0.1,0l0.2-0.1c1.5-0.9,2.1-1.9,2.7-3.3c0.6-1.3,1-5.6,1-6.3c0-0.7,0.3-1.1,0.6-1.4c0.3-0.3,2.1-1.4,2.3-1.5
		c0.2-0.1,0.5-0.1,0.8,0.6c0.3,0.7,0.9,4.6,1,5.3c0.1,0.7,0.5,0.6,0.6,0.4c0.4-0.3,0.6-0.6,1-1.2c0.3-0.6,0.1-1.3-0.2-1.7
		c-0.3-0.4-0.8-1-0.6-1.5c0.5-1.3,1.6-1.3,1.8-1.2c0.3,0,1.3,0.5,1.5,3.4c0.3,4.3-1.5,8.7-1.9,9.8c-0.9,2.5-1.1,4.2-1.3,5
		c-0.1,0.8-0.7,0.7-0.9,0.5l-0.4-0.8c-0.1-0.1-0.3,0-0.5,0.6c-0.2,0.7-0.7,1.6-1,2.2c-0.2,0.3-0.2,0.8-0.1,1.2
		c0.1,0.7,0.5,3.5,0.4,6.6c-0.2,5.6-2.1,9.1-3.5,11c-3.3,4.3-6.4,6.2-6.7,6.4c-0.5,0.3-1.3,0.3-1.5,0.2c-0.3-0.1-0.5-0.4-1-0.7
		l-0.1-0.1c-0.4-0.2-0.5,0.4-0.5,0.5c0,0.2,0.3,0.7,0.4,1.3c0.3,1.1-0.3,2.3-0.9,3.4c-0.9,1.4-1.8,3-1.6,4.7L198.2,225.7z
		 M226.1,227.4c0.5,2.8,1,6.3,1.7,10.6l0.1,0.6l0,0.1l0,0.4v0l0,0.2l0,0.1l0,0l-0.1,0.2l0,0l-0.1,0.1l0,0l-0.2,0.1l-0.1,0l-0.2,0.1
		l-0.1,0l-0.3,0.1l-0.7,0.1c-0.3,0-0.8,0.1-1.2,0.1c-4.3,0.4-12.8,1.3-19.6,2.1l-0.4,0c-0.5,0.1-0.8,0-0.9-0.5
		c0-0.5-0.8-5.2-3.2-9.2c-0.2-0.4-0.5-0.7-0.7-1.1c-0.3-0.4,0.1-0.7,0.5-0.6c1.1,0.4,4.1,1.8,8.4,4.8c1.1,0.8,1.4,1,1.6,1.2l0.1,0.1
		l0,0l0.1,0l0.1,0l0.1,0h0l0.1,0l0.1-0.4c-0.3-0.8-1.7-2.2-5.4-5.7c-0.5-0.5-0.5-0.7,0-0.7c0.5,0,2,0,2.8,0c0.8,0,2.5-0.1,2.2-2.4
		c-0.3-1.8-0.5-3.6-0.5-4.2c0-0.5-0.1-1.6-1.4-1.7c-1.3-0.1-3.4,0.2-5.3,0.8c-0.5,0.2-0.7-0.1-0.3-0.4c0.4-0.4,3.8-2.6,6.6-5.9
		c3.2-3.6,4.5-6.3,5.3-8.7c0.1-0.4,0.3-0.3,0.5-0.2c0.2,0.1,1.4,1.1,1.8,3.4c0.4,2.4,1.2,5.6-0.2,14.3c-0.8,4.7-1.8,7.5-2,8.2
		c-0.2,0.7,0.2,1,0.6,0.4c1-1.4,2.4-5.2,3.5-9.7c1.1-4.4,1.5-8.1,1.7-10.5l0-0.6l0-0.1l0-0.5l0-0.3l0-0.1l0-0.1l0,0l0.1-0.1l0,0
		l0.1,0l0,0l0,0l0.1,0l0,0h0l0,0l0.2,0.1c0.2,0.1,1.2,0.4,1.7,2.8l0.1,0.3l0,0.1l0.1,0.3v0C224.2,217.5,225,220.7,226.1,227.4z"/>
	<polyline class="st0" points="182.8,226 182.5,226.1 182.8,226 	"/>
	<path class="st0" d="M191.4,235.3c0.3-0.5,0.7-1,0.6-1c-0.2,0-0.7,0.2-1.1,0.3l0.1-0.1c-0.2,0.3-0.5,0.5-0.7,0.8
		c-2,2.3-2.8,4.1-3.2,4.6c-0.4,0.5-0.6,0.1-0.5-0.2c0-0.2,0.1-0.6,0.5-1.9c0.4-1.2,1.5-3,1.9-3.8c-0.1,0.3-0.3,0.6-0.6,1
		c-1.6,0.3-4.6,1.2-6,1c-1.7-0.2-2.2-2.5-2.6-3.9c-0.2-1.6-1.3-3.9,0.6-5c0.4-0.1,0.7-0.3,1.1-0.3l0,0.1c0.1-0.3,0.4-0.5,0.9-0.8
		l-0.1,0.1c-1.1-0.6-3-1.6-3.1-1.7l-2-1.5l-0.9-0.7l0,0l0,0c-0.3-0.2-1.9-1.3-2.9-2.2c0,1.5,0.2,3.4,0.5,4.7
		c0.5,1.9,2.4,7.7,5.1,11.6c2.1,3,3.8,4.7,4.2,5.1c0.3,0.3,0.4,0.7,0.4,1l0-0.1c0.1,0.4,0.1,0.5-0.1,0.8c-0.2,0.3-1,1.2-2.8,1
		l-1.3-0.8c-0.2-0.1-2.2-1.9-2.8-2.4l-0.6-0.7l-1-1.1c-0.1-0.1-0.4-0.5-0.8-0.9c-0.4-0.4-0.7-0.8-0.8-0.9c-0.1-0.1-1.6-2.2-2.2-3.2
		c-0.5-0.9-1.8-3.5-2.2-4.4v0c-0.5,5.3,0.4,13.7,0.7,14.7c0.6,2.3,0.4,3.5,2.9,3c3.8-0.8,11.9-2.2,14.8-2.7c0.3-0.8,0.1-0.3,0.6-1.4
		C189.5,240.7,191.2,235.8,191.4,235.3"/>
	<path class="st0" d="M197.5,239.6c-0.1-0.5-0.4-0.3-0.4,0.1c-0.5,2.2-1.5,3.4-1.6,3.5l0.3,0.3c0.2,0,1.6-0.2,1.9-0.3
		c0.5-0.1,0.4-0.7,0.4-0.8C198,241.8,197.6,240,197.5,239.6"/>
	<path class="st0" d="M159.8,172.3c-0.6-6.1,0.4-10.1,0.7-11.3c0.3-1.1,1-1.9,1.3-2.3c0.7-0.8,1.2-1.1,1.6-2c0.5-1,0.7-2.2,2.1-4.4
		c2.3-3.5,4.4-4.2,5-4.7c0.6-0.5,0.1-0.7-0.3-0.6c-2.1,0.2-2.9,0.7-4.7,1.7c-1.8,1-4.4,3.5-6.1,4.8c-1.7,1.3-3.9,2.1-4.6,2.2
		c-0.3,0.1-0.8,0-1,0.1c-0.4,0.3-0.6,0.6-0.4,1c0.2,0.3,0.7,1,1.4,2c0.7,1,1.2,2.2,1.1,4.2c-0.1,2.1,0.2,5.9,0.3,7.2
		c0.2,1.3,0.6,3.2,1.1,4.3c0.2,0.4,0.5,0.4,0.9,0.3c0.3-0.1,0.7-0.3,1.1-0.5C160.2,174,159.9,173,159.8,172.3"/>
	<path class="st0" d="M161.8,181.8c-0.9-2.3-1-3.3-1-4c-0.1-0.8-0.6-0.6-0.8-0.5c-0.2,0.1-0.6,0.3-0.9,0.5c-0.4,0.2-0.3,0.8-0.2,1
		c0.7,2.2,2.2,4.1,2.5,4.4c0.3,0.2,0.9-0.1,0.8-0.6C162,182.3,162,182.2,161.8,181.8"/>
	<path class="st0" d="M180.3,179.4c-0.5,0.3-0.8,0.3-1.1,0.5c-0.2,0.1-0.6,0.4-0.5,0.8c0.1,0.5,0.2,0.6,0.3,1c0,0.4-0.1,1-0.5,1.7
		c-0.4,0.7-1.1,1.3-1.4,1.5c-0.4,0.2-0.6,0.3-0.8,0.4c0,0-0.1,0.1-0.1,0.4l0.1-0.1l0.4-0.1l0.3-0.1l0.4-0.1c0.1,0,1.1-0.2,1.7-0.5
		c0.6-0.3,1.7-0.8,2.3-1.6c0.5-0.6,1-1.5,1.1-2.5l0-0.3v0l0,0l-0.3-0.1c-0.2-0.1-0.3-0.2-0.8-0.8c-0.3-0.4-0.3-0.6-0.1-0.9l0,0
		C181,178.9,180.7,179.1,180.3,179.4"/>
	<path class="st0" d="M200,220.6c0.6-1,1.2-2.3,0.9-3.4c-0.1-0.6-0.4-1.1-0.4-1.3c0-0.1,0.1-0.7,0.5-0.5l0,0c0,0,0-0.3-0.4-1.6
		c-0.4-1.3-1.3-2.7-1.5-3c-0.2-0.3-0.6-1-0.6-1.1c0-0.1-0.2-0.5-0.3-1.3c-0.2-1.5-0.1-2.6-0.1-2.7l0.1-0.4l-0.1-0.2l-0.5,0.2
		c-0.4,0.4-0.4,0.5-0.5,0.6l0,0.4c0,0.5-0.1,0.9-0.3,1.2c-0.2,0.4-0.4,0.5-0.7,0.4c-0.3,0-0.6-0.3-0.6-0.9c0-0.6-0.2-0.9-0.3-1
		l-0.5-0.2c-0.1,0-0.2,0.1-0.8,0.3c-0.7,0.2-1.7,0.2-1.9,0.2l-0.7,0.1c0.1,0.5,0.3,1.2,0.2,2.2c0,0.4-0.2,0.9-0.7,0.2
		c-0.5-0.6-1-1.4-1.5-1.6c-0.5-0.2-0.7,0.1-0.5,0.4c0.2,0.3,0.9,2.6,0.5,4.9c-0.6,3.3-0.8,5.2,1.3,7.8c1.4,1.7,3.1,2.9,4.9,4.2
		c0.8,0.5,1.8,1.6,2.7,1.2l0.1-0.3C198.2,223.6,199.1,222.1,200,220.6"/>
	<path class="st0" d="M205.6,176.2l-0.4,0.1l-0.3,0.2c-0.1,0.1-0.1,0.4,0.1,0.6c0.2,0.2,0.5,0.7,0.5,1.1c0,0.2,0,0.8-0.2,1.2
		c-0.2,0.5-0.5,0.9-0.6,1.1c-0.1,0.1-0.5,0.6-0.6,1l0,0.2l0,0v0l0-0.1c0.1-0.1,0.3-0.2,0.7-0.4c0.5-0.2,0.9-0.4,1.2-0.6l-0.1,0.1
		l0.1-0.2c0.2-0.1,1.9-1.5,2-3.7c0-0.8-0.8-0.7-1.2-0.7C206.5,176.2,205.9,176.2,205.6,176.2L205.6,176.2L205.6,176.2L205.6,176.2"
		/>
	<path class="st0" d="M205.4,194.6c0.2-0.2,0.6-0.6,0.5-0.7c0-0.1-0.3-0.6-0.7-0.6c-0.4,0-1.7-0.2-2.9-1.5c-1.1-1.3-1.8-2.2-3-3
		c-0.7-0.4-1.1-0.2-1.2,0c-0.1,0.1-1.5,1.5-2.5,2c-0.4,0.2-1.1,0.4-1.4,0.9c-0.3,0.6-0.8,1.6-2.1,1.7c-1.3,0.2-3.5,0.1-4.9-0.6
		c-1.2-0.6-2.7,0-3,0.2c-0.6,0.5-1.4,2-1.9,2.4c-0.4,0.4-1.3,1.1-1.9,1.4c-0.3,0.1-0.6,0.4-0.3,0.7c0.2,0.3,1,1.2,3.7,0.3
		c3.2-1.1,8.1-2.3,19-2.6C205,195.1,205.1,194.8,205.4,194.6"/>
	<path class="st0" d="M197.4,198.6c-6.2,0.3-7.9,1.1-8.9,1.3c-0.6,0.1-0.4,0.5-0.2,0.6c0.8,0.5,1.7,0.7,2.3,0.7
		c0.5,0,3.6-0.7,4.5-0.8c1-0.2,2.9-0.9,3.5-1.2c0.7-0.3,0.1-0.5-0.1-0.5C198.3,198.5,198,198.5,197.4,198.6"/>
	<path class="st0" d="M186.8,146.2c1-0.9,3.5-3.3,5.7-3.2c2.2,0.1,8.4,0.9,11.9,3.3c3.5,2.4,4.6,4.8,4.9,5.5h0l0.4,0.3
		c2.4,3.5,4.4,7.2,5.8,10c0.4,0.9,0.9,0.1,0.9-0.3c0.1-0.4,0.2-1.3,0-3c-1.3-13.7-7.8-19.2-12.3-22.6c-4.8-3.1-10.9-4.9-16.2-5.1
		c-0.6,0-2-0.1-3.6,0c-1.8,0.1-2.1,0.1-4.8,0.7c-2.1,0.5-6.4,1.8-8.8,3.1c-1.1,0.6-1.7,1.1-2,1.5c-0.3,0.4,0,0.6,0.5,0.6
		c0.5-0.1,0.9-0.2,1.8-0.2c0.9,0,0.7,0.9,0.3,1.1c-0.3,0.1-0.4,0.2-0.9,0.4c-2.7,1.2-5.5,3.8-6,4.3c-0.5,0.5-1,1.1-1.3,1.5
		c-0.2,0.4,0.3,0.5,0.5,0.5c0.2,0,0.3,0,0.5-0.1c1.2-0.4,6-2.5,11.8-2.3c5.9,0.1,10.4,3.4,10.8,3.6L186.8,146.2L186.8,146.2
		L186.8,146.2"/>
	<path class="st0" d="M164.3,174.5c-0.1-0.3-0.2-0.4-0.4-0.4c-0.2,0-1.7,0.3-2.1,0.4l-0.2,0.3c0,0.1,0.1,0.6,0.2,1
		c0,0.3,0.4,0.2,0.7,0.1c0.5-0.1,1.5-0.2,1.6-0.2c0.3,0,0.3-0.3,0.3-0.4C164.5,175.1,164.4,174.8,164.3,174.5"/>
	<path class="st0" d="M211.1,168.3c-0.5,0.1-1.9,0.2-2.1,0.2c-0.3,0-0.3,0.2-0.3,0.3l0.1,0.8l0.4,0.3l1.8-0.2l0.4-0.4v-0.8
		L211.1,168.3"/>
	<path class="st0" d="M154.4,233.7c0.3,0.1,0.6,0.1,0.8,0.2c-0.6-0.1-1.3-0.3-1.7-0.4c-0.2,0-0.5-0.1-0.8-0.1
		c-0.6,0-1.3,0.1-1.9,0.4c-0.7,0.4-5.4,2.7-7.4,3.7c2.2,3.2,4.7,6.2,7.5,9c0.2-0.7,0.3-1.2,0.4-1.6C152,242,153.2,235.6,154.4,233.7
		"/>
	<path class="st0" d="M257,217.4c-0.3-0.1-0.6-0.1-0.9-0.2c-1.5-0.3-3.7-0.6-5.9-0.8c-3.3-0.3-15.6-1.1-16.9-1.3c-0.3,0-1,0-1,0.6
		l0,0.2c0.1,0.3,0.3,0.8,0.4,1.1c3.8,8.2,11,24.4,14.3,31.5c8-7.5,14.2-16.8,17.9-27.3c-0.9-0.7-1.7-1.3-2.5-1.7
		c-1.8-1-3.7-1.7-4.8-2C257.5,217.5,257.3,217.5,257,217.4"/>
	<path class="st0" d="M218.9,259.4l-0.4-2.2c-0.4-2.1-2.4-13.9-2.4-13.9l-3.4,0.5v0c0.1,0.7,1.4,11.8,1.7,13.6l0.9,6.3
		c0.1,0.5,0.2,1.1,0.2,1.6c1.4-0.3,2.8-0.7,4.2-1.1c-0.1-0.7-0.2-1.4-0.3-2.2C219.1,261.2,219,260.3,218.9,259.4"/>
	<path class="st0" d="M220.7,242.7c0.1,0.3,0.1,0.6,0.2,1c0.5,2.5,1.2,6.2,2.3,11.1l0.8,4.8c0,0.2,0.3,1.6,0.5,2.9
		c1.3-0.5,2.6-1,3.8-1.6l-0.7-3.9c-0.7-3.5-3.3-14.9-3.3-14.9L220.7,242.7"/>
	<path class="st0" d="M232.4,241.2l-3.7,0.5c0,0,2.6,12.3,3.4,15.3l0.4,2c1.3-0.7,2.5-1.4,3.8-2.2
		C234.7,251.1,232.4,241.2,232.4,241.2"/>
	<path class="st4" d="M174.4,149.1l-0.1,0.2c-0.6,1.3-0.4,0.4-1.7,3.1c-1.6,3.5-2.3,8.7-2.7,13.2c0.1,1.5,0.2,3.5,0,5l0,0
		c2.1-0.3,3.7-0.4,6.7-0.5c5.1-0.3,7,1.9,8.2,2.3c0.8,0.3,1.3,0,1.9-0.2c0.7-0.3,1.9-0.5,2.6-0.4c0.7,0,1.1,0,1.2,0
		c0.1,0,0.6-0.4,0.9-0.7c1.5-1.5,3-2.2,5.8-2.9c2.8-0.6,10.5-1.3,11.6-1.4c1.1,0,3.7,0.2,4.4,0.2c0.7,0,0.5-0.4,0.5-0.6
		c0-0.1-0.1-0.7-0.5-2.2c-0.4-1.4-1.1-2.2-1.8-3.2c-1.9-2.3-1.7-3.6-1.7-4.1c0-0.5-0.8-4.2-0.8-4.5l0-0.2l0-0.1l0-0.1l0-0.1l0.1-0.1
		l0,0l0.1,0h0c-0.3-0.7-1.4-3.1-4.9-5.5c-3.5-2.4-9.7-3.2-11.9-3.3c-2.2-0.1-4.6,2.3-5.7,3.2l0,0l0,0l0.1,0.2l0,0.1l0,0.1l0,0.1
		l0,0.1l0,0.1l-0.1,0.2c-0.4,0.4-1.3,1.4-1.7,1.8c-0.4,0.3-0.9,0.1-2-0.3c-1.4-0.4-4-0.8-6.3-0.4c-0.8,0.1-1.6,0.3-2.4,0.5
		L174.4,149.1"/>
	<path class="st4" d="M169.2,170.6c-0.9,0.1-1.8,0.3-3,0.6C167.3,171,168.3,170.8,169.2,170.6"/>
	<polyline class="st4" points="169.6,170.6 169.3,170.6 169.6,170.6 	"/>
	<polyline class="st4" points="169.9,170.5 169.6,170.6 169.9,170.5 	"/>
	<polyline class="st4" points="169.3,170.6 169.2,170.6 169.3,170.6 	"/>
	<polyline class="st4" points="165.6,171.3 166.1,171.2 165.6,171.3 	"/>
	<path class="st4" d="M173.3,186.3c0,0,0.1,0.4,0.2,0.6l0,0c0,0.1,0.1,0.4,0.3,0.7c0.1,0.2,0.2,0.4,0.4,0.7c0.3,0.4,0.6,0.8,0.9,1.2
		c0.5,0.6,0.8,1,0.8,1c0.4,0.3,0.8,0.2,1.1,0c0.7-0.5,1.3-0.9,1.5-1c0.4-0.2,0.7-0.4,0.8-0.8c0.1-0.5,0-0.9,0.6-2.1l0.2-0.4l0.2-0.3
		l0.1-0.1l0.2-0.2l0.1-0.1l0.2-0.2l0.2-0.2l0,0h0l-0.5,0.4c-0.1,0.1-0.8,0.4-1.4,0.6c-0.5,0.2-1.1,0.3-1.9,0.5
		c-0.6,0.1-1-0.2-1.1-0.3l-0.2-0.4l0-0.1v0l0.1-0.1c0-0.2,0.1-0.3,0.1-0.4c0.2-0.1,0.4-0.2,0.8-0.4c0.4-0.2,1-0.7,1.4-1.5
		c0.4-0.7,0.6-1.4,0.5-1.7c0-0.4-0.2-0.5-0.3-1c-0.1-0.5,0.3-0.7,0.5-0.8c0.2-0.1,0.6-0.2,1.1-0.5c0.5-0.3,0.8-0.6,0.9-0.7l0,0
		l0.2-0.2l0.1-0.1l0.2-0.2c0.5-0.6,0.1-1-0.7-0.4c-0.8,0.5-2.2,0.7-2.6,0.7c-0.4,0-1.5-0.1-2.6-0.1c-2.8,0-3.9,2.1-4.3,2.7
		c-0.1,0.1-0.2,0.4-0.7,0.4c-0.6,0.1-1.4-0.5-1.7-0.7c-0.4-0.3-0.7-0.3-1-0.1c-0.2,0.2-0.8,0.5-0.9,0.6c-0.1,0.1-0.4,0.5-0.1,0.9
		c1.5,2.8,3.5,3.4,4.2,3.7l0.2,0.1l0,0C172.1,186.1,172.7,186.3,173.3,186.3"/>
	<polyline class="st4" points="171.5,185.9 171.6,186.1 171.5,185.9 	"/>
	<path class="st4" d="M193.8,206.1c0.7-0.2,0.8-0.3,0.8-0.3l0.5,0.2c0.1,0.2,0.3,0.4,0.3,1c0,0.6,0.3,0.9,0.6,0.9
		c0.3,0,0.5-0.1,0.7-0.4c0.2-0.4,0.3-0.7,0.3-1.2l0-0.4c0-0.1,0-0.2,0.5-0.6l0.5-0.2l0.1,0.2l-0.1,0.4c0,0.1-0.1,1.1,0.1,2.7
		c0.1,0.8,0.3,1.2,0.3,1.3c0,0.1,0.5,0.8,0.6,1.1c0.2,0.3,1,1.7,1.5,3c0.4,1.3,0.4,1.6,0.4,1.6l0,0l0.1,0.1c0.5,0.4,0.7,0.6,1,0.7
		c0.3,0.1,1.1,0.1,1.5-0.2c0.4-0.3,3.5-2.1,6.7-6.4c1.4-1.8,3.3-5.4,3.5-11c0.1-3.1-0.3-5.9-0.4-6.6c-0.1-0.4-0.1-0.9,0.1-1.2
		c0.3-0.5,0.8-1.5,1-2.2c0.2-0.7,0.4-0.7,0.5-0.6l0.4,0.8c0.1,0.1,0.8,0.3,0.9-0.5c0.1-0.8,0.3-2.5,1.3-5c0.4-1.1,2.1-5.5,1.9-9.8
		c-0.2-2.9-1.3-3.4-1.5-3.4c-0.3,0-1.3-0.1-1.8,1.2c-0.2,0.6,0.3,1.2,0.6,1.5c0.3,0.4,0.6,1.1,0.2,1.7c-0.3,0.6-0.6,0.9-1,1.2
		c-0.2,0.1-0.5,0.2-0.6-0.4c-0.1-0.6-0.7-4.6-1-5.3c-0.3-0.6-0.6-0.6-0.8-0.6c-0.2,0.1-2,1.2-2.3,1.5c-0.4,0.3-0.6,0.7-0.6,1.4
		c0,0.7-0.4,5-1,6.3c-0.6,1.3-1.2,2.4-2.7,3.3l-0.1,0.1l0,0c-0.5,0.2-1,0.4-1.4,0.5l-0.3,0l-0.2-0.1l-0.2-0.1l0,0l-0.2-0.1l0,0
		l-0.1-0.1l0,0l-0.1-0.1l0,0l-0.1-0.1l0,0l0-0.1l0,0v-0.1l0-0.1v0l0,0l0-0.2c0.1-0.3,0.5-0.8,0.6-1c0.2-0.2,0.4-0.7,0.6-1.1
		c0.2-0.4,0.2-1,0.2-1.2c0-0.4-0.3-0.9-0.5-1.1c-0.2-0.3-0.2-0.5-0.1-0.6l0.3-0.2l0.4-0.1h0l0,0c-0.2-0.1-0.5-0.4-0.6-0.7l-0.1-0.2
		c-0.2-0.3-0.8-0.5-1-0.5c-0.3,0-3.1,1.2-4.9,1.2c-1.8,0.1-2.7-0.1-4.5-0.9c-0.1-0.1-0.8,0-0.6,0.4c0.1,0.3,0.3,0.6,0.6,1
		c0.2,0.3-0.3,1-0.5,1.1c-0.2,0.2-0.8,0.7-1.1,0.5c-0.3-0.2-1.3-0.7-2.2-3.2c-0.3-0.7-1.3-1.1-2.1-0.9c-0.3,0.1-0.5,0.1-0.7,0.2
		c0,2,0.1,4,0.1,4.8c0,1,0.3,2.2,0.1,3.2c-0.3,1.5-0.4,2-0.4,2.5c0,0.5,0,1.1,0.1,1.4c0,0.4,0.1,0.6,0.2,1c0.1,0.4,0.5,1,0.5,1.2
		c0.1,0.2,0.2,0.5,0.3,0.7c0.1,0.2,0.1,0.3,0.2,0.5c0.8,0.3,1.7,0.6,2.8,0.6c2.4,0.1,5-2.2,5.5-2.7c0.4-0.5,0.2-1.3,0.1-1.5
		c-0.1-0.2-0.3-0.7-0.4-1l0,0c-0.1-0.2-0.4-0.8,0-1.1c0.3-0.3,0.6-0.6,0.7-0.6c0.1,0,1.9-0.9,4.1,0.2c0.9,0.5,1.3,0.8,1.6,1l1.3,1.2
		c0.2,0.2,2.1,1.9,3,2.4c0.9,0.6,1.6,1.2,1.9,1.8c0.4,0.7,0.6,1.2,0.4,2.3c-0.2,0.9-1,1.7-1,1.7l0,0c0.2,1.7,0.1,2.8,0,3.2
		c-0.1,0.5-0.3,1.6-1.3,2.6c-0.5,0.5-0.6,2-0.6,2.4c0,0.3-0.1,1.8-0.3,2.3c-0.2,0.6-1,2-1.5,0.6c-0.5-1.4-0.5-3.3-0.8-3.7
		c-0.3-0.4-1.3-0.8-1.7-1c-0.4-0.1-0.6,0-1.1,0.2c-2.2,0.9-3.8,2.3-9.7,2.3c-0.9,0-1.5,0.3-2.2,0.6c-0.5,0.2-1,0.6-1.4,1l0.2,0.6
		c0.4,0.3,1.1,0.3,1.8,0.5c0.5,0.1,0.8,0.7,0.9,1l0,0.1h0l0.7-0.1C192.1,206.3,193.2,206.2,193.8,206.1"/>
	<path class="st0" d="M224.1,233.3c-0.8-7.3-1.1-10.5-1.3-11.5l0-0.6c-0.4-2.3-1-4.8-1.7-7.3c-0.2,2.4-0.6,6.1-1.7,10.5
		c-1.1,4.4-2.5,8.3-3.5,9.7c-0.4,0.6-0.8,0.2-0.6-0.4c0.2-0.7,1.2-3.4,2-8.2c1.4-8.6,0.6-11.9,0.2-14.3c-0.4-2.4-1.6-3.3-1.8-3.4
		c-0.2-0.1-0.4-0.2-0.5,0.2c-0.8,2.4-2.2,5.1-5.3,8.7c-2.9,3.3-6.3,5.5-6.6,5.9c-0.4,0.4-0.2,0.6,0.3,0.4c1.9-0.7,4.1-1,5.3-0.8
		c1.3,0.1,1.4,1.2,1.4,1.7c0,0.5,0.2,2.4,0.5,4.2c0.3,2.3-1.4,2.3-2.2,2.4c-0.8,0-2.3,0-2.8,0c-0.5,0.1-0.5,0.3,0,0.7
		c3.7,3.4,5.1,4.9,5.4,5.7l-0.1,0.4h0l0,0c-0.6,0.9-2,1.2-2.6,0.9c-1.7-0.7-2.2-0.9-3.8-2c-0.9-0.7-2.7-2.2-4.2-3.4l-0.1-0.1
		c2.4,4,3.2,8.7,3.2,9.2c0,0.5,0.3,0.6,0.9,0.5l0.4,0c6.8-0.9,15.3-1.7,19.6-2.1l-0.2,0C224.4,238.2,224.3,235.7,224.1,233.3
		 M209,231.4h-0.5v1.2h-0.3v-1.2h-0.5v-0.2h1.3V231.4z M210.9,232.7h-0.3v-1.2l-0.4,1.2H210l-0.4-1.2v1.2h-0.3v-1.5h0.4l0.4,1.1
		l0.4-1.1h0.4V232.7z"/>
	<polyline class="st3" points="207.8,231.4 208.2,231.4 208.2,232.7 208.5,232.7 208.5,231.4 209,231.4 209,231.2 207.8,231.2 
		207.8,231.4 	"/>
	<polyline class="st3" points="210.1,232.2 209.7,231.2 209.3,231.2 209.3,232.7 209.5,232.7 209.5,231.5 210,232.7 210.2,232.7 
		210.6,231.5 210.6,232.7 210.9,232.7 210.9,231.2 210.4,231.2 210.1,232.2 	"/>
	<polyline class="st1" points="266.3,190.5 266.1,190.5 266.1,190.8 266.3,190.8 266.4,190.8 266.5,190.7 266.5,190.5 266.3,190.5 	
		"/>
	<path class="st1" d="M266.8,190.3l-0.5-0.2l-0.5,0.2l-0.2,0.5l0.2,0.5l0.5,0.2l0.5-0.2l0.2-0.5L266.8,190.3 M266.6,191l0,0.1v0.1
		l0,0.1v0h-0.2v0l0,0v-0.1l-0.1-0.2l-0.2,0h-0.1v0.4H266v-0.9h0.3l0.2,0l0.1,0.2l-0.1,0.2l-0.1,0L266.6,191z"/>
	<path class="st1" d="M200,129.4c-1.7,0-4.9,0.2-5,0.2c0.9,0.2,1.6,0.5,1.9,0.5c3.2,1.1,4.8,1.9,6.8,2.9c1.4,0.7,2.6,1.6,3.3,2
		c1,0.7,3.4,2.5,5.7,5.5c4.3,5.7,5.5,11.3,5.8,12.9c0.3,1.2,1,1.7,1.1,1.8c0.1,0.1,0.4,0.1,0.6,0.7c1,2.9,0,7.4-0.6,9
		c-0.5,1.5,0.1,2.2,0.6,2.7c1.4,1.2,2.2,3.4,2.1,6.9c-0.2,3.2-1.6,8.2-2.7,10.9c-1.2,2.9-0.7,4.9-0.6,6.3c0.1,1.4-1.4,2.1-1.6,2.2
		c-0.4,0.2-0.8,0.8-0.8,1.7c0,3.3-0.4,6.2-0.5,6.9c-0.1,0.7,0,1.1,0.1,1.2c0.2,0.1,0.8,0.7,1.1,0.9c0.5,0.4,0.8,0.7,1.4,1.4
		c0.9,1.1,1.3,1.7,2,1.9c2.7,0.9,6.9,2,9.2,3.1c0.6,0.3,0.9,0.9,1.6,1c0.7,0.1,6.2,0.6,12.8,1.2c6.7,0.6,11.6,1.6,13.7,2.1
		c1.9,0.4,3.6,1.1,5.6,2.2c0.7,0.4,1.4,0.8,2.1,1.3c2-6.5,3.2-13.5,3.2-20.6C268.9,160.2,238,129.4,200,129.4 M236.1,202.6
		c-3.3,0-4.7,0.1-6-1.7c-1.4-1.9-1.7-2.1-2.8-4c0,0-0.2,0.7-0.4,1.6c-0.2,0.9-0.5,1.8-0.6,2.2c-0.2,0.8,0.9,1,0.9,1l-0.2,0.9h-6.7
		l0.1-0.5l0.1-0.3l0.2,0c0.4-0.1,1.1-0.3,1.6-2.1c0.1-0.4-0.1,0.3,2-7.3c0.3-1.1-0.6-1.3-0.9-1.4l0-0.2l0.2-0.7l6.4,0l-0.2,0.8
		c0,0-0.9,0.1-1.1,0.9l-1.1,4l0,0.1l5.4-4.1c0.5-0.5-0.1-0.9-0.6-0.9l0-0.2l0.2-0.7l6.7,0l-0.2,0.8c0,0-0.3,0-0.9,0.2
		c-0.2,0.1-0.4,0.2-0.6,0.4l-0.2,0.1l-5.2,4.2c0,0,2.9,4.6,3.3,4.9c0.3,0.4,0.9,1,1.7,1l-0.2,0.9
		C236.7,202.6,236.4,202.6,236.1,202.6z M248.5,198.1c0,0-0.2-0.3-0.7-0.5c-0.3-0.1-0.6-0.2-1-0.2h-2.6c0,0-0.1,0.3-0.2,0.7
		c-0.2,0.9-0.6,2.4-0.7,2.4c-0.3,1,0.8,1.2,0.8,1.2l-0.2,0.9h-0.9l-4.8,0l2.9-10.4c0.4-1.3-0.9-1.4-0.9-1.4l0-0.2l0.2-0.7h11.4
		l-0.8,3.4h-0.4l-0.3-0.5c-0.2-0.2-0.5-0.3-0.9-0.3l-3.8,0l-0.2,0.7l-0.5,1.8h4.4L248.5,198.1z M264.2,193.6h-0.4l-0.3-0.3
		c-0.5-0.5-1.3-0.9-2.7-0.9c-1.7,0-3.1,0.5-4,1.3c-0.9,0.7-1.3,1.8-1.3,2.9c0,2.2,1.9,3.9,4.7,3.9c1,0,2.3-0.3,3.4-0.6l-0.6,2.6
		c-0.3,0-0.6,0.1-0.9,0.2c-1.1,0.2-2.2,0.3-3.5,0.3c-5.3,0-7.6-2.7-7.6-5.5c0-1.9,1-3.8,2.9-5.2c1.8-1.4,4.5-2.3,7.7-2.2
		c1.4,0,2.7,0.3,3.6,0.6L264.2,193.6z M266.3,191.7l-0.6-0.3c-0.2-0.2-0.2-0.4-0.2-0.6l0.2-0.6l0.6-0.2c0.2,0,0.4,0.1,0.6,0.2
		l0.2,0.6c0,0.2-0.1,0.4-0.2,0.6C266.7,191.6,266.5,191.7,266.3,191.7z"/>
	<path class="st0" d="M253.8,192.2c-1.9,1.4-2.9,3.3-2.9,5.2c0,2.8,2.3,5.5,7.6,5.5c1.3,0,2.5-0.1,3.5-0.3c0.3-0.1,0.6-0.1,0.9-0.2
		l0.6-2.6c-1,0.3-2.3,0.6-3.4,0.6c-2.8,0-4.7-1.7-4.7-3.9c0-1.2,0.5-2.2,1.3-2.9c0.9-0.8,2.3-1.3,4-1.3c1.4,0,2.2,0.4,2.7,0.9
		l0.3,0.3h0.4l0.9-3.1c-0.9-0.3-2.2-0.5-3.6-0.6C258.2,189.9,255.6,190.8,253.8,192.2"/>
	<path class="st0" d="M249.3,192.6c0.4,0,0.7,0.1,0.9,0.3l0.3,0.5h0.4l0.8-3.4h-11.4l-0.2,0.7l0,0.2c0,0,1.3,0.1,0.9,1.4l-2.9,10.4
		l4.8,0h0.9l0.2-0.9c0,0-1.1-0.3-0.8-1.2c0-0.1,0.4-1.5,0.7-2.4c0.1-0.4,0.2-0.7,0.2-0.7h2.6c0.4,0,0.7,0.1,1,0.2
		c0.5,0.2,0.7,0.5,0.7,0.5l0.8-3.1h-4.4l0.5-1.8l0.2-0.7L249.3,192.6"/>
	<path class="st0" d="M235.5,200.8c-0.3-0.4-3.3-4.9-3.3-4.9l5.2-4.2l0.2-0.1c0.2-0.2,0.4-0.3,0.6-0.4c0.6-0.3,0.9-0.2,0.9-0.2
		l0.2-0.8l-6.7,0l-0.2,0.7l0,0.2c0.4,0,1.1,0.4,0.6,0.9l-5.4,4.1l0-0.1l1.1-4c0.2-0.8,1.1-0.9,1.1-0.9l0.2-0.8l-6.4,0l-0.2,0.7
		l0,0.2c0.3,0.1,1.2,0.2,0.9,1.4c-2.1,7.7-1.9,6.9-2,7.3c-0.5,1.8-1.2,2.1-1.6,2.1l-0.2,0l-0.1,0.3l-0.1,0.5h6.7l0.2-0.9
		c0,0-1.1-0.2-0.9-1c0.1-0.4,0.4-1.4,0.6-2.2c0.2-0.8,0.4-1.6,0.4-1.6c1.2,1.9,1.4,2.1,2.8,4c1.3,1.8,2.7,1.7,6,1.7
		c0.3,0,0.6,0,0.9,0l0.2-0.9C236.3,201.7,235.8,201.1,235.5,200.8"/>
	<path class="st0" d="M266.9,190.3c-0.2-0.2-0.4-0.2-0.6-0.2l-0.6,0.2l-0.2,0.6c0,0.2,0.1,0.4,0.2,0.6l0.6,0.3
		c0.2,0,0.4-0.1,0.6-0.3c0.2-0.2,0.2-0.4,0.2-0.6L266.9,190.3 M266.8,191.4l-0.5,0.2l-0.5-0.2l-0.2-0.5l0.2-0.5l0.5-0.2l0.5,0.2
		l0.2,0.5L266.8,191.4z"/>
	<path class="st0" d="M266.7,190.6l-0.1-0.2l-0.2,0H266v0.9h0.2v-0.4h0.1l0.2,0l0.1,0.2v0.1l0,0v0h0.2v0l0-0.1v-0.1l0-0.1l-0.2-0.1
		l0.1,0L266.7,190.6 M266.4,190.8l-0.1,0h-0.1v-0.3h0.1l0.2,0l0.1,0.1L266.4,190.8z"/>
</g>
</svg>
