<?xml version="1.0" encoding="utf-8"?>
<!-- Generator: Adobe Illustrator 26.0.1, SVG Export Plug-In . SVG Version: 6.00 Build 0)  -->
<svg version="1.1" id="Layer_1" xmlns="http://www.w3.org/2000/svg" xmlns:xlink="http://www.w3.org/1999/xlink" x="0px" y="0px"
	 viewBox="0 0 500 500" style="enable-background:new 0 0 500 500;" xml:space="preserve">
<style type="text/css">
	.st0{fill-rule:evenodd;clip-rule:evenodd;fill:#E27725;}
</style>
<g>
	<path class="st0" d="M261.3,215.9l-0.1,63.5c-0.7,3.2,5.1,2.7,3.2,6.1c-2.4,2.9-7,1.4-10.7,2c-3.3-0.5-8.3,1.1-9.3-2.8
		c-0.3-2.9,3.3-2.7,2.9-5.4l0.1-31.3c-0.5,2.2-0.4,5.3-2.7,6.3c-1.4,0.2-2.9-0.3-3.8-1.4c-0.9-1.1-0.5-3.6-1.8-3.8
		c-4.3,0.7-6.5,5.4-7.6,8.8c-1.3,7-0.6,15.4-0.6,23c0.6,2,4.2,1.6,2.6,4.3c-0.6,0.8-1.4,1.4-2.3,1.8c0,0-3.1,0.2-8,0.2
		c-5.1,0-7.6-0.3-7.6-0.3c-1-0.3-1.6-1.2-1.8-2.2c-0.7-1.1,0.4-2.1,1.1-2.6c0.7,0,1.6-1.2,1.8-1.9l0.1-31.3
		c-0.2-2.7-4.5-2.2-3.5-4.9c3.8-3.4,9.2-3.4,13.5-6.1c1.1,0.2,2.3-0.1,3.2,0.6c1.5,2,0.2,5.2,1.1,7.6h0.6c2.6-3.2,5.6-8.1,10.5-7.9
		c1.3,0.2,4.6,0,5.4,2.2c0.1-6.5,0.8-15.2-3.3-18.7c0.1-4.5,9.8-3.9,12.9-7.6C258.4,213.7,261.1,213.7,261.3,215.9"/>
	<path class="st0" d="M372.4,214.3l0.4,8.9v54.6c0.7,1.1,2.3,0.4,2.7,1.6c0.6,2.7-1.5,3.6-3.4,4.5c-4.2,1.5-7.9,3.4-12.5,3.6
		c-2-0.5,0.5-2.5-1.4-3.4c-2,2.3-5.1,4.9-8.2,3.6c-6.1-0.5-9.6-5.8-11.1-10.8c-2.3-12.3-1.3-26.1,5.9-35.7c2-2.3,4.7-3.2,7.6-3.6
		c2,0.4,3.8,1.5,5.4,2.6l0.5-0.9l0.2-14.5c-1.3-1.8-5.3-2.6-3.4-5.6c1.2-0.7,2.3-0.2,4.2-0.9c3.7-1.6,7.4-3.3,11.1-5.1
		C371.3,212.9,372,213.6,372.4,214.3 M354.4,246c-0.6-0.9-1.4-0.2-2,0.6c-3.3,8.7-4.7,21.5,1.1,29.5c0.9,0.9,2.2,0.3,2.9-0.7
		c2.7-6.6,2.7-14.5,1.5-21.7C357.1,250.9,356.8,248,354.4,246"/>
	<path class="st0" d="M78.2,214l4,17.9c0.3,1.8-0.7,3.5-2.4,4.2c-1.6,0.7-3.3-0.3-4.5-1.3c-2.7-4.1-3.2-9.6-7.6-12.8
		c-1.2-0.2-2.3,0-2.5,1.3v56.6c0.5,1.6,2.2,3.2,3.8,3.4c1.4-0.2,2.9-2.1,2.9-2.8l0.1-31.3c-0.2-1.8-5.2-2.4-3.8-4.4
		c4.7-2.1,9.6-3.8,14.1-6.1c1.3-0.2,3.3,0,3.6,1.5l0.1,40.4c-0.2,2.2,2.7,1.8,3.2,3.8c0.7-1.6,2.7-2,2.9-3.8l0.1-30.8
		c0-2.6-4.9-2.9-3.4-4.9c4.3-1.9,8.7-3.9,13-5.9c1.5-0.7,3.8-0.7,4.3,1.1c0,1.3-0.2,2.2,0.4,3.3c2,0.9,2-1.8,3.3-2.6
		c2.7-2.7,7.4-2.7,10.7-1.4c2.7,0.3,2.8,4.1,5.4,4c1.2-1.6,2-3.5,4-4.2c3.2-0.3,6.7-0.5,9.2,1.5c5.8,5.8,5.8,14.1,6.6,21.9
		c0.7,6.7,1.3,13,2,19.9c0.3,1,0.9,0.5,1.8,1V282l0.1-55.5c0-3.8-3.6-3.8-3-6.4c3.4-4.1,9.6-3.5,13.6-6.8c1.5,0,2.9,0.5,3.4,1.8
		l0,24.8c1.4,1.5,2.2-0.9,3.8-1.4c3.9-1.2,7.7,0.7,10.1,3.3c4.7,5.1,5.6,11.6,6.7,18.1h0.2c1.1-7.9,2.7-17.7,11.3-20.7
		c3.8-1.5,8.5-1.4,11.9,1.1c5.1,4.4,8.5,12,6.9,18.8c-6.2,2.9-12.1,5.2-17.2,7.5c0.5,3.1,1.4,6.5,4.3,8.4c2,0.9,4.9,2.1,6.7,0.2
		c0.9-1.6,0.4-4.5,2.5-4.7c1.6,0,3.4,0.2,4.1,1.8c2,3.8,0.7,8.1-1.6,11.4c-4,4.3-11.1,4.7-16.7,3.2c-8.6-2.7-10.7-11.9-12.1-19.6
		c-0.4,8-1.9,17.1-10,20c-4.9,1.3-11.4,0.2-13.5-2.9c-0.7-0.9-0.6-2.5-2.2-2.5c-2.7,0-2.4,5-5.9,5.4c-1.6,0.5-2.6-0.9-3.2-1.8
		c-0.3,0.9-0.6,1.1-2.1,1.4c0.2,0-13.8,0.2-15-0.2c-1.3-0.2-1.3-0.9-1.6-1.4c-0.9-2.6,2.3-1.3,2.6-3.4c0.5-10-0.4-19.5-1.6-29
		c-0.4-2.2-1.1-3.8-2.9-4.7c-1.4-0.7-2.9,1.3-3.1,2.2l-0.2,30.2c-0.2,2.9,4.5,2.2,2.4,5.2c-3.9,2-10.6,0.9-15.5,0.9
		c-0.6-0.1-1.2-0.2-1.8-0.4c-0.9-0.2-1.3-2.3-0.5-2.7c2-0.2,2.7-2.2,3.1-3.8c0.2-9.3,0.2-29.5-0.3-30.9c-0.4-1.3-2-1.8-3.2-1.5
		c-1.6,0.6-2.6,0.9-3.1,3.4l0.1,29.9c-0.5,2.3,4,2,2.3,4.7l-1.4,1.1c-5.2,0.7-11.1,0.5-16.5,0.1c-0.9-0.5-2.1-1.2-2.2-2.7
		c-0.3,1.1-0.6,1.8-1.6,2.3c-6.2,0.3-10.7,0.9-17,0.1c-0.3-0.4-1.1-0.5-1.4-1.1c-2.7,2.2-6.9,1.3-10.5,1.4c-4.9,0-8.5,0.7-12.5-0.9
		c-0.8-0.5-0.8-1.6-0.7-2.3c1.8-0.6,2.7-1.7,3.4-3.4l0.2-56.1c-0.2-1.6-1.3-1.4-1.6-2c-1.8-0.2-3.3,1.4-4,2.9
		c-3.3,3.8-2.4,12.7-9.6,11.4c-0.9-0.7-1.9-1.3-2.2-2.4c0.8-7.2,2.4-13.3,3.9-20.1c0.6-0.6,1.1-1.6,2.1-1.4c1.1-0.1,2.1,0.4,2.7,1.4
		c9.8,0.4,21.9,0.4,32.6,0.1C73.8,211.7,77.8,210.9,78.2,214 M198.6,244.5c-1.4-0.9-3.4,0.9-3.8,2c-0.7,4.3-1.1,10.1,1.1,14.3
		c1.8-0.6,3.6-1.3,5.3-2.3c2.2-2.3,2.4-5.2,0.4-9.1L198.6,244.5z M167.8,245.1c-1.3,0-3.3,5.9-4,9.2c-0.7,7.4-1.1,15.7,3,21.7
		c1,1.1,2-0.7,2.5-1.2c4.2-7.2,3.5-17,1.4-25C170.2,248,170,245.1,167.8,245.1"/>
	<path class="st0" d="M332,245c3.6,7.8,4.1,17,4.8,25.9c0.4,3.9-0.9,10.7,3.1,13c0.5,0.5,0.4,1.8-0.2,2.5l-1.4,0.7
		c-5.1,0.3-10.5,0.9-16.1-0.6c-0.7-0.6-0.9-1.5-0.5-2.4c4.6-2.1,2.4-9.4,2.8-13.3c-1.3-7.5-2.2-15.1-5.6-21.7c-0.4-0.7-1.3-1-2-0.8
		l-1.2,1.2l0.3,30.8c0.1,1.4,0.5,3.2,2.3,3.4c0.7,0.9,0.2,2-0.2,2.7c-5,1.5-11,1.3-16.1,0.9c-1-0.3-1.9-1-2.4-2
		c-1.5,1.4-2.9,2-5.2,2.1c-4,0.2-6.2-2-8.7-3.8c-1.7,1.2-3.4,2.3-5.3,3.2c-3.8,2-8.5,0.7-12-1.1c-4.9-2.8-5.6-8-5.7-13.1
		c-0.4-7.4,6.3-12.6,12.3-15.5c1.8-0.7,5.4-0.9,6.2-3.1c0.2-3,0.2-7-2.7-9.2c-1.8,0-3.8-0.8-5.6,0c-1.4,2,1.8,1.6,2.4,3.4
		c0.3,1.8-0.1,3.6-1.1,5.1c-1.8,2.1-5.1,1.6-7.6,1.3c-1.3-0.9-2.3-2.2-2.9-3.6c-0.4-2.7-0.4-5.6,1.3-7.6c4.6-5.5,12.8-4.9,19.3-4.1
		c3.4,0,6.9,2.9,8,6c2.9,10.3,3.1,21.1,3.6,32.2c0.9,3.8,2.9-0.7,3.8,2.9l0.6,3.2c1.8,0,2.2-1.8,2.7-2.9l-0.1-31.3
		c-0.3-2.5-4.6-2.5-3.2-5.2c3.6-2.7,8.3-3.6,12.3-6c1.6-0.3,3.2,0,3.6,1.5c0.6,0.6-0.3,1.8,0.7,2.2c1.7-2,3.1-3.8,5.6-4.2
		C326.6,237.8,330,241,332,245 M281.1,261.1c-2.2,0.5-3.6,2-4.9,4.2c-1.1,4.2-1.7,13,2.1,14.1c1.3,0.6,2.9,0.2,3.8-0.9
		c0.5-5.6,0.4-11.2-0.5-16.7L281.1,261.1z"/>
	<path class="st0" d="M461.7,272.5c-2.7,3.8-5.2,6.7-9.1,9.2c-17.5-0.6-34.2-5.2-51.6-5.9l-1.5-1.6
		C420.1,269.5,441.2,276.7,461.7,272.5"/>
	<path class="st0" d="M440.9,282.6l9.6,0.7c-10.4,7.6-27.9,7.7-39.1,1.4c-3.2-2-6.1-4.3-8.8-6.9C415.9,278.1,428,281.3,440.9,282.6"
		/>
	<path class="st0" d="M428.9,210.9c2.2,3.6,3.8,7.6,6,11.2l1.6-0.2c-0.9-3.6-2.7-7.2-4.2-10.8c5.4-1.8,5,5.2,7.5,7.8
		c2.7-0.5,5.3-2.7,8-3.8c0.8,0,1.3,0.9,1.7,1.3l-7.2,6.1c0,2.2,1.1,4.3,2,6.3l8.2-10.8c0.9,0.1,1.5,1.2,2.2,1.6
		c-1.3,2-2.6,3.4-3.7,5.6l0.6,0.3c3.6,1.1,10.1-2.3,11.2,3.3l-8.1,0.7l-3.6,6.1c5,0.8,8.8-2.6,13.2-4l1.8,3.2
		c-5.4,2.5-11,4.3-16.8,5.4c-0.9,1.3-1.5,2.7-2.3,4c6.7-1.4,13.6-3.2,20.4-5c3.1,10.2,1.2,21.9-3.8,30.4l-2.2,1.3
		c-21.1,4.1-41.8-2.8-62.8,1.3c-7.2-10-9.6-25.4-4.4-36.9l8.3-0.4v-0.7c-0.6-2.9-7.2-5.8-2.6-8.9c3.1,2.4,5.6,6,8.1,8.7
		c1.1,0,2.2,0.2,2.9-0.2l-9.1-10.5c0.6-1.6,2.6-2.5,3.8-3.8l7.6,1.7c0.3-2.2,0.2-4.2,0.2-6.5c1.6-1.1,3.4-1.4,5.1-2.2l4.3,8.7
		l5.7-10.3L428.9,210.9z M428.9,218.3l-3.6,7.9c0.2,2.7,1,5.2,2.2,7.6c4.2-1.1,3.1-6,4.2-9L428.9,218.3z M416.9,218.6
		c0.4,1.5-1.3,5.2,1.8,4.3L416.9,218.6z M406.8,223.4l5.8,6c0.2-1.4,0.2-2.9,0.4-4.3C410.9,224.6,408.9,223.8,406.8,223.4
		 M436.8,226.6l0.3,0.5c0.4-0.3,0.9-0.7,1-1.3C437.6,225.9,437.1,226.2,436.8,226.6 M417.2,227.1v6.7l3-5.8
		C419.3,227.3,418.2,227.3,417.2,227.1 M450.2,229.7c-0.8,0.2-1.6,0.3-2.4,0.4l-3.7,5.8c0.6,0,1.9,0.2,2.5,0.2L450.2,229.7z
		 M434.6,234.4l0.4,7.2c2-3.4,7.6-6.3,5.3-11.2C438.2,231.5,436.3,232.9,434.6,234.4 M424.1,240.5l-1.8-7l-1.5,3.4L424.1,240.5z
		 M430.1,236.5c-2.5-0.4-2.4,4.3-0.2,4.5L430.1,236.5z M408.4,237.4l-3.3,3.9l5.4,2.4l5.8-4.1C415.4,235.8,410.9,238.1,408.4,237.4
		 M395.9,238.1l3.2,1.6c1.8,1.3,2-0.9,3-1.8C400,238.1,397.9,237.7,395.9,238.1 M421.7,244.5l-2.2-2.1c-3.4,1.8-6.3,6.3-10.1,7.6
		h-4.5c0.9-0.9,1.6-2,2.1-3.2c-1.5-0.8-3-1.3-4.7-1.6c-1.1,1.4-2.7,4-3.8,4.8h-2.3c0,4.2,0.2,9.1,2.2,12.7c9,0.2,19.2,1.5,28.6,2.6
		v-14.1l-1.8-2.8c-1.6,1-3.4,1.5-5.2,1.6c-2.6,0.2-5.2,0.2-7.8,0L421.7,244.5z M396.6,242.3l-0.4,4.3c1-1,1.8-2.1,2.2-3.4
		L396.6,242.3z M464.6,245.7c-0.1-0.4-0.3-0.9-0.5-1.3c-0.9,0.4-2.2,0.5-3.6,0.9l2.8,5.5l-4.7-0.2c-0.3-0.6-0.6-1.3-1.1-2.2
		c-0.2-0.4-1.1-2.1-0.9-2.1c-1.4,0.6-4.3,0.9-5.9,1.2c0.3,1.3,0.7,2,1.1,3.1H448c-0.5-0.7-1-1.5-1.5-2.3c-4.4,1.2-8.5,2.5-12.9,3.7
		c0.2,4.9,0.4,10.3,1.4,14.5c8,1.4,16.1,2.1,24.3,2.1C463.7,262,466.2,253.9,464.6,245.7 M443.8,240.9c-0.8-0.1-1.6-0.1-2.3,0
		l-3.1,5.1c1-0.1,2-0.4,2.9-0.7L443.8,240.9z"/>
</g>
</svg>
