<?xml version="1.0" encoding="utf-8"?>
<!-- Generator: Adobe Illustrator 26.0.1, SVG Export Plug-In . SVG Version: 6.00 Build 0)  -->
<svg version="1.1" id="Layer_1" xmlns="http://www.w3.org/2000/svg" xmlns:xlink="http://www.w3.org/1999/xlink" x="0px" y="0px"
	 viewBox="0 0 400 400" style="enable-background:new 0 0 400 400;" xml:space="preserve">
<style type="text/css">
	.st0{fill-rule:evenodd;clip-rule:evenodd;fill:#FFFFFF;}
	.st1{fill-rule:evenodd;clip-rule:evenodd;fill:#67CEF6;}
	.st2{fill-rule:evenodd;clip-rule:evenodd;fill:#F58220;}
</style>
<g>
	<circle class="st0" cx="200" cy="200" r="70.9"/>
	<path class="st1" d="M200.9,140.9c32.8,0.5,59,27.4,58.5,60.1c-0.5,32.7-27.5,58.7-60.3,58.2c-32.8-0.5-59-27.4-58.5-60.1
		C141.1,166.4,168.1,140.4,200.9,140.9 M201.1,129.1c39.3,0.6,70.7,32.8,70.1,72c-0.6,39.1-33,70.4-72.3,69.8
		c-39.3-0.6-70.7-32.8-70.1-72C129.4,159.8,161.8,128.5,201.1,129.1z"/>
	<path class="st2" d="M160.2,190.7c0.1-7.6,0.2-15.3,0.4-22.8c1.3,0,2.7,0,4,0.1c-0.1,7.6-0.2,15.2-0.4,22.9
		C162.4,190.6,162.4,190.2,160.2,190.7 M167.3,233.3c0.1-7.6,0.2-15.4,0.4-23c1.3,0,2.7,0,4,0.1c-0.1,7.6-0.2,15.4-0.4,23
		C169.6,233.2,169.5,232.8,167.3,233.3z M229.2,235.7c0.1-4.9,0.2-9.8,0.2-14.6c1.3,0,2.7,0,4.1,0c-0.1,4.9-0.2,9.8-0.2,14.7
		C231.8,235.7,230.5,235.7,229.2,235.7z M206.6,241.4c-0.1-0.7-0.2-1.2-0.3-1.9c0-0.3,0-0.3,0.1-0.5c3.5-10.4,7.9-18.2,9.4-25.5
		c-0.9,0-2,0-2.9,0c-0.1,1,0.2,1.9,0.5,3c0.1,0.4,0,0.6-0.4,0.7c-2,0.3-3.9,0.2-5.9,0.3c-0.4-3.3-0.3-6.7,0.2-10
		c4.9,0.2,10,0.5,15,0.7c0.1,1.1,0.2,1.4,0.3,1.7c0.1,0.3,0.1,0.4,0,0.7c-7,19.7-7,19.7-9.3,25.6c2.1,0,3.3-1.9,3.1-3.6
		c1.8,0,3.6-0.1,5.4,0c0.5,2.9,0,6.4-0.1,9.5c-4.9,0.4-9.7,0.3-14.6-0.2C206.7,241.7,206.6,241.7,206.6,241.4z M225.2,172.4l0-2.1
		c0,0,0.1,0,0.1,0l0-0.4c0-0.4,0.4-0.8,0.8-0.8l2.3,0c0.4,0,0.8,0.4,0.8,0.8l0,0.4l0,0c0,0.6,0,1.4-0.1,2.1L225.2,172.4z
		 M225.3,199.1c-6.2-1.1-6.2-11.3-6.3-17.1c0.1-5.2-0.4-9.9,2.3-14.4c2-3.1,4.8-3.8,8.5-2.8c4.2,1.3,6,6.4,5,11.5
		c-0.1,0.6-0.1,1.1-0.2,1.7c-3,0-6.1,0.3-9.2-0.2c-0.2,5-0.4,10-0.5,14.9c0.9,0.5,2.6,0.5,3.6,0.5c0.5-1.5,0.5-3.4,0.5-4
		c1.3-0.1,4.3-0.6,5.4,0.2c0,0.5,0.3,1.3,0.5,1.8C234.9,197,228.9,199.8,225.3,199.1z M190,192.8c0.1-7.6,0.2-15.3,0.4-22.9
		c1.2,0,2.7,0,4,0.1c-0.1,7.6-0.2,15.2-0.4,22.9C192.7,192.8,191.2,192.8,190,192.8z M185.3,194.9c-0.6-1.7-1.1-3.6-1.2-5.5
		c-0.1-4.8,0-9.2,0.2-13.8c0.1-2.1,0.3-4.2,1-6.2c1.5-4,4.9-6.5,8.9-5.1c1.9,0.8,4,2.4,5.4,4.4c0.6,0.8,0.6,1.4,0.5,2.3
		c-0.1,7.2-0.1,13.4-0.2,20.7c0,3.8-5,6.8-7.7,7.1C189.1,198.7,187.1,198.1,185.3,194.9z M171.9,198.6c0.2-10.1,0.3-20,0.5-30
		c1.5-2.3,5-4.7,7.8-4.2l2.8,0.5l-0.1,5.4c-1.6,0-3.3-0.1-4.9-0.1c-0.2,9.4-0.4,18.9-0.5,28.4C175.9,198.6,173.4,199.1,171.9,198.6z
		 M207.1,191.4c0.1-7.6,0.2-15.2,0.4-22.8c1.2,0,2.7,0,4,0.1c-0.1,7.6-0.2,15.2-0.4,22.8C209.8,191.5,208.3,191.4,207.1,191.4z
		 M201.4,204.9c0.2-14.1,0.4-28.2,0.6-42.3c3.3,0,6.1,0,9.5,0.1c5.1,0.1,6.1,4.8,6.1,8.3c-0.1,3.9-0.1,6.9-0.2,10.8
		c-0.2,5.3,0.4,15.3-6.1,16.2c-1.3,0-2.8-0.2-4-0.5c-0.4,2.4-0.3,5-0.4,7.5C205.2,205.3,202.9,205.4,201.4,204.9z M178.6,203.4
		l0-3.6c1.1-1,2.2-2,3.6-2.1c2.1-0.1,3.2,0.6,7.2,2.3c0,1.2,0,2.4-0.1,3.6C186.1,205.7,182.5,206.2,178.6,203.4z M180.9,240.9
		c0.2-11.3,0.3-22.6,0.6-33.8c1.7,0,3.3,0.1,5,0.1c-0.2,11.2-0.3,22.5-0.4,33.8C184.3,241,182.6,241,180.9,240.9z M189.5,241.2
		c-0.1-0.7-0.2-1.2-0.3-1.9c0-0.3,0-0.3,0.1-0.5c3.5-10.4,7.9-18.2,9.4-25.5c-0.9,0-2,0-2.9,0c-0.1,1,0.2,1.9,0.5,3
		c0.1,0.4,0,0.6-0.4,0.7c-2,0.3-3.9,0.2-5.9,0.3c-0.4-3.3-0.3-6.7,0.2-10c4.9,0.2,10,0.5,15,0.7c0.1,1.1,0.2,1.4,0.3,1.7
		c0.1,0.3,0.1,0.4,0,0.7c-7,19.7-7,19.7-9.3,25.6c2.1,0,3.3-1.9,3.1-3.6c1.8,0,3.6-0.1,5.4,0c0.5,2.9,0,6.4-0.1,9.5
		c-4.9,0.4-9.7,0.3-14.6-0.2C189.6,241.5,189.5,241.4,189.5,241.2z M200.9,144.5c17.3,0.3,32.6,8.3,42.6,20.8
		c-2.9-0.1-6,1.9-7.5,4.2l-0.5,30c1.8,0.6,3.8,0.1,5.7,0.1l0.4-28.5l4.9,0.1l0-1.7c6,9,9.4,19.8,9.2,31.4c-0.2,15.3-6.7,29.1-17,39
		l0.9-25.6c0.5-6.3-4.4-7.4-9.1-7.5c-1.9,0-3.1,0.1-4.9,0.5l-0.1,5.6l8,0.2l-0.5,3.4c-5.7-2.1-8,1.6-8.9,4.5
		c-0.7,2.2-0.7,8.1-0.8,12.6c-0.1,5,2.5,7.8,6.2,7.9l7.3,0.1c-10,8.8-23.3,14-37.7,13.8c-12-0.2-23.1-4.1-32.1-10.7
		c0.1-2.1,0.2-4,0.6-5.5c7.1,2.2,9.2-2.9,9.7-10.9l0.3-15.8c0-4.3-1.3-8-6-8.1l-9.3-0.1l-0.6,36.1c-11-10.3-17.8-25-17.5-41.3
		c0.2-12,4.2-23.1,10.9-32.1l-0.6,37.2c1.9,0.4,3.3,0,5.3,0.2c0.1-2.5,0.1-5.9,0.6-7.7c7.2,2.4,9.3-3,9.8-11l0.3-15.8
		c0-4.3-1.4-7.9-6.1-8l-5-0.1C169.9,151,184.6,144.3,200.9,144.5z"/>
</g>
</svg>
