<?xml version="1.0" encoding="utf-8"?>
<!-- Generator: Adobe Illustrator 26.0.1, SVG Export Plug-In . SVG Version: 6.00 Build 0)  -->
<svg version="1.1" id="Layer_1" xmlns="http://www.w3.org/2000/svg" xmlns:xlink="http://www.w3.org/1999/xlink" x="0px" y="0px"
	 viewBox="0 0 400 400" style="enable-background:new 0 0 400 400;" xml:space="preserve">
<style type="text/css">
	.st0{fill:#F79F19;}
	.st1{fill:#01538A;}
	.st2{fill:#B20637;}
	.st3{fill:#FFFFFF;}
</style>
<g>
	<path class="st0" d="M236.3,148.9c0.3-0.8-0.3-1.6-0.3-1.6s-5.3-9-24-11c-10-1.1-23.7,1-33.2,6.1c-17.3,9.3-19.9,24.7-19.9,24.7
		c-0.1,0.4-0.3,1.5,0.1,2c0.4,0.5,1,0.5,1.7,0.2c6.1-2.1,24.3-8.1,35.8-11.2c16.4-4.3,29.8-7,38.4-8.4
		C235.6,149.6,236.1,149.4,236.3,148.9"/>
	<path class="st1" d="M255,221.3c-9.8,22-28.6,37.3-53.2,37.7c-17.9,0.3-33.8-5.9-45.2-16.6l-6.9,3l0-10.7
		c-7.5-10.2-11.9-23-11.9-37.6c0-37.4,28.6-66.9,68.6-66.9c6.5,0,12.4,1,16.9,2c-6.8-2.2-13.6-3.4-21.2-3.4
		c-42.9,0-71.7,34.8-71.7,70.6c0,39.1,30.6,71.8,70.9,71.8c38.4,0,59.1-27.1,65.8-43.4L255,221.3z"/>
	<path class="st2" d="M245.1,213.6c5.6-0.6,9.5-2.9,11.7-5c2-1.9,2.4-4.6,2.4-6.5c0.1-2.9,0-12,0-12l-14.9,3.2c0,0,0,1.1,0,3.5
		c0,2.3,1.1,3.6,3.6,3.1c0.8-0.1,1.9-0.5,1.9-0.5l0,2.8c0-0.1,0.2,1.6-3.5,2.3c-4.9,0.8-7.2-2.3-7.2-7.6c0.1-5.7,3.3-9,7.3-9.9
		c4.4-1,6.9,0,8.4,0.3c4.9,0.7,6.3-6.7,1.8-8.4c-3.3-1.3-7.6-1.6-11.7-0.8c-5.5,1.1-16.3,5.7-16.3,20.6
		C228.5,210.6,237.2,214.5,245.1,213.6 M196.6,226.3c0,0,4.6-1.6,5-1.7c3.7-1.3,5-3.5,5-7.2c0-4.1-0.1-12.1-0.1-12.1l10.6,12.3
		c1.7,1.8,3.9,1.9,5.9,1.4c2.1-0.6,3.8-2.5,3.8-5.1c0-8.9,0-30.5,0-30.5s-2.8,0.6-5,1.2c-2.6,0.7-4.6,2.4-4.6,6.8
		c0,1.6,0,10.5,0,10.5s-6-7.5-9.9-11.4c-2.1-2.1-5.6-0.8-5.6-0.8l-5.1,1.5L196.6,226.3 M193.4,191.9c0,0-3.2,0.9-5.8,1.9
		c-3.4,1.2-5.3,3.2-5.3,8.3c0,4.7,0,29.2,0,29.2s3-1,5.7-2.1c3.9-1.5,5.4-3.5,5.4-7.6C193.4,218.1,193.4,191.9,193.4,191.9
		 M177.5,198.9c-2.9-1.3-5.5,0.2-6.5,1.8l-9,15.4l0-12.4l-10.7,4.4l0,35.1l7.5-3.1c0,0,1.5-0.4,2.4-1.8c0.8-1.3,0.8-3.4,0.8-3.4
		l0-11.1l8.4,8.9c1.8,1.9,5.2,2.9,8.2,0.5c2.7-2.2,2.3-5.9,0.8-7.6l-7.6-7.7c0,0,6.7-10.6,7.8-12.4
		C180.9,203,180.1,200.1,177.5,198.9"/>
	<path class="st0" d="M173.3,240.1c-0.4,0.9,0.5,1.8,0.5,1.8c3.9,4.9,21.1,11,39.8,6.5c28.6-6.9,34.6-27.1,35.3-30
		c0.1-0.6,0.3-1.5-0.3-2.1c-0.5-0.5-1.1-0.5-2-0.3c-19.8,4.7-52.8,14.7-71.9,22.9C173.9,239.4,173.5,239.5,173.3,240.1"/>
	<g>
		<path class="st2" d="M156.3,194.2c0-1.9-1.5-3-4.1-1.7l0,6.2c0,0,0.8-0.4,1.5-0.7C155.2,197.3,156.4,196.1,156.3,194.2
			 M152.2,188.5c0.5-0.2,0.8-0.3,1.2-0.5c1.4-0.7,2.4-2,2.4-3.6c0-1.9-1.5-2.4-3.6-1.3L152.2,188.5z M163.2,193.3
			c0.1,4.9-3.4,7.5-8,9.4l-9.4,4l0-25.5c0,0,5.9-2.4,7.9-3.1c5.5-2,8.7,0.4,8.7,4.1c0,2.5-1.1,4.5-3.3,6.4
			C161.2,188.9,163.1,190.7,163.2,193.3L163.2,193.3z M181.1,171.7c0-2.2-1.5-2.7-3.3-2.2c-1.4,0.4-3.1,1.1-3.1,1.1l0,15.9
			c0,1.6-0.3,3.6-2.2,4.1c-1.5,0.4-2.2-0.6-2.2-2.2l0-13c0-2.2-1.5-2.8-3.3-2.2c-2,0.7-3.2,1.2-3.2,1.2s0,11.2,0,15.7
			c0,5.3,3.6,7.9,9.1,6.3c4.9-1.4,8.1-4.2,8.2-11.2L181.1,171.7z M233.4,178.3c1.4-0.3,2.3-1.3,2.3-3c0-1.5,0-2.7,0-2.7l-7.6,1.7
			l0-4.5c0,0,3.7-0.8,4.8-1c1.3-0.3,2-1,2-2.5c0-1.4,0-2.6,0-2.6l-6.8,1.4v-3.6c0,0,3.5-0.7,5.4-1.1c1.5-0.3,2-1.3,2-2.7
			c0-0.9,0-2.7,0-2.7c-3.4,0.6-9.8,1.9-13.8,2.8l-0.1,23.3C221.6,181,229.2,179.2,233.4,178.3 M189.3,177.3c0,0,3.8-2,3.7-5
			c0-2.6-2.5-2.1-3.7-1.6L189.3,177.3 M189.3,180.9c0,0,0,4.5,0,6.3c0,1.7-1.2,2.9-2.6,3.5c-1.2,0.4-3.8,1.3-3.8,1.3l0-24
			c0,0,5.3-1.9,8.5-2.6c4.9-1.1,8.4,1.1,8.3,5c0,3.8-2.1,6-4,7.6l4.1,4c1.3,1.2,1.4,3.5-0.1,4.8c-0.8,0.8-3.1,1.6-4.9-0.2
			L189.3,180.9z M243.4,164.5c0,0,3.7-1.4,3.7-4.4c0-2.5-2.5-2.1-3.7-1.8L243.4,164.5 M237.1,177.6l0-23c0,0,6.7-1.2,8.4-1.4
			c4.8-0.6,8,2.1,8,5.8c0,3.3-2.1,5.3-3.9,6.5c0,0,3.3,3.7,4.1,4.7c1.2,1.3,1.1,3.6-0.6,4.7c-1.7,1.1-3.4,0.5-4.4-0.6l-5.4-6.3
			c0,0,0,3.9,0,5.6c0,1.7-1,2.9-2.8,3.3L237.1,177.6z"/>
		<path class="st2" d="M220.1,167.9l-9.5,2.2c0,0,0,1,0,2.6c0,1.2,0.9,2,2.1,1.8c0.8-0.2,1.4-0.3,1.4-0.3l0,2.6c0,1-1.6,1.7-3.2,1.7
			c-2.3-0.1-3.5-1.8-3.6-5.2c0.1-4.4,2.2-7,5-7.8c1.4-0.4,2.7-0.2,3.7-0.1c2.5,0.4,3.9-0.8,3.9-2.8c0.1-2.2-1.9-3.5-6-3.4
			c-9,0.3-13.5,6.7-13.5,14.4c0,7.9,5.1,11.3,11.4,10.2c3.5-0.7,5.3-1.9,6.5-2.9c1.2-1.1,1.7-2.7,1.7-4L220.1,167.9z"/>
	</g>
	<path class="st3" d="M182.6,142.2c-10.5,4.6-17.6,15.7-18,20.3c-0.2,1.9,2.3,2.1,2.5,0.2C169.4,154.2,176.2,146.1,182.6,142.2
		 M217.4,150.1c5.7-1.4,8.8-1.6,8.8-4.1c0.1-4.2-12-9.1-23.1-8.3c11.3,0.8,18,5.1,18.1,8.1C221.3,147.8,219.6,149.4,217.4,150.1
		 M220.9,243.7c8.5-3.3,16.7-9.7,21.2-19.3c1.3-2.8-2.5-4.2-3.5-0.9C235.9,230.3,230.5,238.3,220.9,243.7"/>
	<path class="st2" d="M263.5,216.4h1c0.5,0,1.2,0.1,1.2,0.7c0,0.7-0.5,0.8-1.1,0.8h-1V216.4 M262.3,221.3h1.1v-2.5h0.7l1.4,2.5h1.2
		l-1.5-2.5c0.9-0.1,1.5-0.5,1.5-1.5c0-1.3-0.8-1.7-2.3-1.7h-2.2L262.3,221.3L262.3,221.3z M259.1,218.4c0,3.1,2.5,5.2,5.3,5.2
		c2.8,0,5.3-2,5.3-5.2c0-3.1-2.5-5.2-5.3-5.2C261.6,213.2,259.1,215.2,259.1,218.4z M260.5,218.4c0-2.3,1.7-4,3.9-4
		c2.1,0,3.9,1.7,3.9,4c0,2.4-1.8,4.1-3.9,4.1C262.2,222.4,260.5,220.7,260.5,218.4L260.5,218.4z"/>
</g>
</svg>
