<?xml version="1.0" encoding="utf-8"?>
<!-- Generator: Adobe Illustrator 26.0.1, SVG Export Plug-In . SVG Version: 6.00 Build 0)  -->
<svg version="1.1" id="Layer_1" xmlns="http://www.w3.org/2000/svg" xmlns:xlink="http://www.w3.org/1999/xlink" x="0px" y="0px"
	 viewBox="0 0 11.3 11.3" style="enable-background:new 0 0 11.3 11.3;" xml:space="preserve">
<style type="text/css">
	.st0{fill:#FFFFFF;}
	.st1{font-family:'Poppins-Regular';}
	.st2{font-size:3.8708px;}
	.st3{font-size:1.8758px;}
</style>
<g>
	<g>
		<text transform="matrix(1 0 0 1 1.8442 6.3543)" class="st0 st1 st2">360</text>
	</g>
	<g>
		<text transform="matrix(1 0 0 1 2.9938 8.7188)" class="st0 st1 st3">VIEW</text>
	</g>
	<path class="st0" d="M9.4,1.8C9.1,2,9.1,2.4,9.4,2.7c0.3,0.3,0.7,0.3,0.9,0c0.3-0.3,0.3-0.7,0-0.9C10.1,1.5,9.6,1.5,9.4,1.8z
		 M10.2,2.6c-0.2,0.2-0.5,0.2-0.7,0c-0.2-0.2-0.2-0.5,0-0.7c0.2-0.2,0.5-0.2,0.7,0C10.4,2.1,10.4,2.4,10.2,2.6z"/>
	<path class="st0" d="M9.3,9.7l-1,0L8.6,10c-2,1.4-4.8,1.2-6.6-0.6c-1.9-1.9-2-4.9-0.4-7L1.3,2.1c-1.8,2.2-1.7,5.5,0.4,7.6
		c2,2,5,2.2,7.2,0.6l0.4,0.4L9.3,9.7z"/>
	<g>
		<path class="st0" d="M2.2,1.2L1.9,0.9l0,1l1,0L2.5,1.5c1.8-1.4,4.4-1.4,6.3-0.1c0-0.1,0.1-0.1,0.1-0.2C9,1.2,9,1.2,9.1,1.1
			C7-0.4,4.2-0.4,2.2,1.2z"/>
		<path class="st0" d="M9.8,8.9l0.3,0.3c1.4-1.7,1.6-4.1,0.7-6c-0.1,0.1-0.2,0.2-0.4,0.2C11.2,5.2,11,7.4,9.8,8.9z"/>
	</g>
</g>
</svg>
