<?xml version="1.0" encoding="utf-8"?>
<!-- Generator: Adobe Illustrator 26.0.1, SVG Export Plug-In . SVG Version: 6.00 Build 0)  -->
<svg version="1.1" id="Layer_1" xmlns="http://www.w3.org/2000/svg" xmlns:xlink="http://www.w3.org/1999/xlink" x="0px" y="0px"
	 viewBox="0 0 400 95" style="enable-background:new 0 0 400 95;" xml:space="preserve">
<style type="text/css">
	.st0{fill:#111111;}
	.st1{fill:none;stroke:#000000;stroke-width:0.3424;stroke-miterlimit:10;}
</style>
<g>
	<polygon class="st0" points="132.1,15 131.9,30.3 139.8,30.6 139.7,52.7 161.9,52.9 162,15 	"/>
	<path class="st1" d="M32.2,11.5L32,20.2h17.5v8.2h7.6L57,52H15.5V11.4h99.2V8.2h67.6v3h73.2l0.2,28.1l1.3-0.1l0,8.5h7.9v11.1h-81.1
		l-13.7-6.5H166V15.7h3.3v-4l13-0.5 M27.9,52.3l-0.1-27H15.5 M45.1,53.4 M44.6,20.1v32.4 M15.7,75.9l-0.1,6.6l32.8,0.1v3l66.9-0.2
		l0.3-15.9l-0.2-0.9l-91.1-0.2v1l-8.7,0.1l0,1.5l-0.1,3.9L2.5,74.3l0.1-30.9l12.8,0.2 M60.3,15.3L60.2,50l4.9,9.3l63.8,0.2l11.1-6.8
		l21.9,0.2l-0.1-37.7L60.3,15.1 M70.7,59.2l0.1-40l-10.1,0.1 M81.7,59l0.1-43.8 M107.2,59.5l0.1-44.2 M123.5,59.2l-0.3-44
		 M265.1,85.3l0-5.5h3.3v-9H265v-1.4l-91.7,0.2l0.1,16.1l91.7-0.2V84v-0.6l25.5-0.3l-0.1,3.5l100,0.2l0.2-4.2l8.5-0.4l0.1-42.9
		l-143.3-0.1 M303.7,39.2v4.7l-8.2-0.1l-0.1,4.4h-5.4v13.3h72.2V39.3 M307,49.1l-6,0l-0.1,12.4l6.2,0.1l0.1-22.4 M320.6,61.6
		l0.1-22.4 M332.1,61.6l0.1-22.4 M216.4,11.3v47.4 M255.6,30.4h-9.5v28.2 M299.1,71.4l-0.2,11.2h-8.3l-6-11.2h80.9V42.7h19v4.7h14.2
		 M307.5,71.4v15.1 M324,71.5v15.1 M332,71.4v15.3 M340.2,71.4v15.3 M357.8,71.4v15.2 M340.5,82.6h8.7l0.1-11.2 M247.6,85.4V69.5
		 M238.9,69.5v15.8 M227.6,69.3v16.3 M219.9,69.4v16.1 M204.8,69.4v16.3 M194.2,69.5v16.2 M15.5,69.4l0.1,13.1 M24.2,69.5v12.7
		 M32.4,82.4v-14 M40.2,68.6v13.8 M48.6,68.4v14.2 M57.1,81.9l8.1,0.1V68.5l-8.5,0.1l0.2,13.8l-4,0.1v2.7 M73.3,80.6h8.3l0.2-11.9
		h-8.8v16.7 M90.6,68.8v16.4 M100.8,68.8v16.7 M108,68.9v16.6 M114.9,85.3h0.2l58,0.1L173,69.2l-57.5,0.2 M123.6,85.4v-3h4.9v-13
		 M131.9,85.3v-3.2h8.2V69.3 M144.5,85.3v-2.8h8.4V69.2 M0.9,61.8l4-4H0.8l4.1,4.1C4.9,61.9,0.9,61.7,0.9,61.8z"/>
</g>
</svg>
