<?xml version="1.0" encoding="utf-8"?>
<!-- Generator: Adobe Illustrator 26.0.1, SVG Export Plug-In . SVG Version: 6.00 Build 0)  -->
<svg version="1.1" id="Layer_1" xmlns="http://www.w3.org/2000/svg" xmlns:xlink="http://www.w3.org/1999/xlink" x="0px" y="0px"
	 viewBox="0 0 1270 315" style="enable-background:new 0 0 1270 315;" xml:space="preserve">
<style type="text/css">
	.st0{fill:#111111;}
	.st1{fill:none;stroke:#000000;stroke-width:1.0562;stroke-miterlimit:10;}
</style>
<g>
	<polygon class="st0" points="425.5,57.3 425,104.5 449.3,105.3 448.9,173.5 517.5,174 517.8,57.1 	"/>
	<path class="st1" d="M117.3,46.5L117,73.2h54v25.2h23.3l-0.4,72.9h-128V46.2h306v-9.8h208.6v9.1h225.8l0.7,86.8l4-0.3l0,26.2h24.4
		v34.3H585.3L543,172.4h-12.8V59.3h10.2V46.9l40.1-1.5 M104.2,172.4l-0.4-83.2H65.9 M157.1,175.6 M155.6,73v99.9 M66.5,244.9
		l-0.4,20.4l101,0.4v9.1l206.3-0.5l0.9-49.1l-0.5-2.9l-281-0.7v3.1l-26.8,0.4l-0.2,4.6l-0.4,12L26,240.2l0.4-95.4l39.6,0.5
		 M204,58.2l-0.2,107.1l15.1,28.6l196.8,0.5l34.3-21l67.5,0.5l-0.4-116.2l-312.9-0.4 M236.2,193.7l0.2-123.5l-31.2,0.2 M270,193
		l0.2-135 M348.8,194.4L349,58 M399.1,193.7l-0.9-135.9 M835.7,273.9l0.1-16.9h10.1v-27.6h-10.4v-4.4l-282.9,0.5l0.2,49.8l282.9-0.5
		v-4.9V268l78.5-0.8l-0.3,10.9l308.3,0.5l0.5-12.9l26.3-1.1l0.3-132.4l-442.1-0.4 M954.9,131.9v14.5l-25.2-0.3l-0.3,13.5h-16.7v41
		h222.7v-68.5 M964.9,162.3l-18.5,0.1l-0.3,38.3l19,0.3l0.4-69.2 M1007,201l0.4-69.2 M1042.5,201l0.4-69.2 M685.6,45.8v146.3
		 M806.5,104.9h-29.4v87 M940.6,231.3l-0.7,34.7h-25.5l-18.4-34.5h249.7v-88.8h58.5V157h43.8 M966.6,231.1v46.7 M1017.3,231.6v46.5
		 M1042.1,231.3v47.1 M1067.3,231.3v47.2 M1121.7,231.3v46.9 M1068.2,265.7h26.8l0.4-34.7 M781.9,274.3v-49.1 M755.1,225.4v48.9
		 M720.1,224.9V275 M696.4,225.1v49.6 M649.9,225.1v50.2 M617,225.3v50 M65.9,225.1l0.2,40.3 M92.9,225.4v39 M118.1,265.2v-43
		 M142.1,222.7v42.7 M168,222v43.8 M194.1,263.7l25,0.4v-41.8l-26.1,0.2l0.7,42.5l-12.4,0.4v8.4 M244.3,259.5h25.5l0.7-36.8h-27
		v51.4 M297.7,223.2v50.7 M329.1,223.1v51.6 M351.3,223.4v51.1 M372.7,273.9h0.7l178.9,0.4l-0.5-49.8l-177.4,0.7 M399.3,274.5v-9.3
		h15.1v-40.1 M425,274.1v-9.8h25.2v-39.6 M463.8,274.1v-8.8h25.9v-41 M21,201.5l12.4-12.3H20.6l12.7,12.7
		C33.2,201.9,20.8,201.3,21,201.5z"/>
</g>
</svg>
