<?xml version="1.0" encoding="utf-8"?>
<!-- Generator: Adobe Illustrator 26.0.1, SVG Export Plug-In . SVG Version: 6.00 Build 0)  -->
<svg version="1.1" id="Layer_1" xmlns="http://www.w3.org/2000/svg" xmlns:xlink="http://www.w3.org/1999/xlink" x="0px" y="0px"
	 viewBox="0 0 1230.6 243.4" style="enable-background:new 0 0 1230.6 243.4;" xml:space="preserve">
<style type="text/css">
	.st0{fill:#111111;}
	.st1{fill:none;stroke:#000000;stroke-width:1.0562;stroke-miterlimit:10;}
</style>
<g>
	<polygon class="st0" points="406.2,21.5 405.7,68.7 429.9,69.5 429.6,137.7 498.1,138.2 498.5,21.3 	"/>
	<path class="st1" d="M98,10.7l-0.4,26.6h54v25.2H175l-0.4,72.9h-128V10.4h306V0.5h208.6v9.1H787l0.7,86.8l4-0.3l0,26.2h24.4v34.3
		H566l-42.3-20.1h-12.8V23.5h10.2V11.1l40.1-1.5 M84.9,136.6l-0.4-83.2H46.6 M137.8,139.9 M136.3,37.2v99.9 M47.1,209.2l-0.4,20.4
		l101,0.4v9.1l206.3-0.5l0.9-49.1l-0.5-2.9l-281-0.7v3.1l-26.8,0.4l-0.2,4.6l-0.4,12l-39.4-1.5L7,109l39.6,0.5 M184.6,22.4
		l-0.2,107.1l15.1,28.6l196.8,0.5l34.3-21l67.5,0.5L497.8,22l-312.9-0.4 M216.9,157.9l0.2-123.5l-31.2,0.2 M250.7,157.2l0.2-135
		 M329.5,158.6l0.2-136.4 M379.8,157.9L378.9,22 M816.4,238.2l0.1-16.9h10.1v-27.6h-10.4v-4.4l-282.9,0.5l0.2,49.8l282.9-0.5v-4.9
		v-1.9l78.5-0.8l-0.3,10.9l308.3,0.5l0.5-12.9l26.3-1.1l0.3-132.4L788,96.1 M935.6,96.1v14.5l-25.2-0.3l-0.3,13.5h-16.7v41h222.7
		V96.4 M945.6,126.5l-18.5,0.1l-0.3,38.3l19,0.3l0.4-69.2 M987.7,165.2l0.4-69.2 M1023.1,165.2l0.4-69.2 M666.3,10v146.3
		 M787.2,69.1h-29.4v87 M921.2,195.5l-0.7,34.7H895l-18.4-34.5h249.7v-88.8h58.5v14.4h43.8 M947.3,195.3V242 M998,195.8v46.5
		 M1022.8,195.5v47.1 M1048,195.5v47.2 M1102.3,195.5v46.9 M1048.9,230h26.8l0.4-34.7 M762.6,238.5v-49.1 M735.8,189.6v48.9
		 M700.8,189.1v50.2 M677.1,189.3v49.6 M630.5,189.3v50.2 M597.7,189.5v50 M46.6,189.3l0.2,40.3 M73.6,189.6v39 M98.8,229.4v-43
		 M122.8,186.9v42.7 M148.7,186.2V230 M174.8,227.9l25,0.4v-41.8l-26.1,0.2l0.7,42.5l-12.4,0.4v8.4 M225,223.8h25.5l0.7-36.8h-27
		v51.4 M278.4,187.5v50.7 M309.8,187.3v51.6 M332,187.6v51.1 M353.3,238.2h0.7l178.9,0.4l-0.5-49.8L355,189.5 M380,238.7v-9.3h15.1
		v-40.1 M405.7,238.3v-9.8h25.2v-39.6 M444.5,238.3v-8.8h25.9v-41 M1.7,165.8l12.4-12.3H1.3l12.7,12.7
		C13.9,166.1,1.5,165.6,1.7,165.8z"/>
</g>
</svg>
