<?xml version="1.0" encoding="utf-8"?>
<!-- Generator: Adobe Illustrator 26.0.1, SVG Export Plug-In . SVG Version: 6.00 Build 0)  -->
<svg version="1.1" id="Layer_1" xmlns="http://www.w3.org/2000/svg" xmlns:xlink="http://www.w3.org/1999/xlink" x="0px" y="0px"
	 viewBox="0 0 122.9 65.8" style="enable-background:new 0 0 122.9 65.8;" xml:space="preserve">
<style type="text/css">
	.st0{fill:#FFFFFF;}
	.st1{fill-rule:evenodd;clip-rule:evenodd;fill:#FFFFFF;}
</style>
<g>
	<path class="st0" d="M24.9,35.8c1.3,0.8,4.3,2.1,7.5,2.1c5.9,0,7.7-3.8,7.7-6.6c-0.1-4.8-4.3-6.8-8.8-6.8h-2.6v-3.5h2.6
		c3.3,0,7.6-1.7,7.6-5.8c0-2.7-1.7-5.1-6-5.1c-2.7,0-5.3,1.2-6.8,2.2l-1.2-3.3c1.8-1.3,5.2-2.6,8.9-2.6c6.7,0,9.7,4,9.7,8.1
		c0,3.5-2.1,6.5-6.3,8v0.1c4.2,0.8,7.6,4,7.6,8.7c0,5.4-4.2,10.2-12.4,10.2c-3.8,0-7.2-1.2-8.8-2.3L24.9,35.8z"/>
	<path class="st0" d="M70,10.3c-0.9-0.1-2.1,0-3.5,0.2c-7.2,1.2-11,6.5-11.8,12.1h0.2c1.6-2.1,4.4-3.9,8.2-3.9c6,0,10.2,4.3,10.2,11
		c0,6.2-4.2,12-11.3,12c-7.3,0-12-5.6-12-14.5c0-6.7,2.4-12,5.8-15.3c2.8-2.8,6.6-4.5,10.9-5C68,6.6,69.2,6.6,70,6.6V10.3z
		 M68.7,29.9c0-4.9-2.8-7.8-7-7.8c-2.8,0-5.3,1.7-6.6,4.2c-0.3,0.5-0.5,1.2-0.5,2c0.1,5.6,2.7,9.7,7.5,9.7
		C66,38.1,68.7,34.8,68.7,29.9z"/>
	<path class="st0" d="M100,23.7c0,11.6-4.3,17.9-11.8,17.9c-6.6,0-11.1-6.2-11.2-17.5c0-11.4,4.9-17.7,11.8-17.7
		C95.9,6.5,100,12.9,100,23.7z M81.6,24.2c0,8.8,2.7,13.9,6.9,13.9c4.7,0,7-5.5,7-14.2c0-8.4-2.1-13.9-6.9-13.9
		C84.5,10.1,81.6,15,81.6,24.2z"/>
</g>
<g>
	<path class="st0" d="M107.4,8.6c0,2.1-1.5,3.1-2.9,3.1c-1.6,0-2.8-1.2-2.8-3c0-1.9,1.3-3.1,2.9-3.1C106.3,5.6,107.4,6.8,107.4,8.6z
		 M102.8,8.7c0,1.3,0.7,2.2,1.8,2.2c1,0,1.8-0.9,1.8-2.3c0-1-0.5-2.2-1.7-2.2C103.4,6.4,102.8,7.6,102.8,8.7z"/>
</g>
<path class="st1" d="M110.2,27.4c-0.1,0.4-0.2,0.8-0.4,1.2c6.3,2.6,10,5.7,10,9c0,7-16.3,13-39.1,15.2v4c7.3-0.5,14.1-2.2,20.1-3.6
	C129,46.4,128,34.3,110.2,27.4z"/>
<polygon class="st1" points="64.4,63.4 71.6,56.1 64.4,48.9 "/>
<path class="st1" d="M64.5,53.8c-6.7,0.9-58.4-4.1-61.2-16.1c-0.7-3.1,3.4-6.2,9.1-8.6c-0.1-0.4-0.3-0.7-0.4-1.1
	c-38.4,14.5,25.4,31.9,52.5,30.9V53.8z"/>
</svg>
