<?xml version="1.0" encoding="utf-8"?>
<!-- Generator: Adobe Illustrator 26.0.1, SVG Export Plug-In . SVG Version: 6.00 Build 0)  -->
<svg version="1.1" id="Layer_1" xmlns="http://www.w3.org/2000/svg" xmlns:xlink="http://www.w3.org/1999/xlink" x="0px" y="0px"
	 viewBox="0 0 4 4" style="enable-background:new 0 0 4 4;" xml:space="preserve">
<style type="text/css">
	.st0{font-family:'Poppins-Regular';}
	.st1{font-size:1.3337px;}
	.st2{font-size:0.6463px;}
</style>
<g>
	<g>
		<text transform="matrix(1 0 0 1 0.6828 2.2375)" class="st0 st1">360</text>
	</g>
	<g>
		<text transform="matrix(1 0 0 1 1.0793 3.0525)" class="st0 st2">VIEW</text>
	</g>
	<path d="M3.3,0.7C3.2,0.7,3.2,0.9,3.3,1s0.2,0.1,0.3,0s0.1-0.2,0-0.3C3.5,0.6,3.4,0.6,3.3,0.7z M3.6,0.9C3.5,1,3.4,1,3.3,0.9
		c-0.1-0.1-0.1-0.2,0-0.2s0.2-0.1,0.2,0C3.6,0.8,3.6,0.9,3.6,0.9z"/>
	<path d="M3.2,3.4H2.9L3,3.5C2.3,4,1.3,3.9,0.7,3.3C0.1,2.6,0,1.6,0.6,0.9L0.5,0.8c-0.6,0.8-0.6,1.9,0.1,2.6
		c0.7,0.7,1.7,0.8,2.5,0.2l0.1,0.1V3.4z"/>
	<g>
		<path d="M0.8,0.5L0.7,0.3v0.3H1L0.9,0.6c0.6-0.5,1.5-0.5,2.2,0c0,0,0,0,0-0.1c0,0,0,0,0.1,0C2.5-0.1,1.5-0.1,0.8,0.5z"/>
		<path d="M3.4,3.1l0.1,0.1C4,2.6,4.1,1.8,3.8,1.2c0,0-0.1,0.1-0.1,0.1C3.9,1.9,3.8,2.6,3.4,3.1z"/>
	</g>
</g>
</svg>
