<?xml version="1.0" encoding="utf-8"?>
<!-- Generator: Adobe Illustrator 26.0.1, SVG Export Plug-In . SVG Version: 6.00 Build 0)  -->
<svg version="1.1" id="Layer_1" xmlns="http://www.w3.org/2000/svg" xmlns:xlink="http://www.w3.org/1999/xlink" x="0px" y="0px"
	 viewBox="0 0 4.4 4.4" style="enable-background:new 0 0 4.4 4.4;" xml:space="preserve">
<g>
	<g>
		<g>
			<path d="M0.9,1.4C0.9,1.4,1,1.4,1.1,1.4c0.1,0,0.1,0,0.2,0c0,0,0.1,0.1,0.1,0.1c0,0,0,0.1,0,0.1c0,0.1,0,0.1-0.1,0.2
				c0,0-0.1,0.1-0.1,0.1v0c0.1,0,0.1,0,0.2,0.1c0,0,0.1,0.1,0.1,0.2c0,0.1,0,0.1,0,0.2c0,0-0.1,0.1-0.1,0.1c-0.1,0-0.1,0-0.2,0
				c-0.1,0-0.2,0-0.3-0.1C0.8,2.3,0.7,2.2,0.7,2.1h0.1c0,0.1,0,0.1,0.1,0.1c0,0,0.1,0.1,0.2,0.1c0.1,0,0.1,0,0.2-0.1
				c0,0,0.1-0.1,0.1-0.1c0-0.1,0-0.1-0.1-0.2c0,0-0.1,0-0.2,0h0V1.8h0c0.1,0,0.2,0,0.2,0c0,0,0.1-0.1,0.1-0.1c0-0.1,0-0.1-0.1-0.1
				c0,0-0.1,0-0.1,0C1,1.5,1,1.5,0.9,1.4c0.1,0.1,0,0.2,0,0.2H0.8C0.8,1.6,0.8,1.5,0.9,1.4z"/>
			<path d="M2.2,1.5C2.1,1.5,2,1.5,2,1.6c0,0.1-0.1,0.2-0.1,0.3C1.9,1.9,2,1.8,2,1.8c0.1,0,0.1,0,0.2,0c0.1,0,0.2,0,0.2,0.1
				C2.5,1.9,2.6,2,2.6,2.1c0,0.1,0,0.1,0,0.2c0,0.1-0.1,0.1-0.1,0.1s-0.1,0-0.2,0C2.1,2.5,2,2.4,2,2.4c-0.1,0-0.1-0.1-0.1-0.2
				c0-0.1,0-0.2,0-0.3c0-0.4,0.1-0.5,0.4-0.5c0.1,0,0.2,0,0.2,0.1c0.1,0.1,0.1,0.1,0.1,0.2H2.4C2.4,1.5,2.3,1.5,2.2,1.5z M2.1,1.9
				C2,1.9,2,1.9,2.1,1.9C1.9,2,1.9,2,1.9,2.1c0,0.1,0,0.1,0.1,0.2c0,0,0.1,0.1,0.2,0.1c0.1,0,0.1,0,0.2-0.1c0,0,0.1-0.1,0.1-0.2
				c0-0.1,0-0.1-0.1-0.2c0,0-0.1-0.1-0.2-0.1C2.1,1.9,2.1,1.9,2.1,1.9z"/>
			<path d="M3,1.5C3,1.4,3.1,1.4,3.3,1.4c0.1,0,0.2,0,0.3,0.1c0.1,0.1,0.1,0.2,0.1,0.4c0,0.2,0,0.3-0.1,0.4C3.5,2.4,3.4,2.5,3.3,2.5
				C3.1,2.5,3,2.4,3,2.3C2.9,2.2,2.9,2.1,2.9,1.9C2.9,1.7,2.9,1.6,3,1.5z M3.5,1.7c0-0.1,0-0.1-0.1-0.1c0,0-0.1-0.1-0.2-0.1
				c-0.1,0-0.1,0-0.2,0.1c0,0-0.1,0.1-0.1,0.1c0,0.1,0,0.1,0,0.2C3,2,3,2.1,3,2.1c0,0.1,0,0.1,0.1,0.1c0,0,0.1,0.1,0.2,0.1
				c0.1,0,0.1,0,0.2-0.1c0,0,0.1-0.1,0.1-0.1c0-0.1,0-0.1,0-0.2C3.5,1.8,3.5,1.7,3.5,1.7z"/>
		</g>
	</g>
	<g>
		<g>
			<path d="M1.7,2.9L1.5,3.4H1.4L1.2,2.9h0.1l0.2,0.4L1.7,2.9L1.7,2.9z"/>
			<path d="M1.9,2.9v0.5H1.8L1.9,2.9L1.9,2.9z"/>
			<path d="M2.1,2.9v0.2h0.2v0.1H2.1v0.2h0.2v0.1H2.1L2.1,2.9l0.2-0.1v0.1H2.1z"/>
			<path d="M3.2,2.9L3,3.4H2.9L2.8,3L2.7,3.4l-0.1,0L2.5,2.9h0.1l0.1,0.4l0.1-0.4h0.1L3,3.3L3.2,2.9L3.2,2.9z"/>
		</g>
	</g>
	<path d="M3.6,0.7C3.5,0.8,3.5,0.9,3.6,1C3.7,1.1,3.9,1.1,4,1c0.1-0.1,0.1-0.3,0-0.4C3.9,0.6,3.7,0.6,3.6,0.7z M3.9,1
		C3.9,1.1,3.7,1.1,3.7,1c-0.1-0.1-0.1-0.2,0-0.3c0.1-0.1,0.2-0.1,0.3,0C4,0.8,4,0.9,3.9,1z"/>
	<path d="M3.6,3.8l-0.4,0l0.1,0.1C2.5,4.4,1.5,4.3,0.8,3.6C0,2.9,0,1.7,0.6,0.9L0.5,0.8c-0.7,0.9-0.7,2.1,0.1,2.9
		C1.4,4.5,2.6,4.6,3.4,4l0.1,0.1L3.6,3.8z"/>
	<g>
		<path d="M0.8,0.5L0.7,0.3l0,0.4l0.4,0L1,0.6C1.7,0,2.7,0,3.4,0.6c0,0,0,0,0.1-0.1c0,0,0,0,0.1-0.1C2.7-0.2,1.6-0.1,0.8,0.5z"/>
		<path d="M3.8,3.4l0.1,0.1C4.4,2.9,4.5,2,4.2,1.2c0,0-0.1,0.1-0.1,0.1C4.3,2,4.3,2.8,3.8,3.4z"/>
	</g>
</g>
</svg>
