<?xml version="1.0" encoding="utf-8"?>
<!-- Generator: Adobe Illustrator 26.0.1, SVG Export Plug-In . SVG Version: 6.00 Build 0)  -->
<svg version="1.1" id="Layer_1" xmlns="http://www.w3.org/2000/svg" xmlns:xlink="http://www.w3.org/1999/xlink" x="0px" y="0px"
	 viewBox="0 0 10 10" style="enable-background:new 0 0 10 10;" xml:space="preserve">
<style type="text/css">
	.st0{font-family:'Poppins-Regular';}
	.st1{font-size:3.1824px;}
	.st2{font-size:1.5422px;}
</style>
<g>
	<text transform="matrix(1 0 0 1 1.83 5.5816)" class="st0 st1">360</text>
</g>
<g>
	<text transform="matrix(1 0 0 1 2.7753 7.526)" class="st0 st2">VIEW</text>
</g>
<path d="M8,1.8C7.8,2,7.8,2.3,8,2.6c0.2,0.2,0.5,0.2,0.8,0C9,2.3,9,2,8.8,1.8C8.6,1.6,8.2,1.6,8,1.8z M8.7,2.5
	c-0.2,0.2-0.4,0.2-0.5,0C8,2.3,8,2.1,8.2,1.9c0.2-0.2,0.4-0.2,0.5,0C8.8,2.1,8.8,2.3,8.7,2.5z"/>
<path d="M7.9,8.4H7.1l0.2,0.2c-1.7,1.1-4,1-5.4-0.5C0.4,6.5,0.3,4,1.6,2.3L1.3,2.1C-0.1,3.9,0,6.6,1.7,8.3c1.6,1.6,4.1,1.8,6,0.5
	l0.3,0.3V8.4z"/>
<g>
	<path d="M2.1,1.3L1.8,1.1v0.8h0.8L2.4,1.6C3.9,0.4,6,0.4,7.5,1.5c0-0.1,0.1-0.1,0.1-0.1c0.1-0.1,0.1-0.1,0.1-0.1
		C6.1,0,3.8,0.1,2.1,1.3z"/>
	<path d="M8.3,7.7l0.2,0.2c1.2-1.4,1.4-3.4,0.6-5C9.1,3.1,9,3.2,8.9,3.2C9.6,4.7,9.4,6.4,8.3,7.7z"/>
</g>
</svg>
