<?xml version="1.0" encoding="utf-8"?>
<!-- Generator: Adobe Illustrator 26.0.1, SVG Export Plug-In . SVG Version: 6.00 Build 0)  -->
<svg version="1.1" id="Layer_1" xmlns="http://www.w3.org/2000/svg" xmlns:xlink="http://www.w3.org/1999/xlink" x="0px" y="0px"
	 viewBox="0 0 149.6 257.4" style="enable-background:new 0 0 149.6 257.4;" xml:space="preserve">
<style type="text/css">
	.st0{fill-rule:evenodd;clip-rule:evenodd;fill:#171719;}
	.st1{fill:#171719;}
</style>
<g>
	<path id="Path_658_00000158728112973342584160000010403314255478985100_" class="st0" d="M35.7,0c14.3,0,26,11.6,26,26
		s-11.6,26-26,26s-26-11.6-26-26C9.8,11.6,21.4,0,35.7,0z"/>
	<g id="Group_902_00000113346628281588696580000004914534508042691725_" transform="translate(434.737 96.149)">
		<path id="Path_641_00000164499451757661409160000015173004897060160943_" class="st1" d="M-340.9,18.9c-2.4,0-3.7,1.4-3.7,4.2
			v43.2c0,2.8,1.2,4.2,3.7,4.2c2.4,0,3.6-1.4,3.6-4.2V23.1C-337.3,20.3-338.5,18.9-340.9,18.9z"/>
		<path id="Path_642_00000014595372428012784950000001252368717374962864_" class="st1" d="M-406.5,42.9v23.5c0,2.8,1.3,4.2,3.7,4.2
			c2.4,0,3.7-1.4,3.7-4.2V38C-404.1,38.9-406.5,40.5-406.5,42.9z"/>
		<path id="Path_643_00000143578877442247026200000017417356814785277328_" class="st1" d="M-296.9-24.8c0.3,1.1,0.4,2.3,0.4,3.4
			c0,8-6.5,14.5-14.4,14.5c0,0,0,0,0,0l0,0c-8,0-14.5-6.5-14.5-14.5c0-0.3,0-0.6,0-0.9C-359-15-387.7,3.8-434.7-11.9v96.3l0,0
			c0,11.8,9.6,21.3,21.4,21.4h106.9c11.8,0,21.3-9.6,21.4-21.4V-23.3C-289-24-292.9-24.5-296.9-24.8z M-386.5,79.5h-12.7V77
			c-1,2.3-4,3.4-8.9,3.4c-7.4,0-11-3.3-11-9.8v-25c0-2.7,0.9-5.4,2.5-7.6c3.2-3.3,6.9-6,11-8c3.9-1.8,6.1-3.3,6.4-4.5V14.8
			c0-2.8-1.2-4.2-3.7-4.2c-2.4,0-3.7,1.4-3.7,4.2v11.9h-12.6V14.8c-0.2-3.2,0.9-6.3,3-8.8c9.2,2,18.7,2.7,28.2,2
			c1.1,2.1,1.6,4.4,1.5,6.7L-386.5,79.5z M-365.4,79.5h-12.7V6.8c4.3-0.7,8.5-1.6,12.7-2.6V79.5z M-324.6,66.4c0.6,4-0.8,8.1-3.6,11
			c-2.6,1.8-5.8,2.8-9,2.7c-2.7,0-5.3-0.9-7.4-2.7v2.2h-12.7V2.1c4.2-1.2,8.4-2.5,12.7-3.7v14c3.1-1.8,6.6-2.6,10.2-2.4
			c2.5,0,4.9,0.8,6.8,2.3c2,1.6,3,5.1,3,10.8L-324.6,66.4z M-303.7,79.5h-12.5V1.6h12.5V79.5z"/>
	</g>
	<path id="Path_659_00000173877506644797222380000012134075115448750245_" class="st1" d="M149.6,21.8v33.3
		C80.9,50.6,65.1,103.5,0,73.1V49.9C64.4,84.7,81.7,17.6,149.6,21.8z"/>
	<path id="Path_660_00000080191815244145207650000010785656753041901463_" class="st0" d="M123.8,63.9c6,0,10.9,4.9,10.9,10.9
		c0,6-4.9,10.9-10.9,10.9c-6,0-10.9-4.9-10.9-10.9c0,0,0,0,0,0C112.9,68.8,117.8,63.9,123.8,63.9z"/>
</g>
<g>
	<path class="st1" d="M39.7,232.5c-0.4,0.1-0.4,0.4-0.5,0.6c-3.1,7.1-6.4,14.2-9.7,21.2c-0.9,2-3.4,3.3-5.3,2.9
		c-1.7-0.3-2.9-1.6-3.3-3.3c-0.9-4.8-1.8-9.6-2.7-14.4c-0.4-2.4-0.9-4.9-1.3-7.3c-0.4,0.1-0.5,0.4-0.5,0.6c-1.5,6.3-3.3,12.5-5,18.7
		c-0.2,0.7-0.4,1.4-0.6,2.1c-0.7,2.4-2.4,3.6-4.9,3.6c-1.1,0-2.3,0-3.4-0.1c-1.9-0.2-2.8-1.4-2.2-3.3c1.4-4.8,2.9-9.6,4.4-14.4
		c1.9-6.3,3.9-12.5,5.8-18.8c0.8-2.7,2.8-4.3,5.4-4.1c1.4,0.1,2.8,0,4.3,0c2.3,0,3.7,1.1,4.1,3.4c0.6,3.3,1.1,6.6,1.7,10
		c0.4,2.5,0.9,4.9,1.1,7.5c0,0.2,0,0.6,0.3,0.6c0.3,0,0.3-0.3,0.4-0.5c2.3-5.4,4.7-10.9,7-16.3c0.9-2,2-3.8,4.3-4.4
		c0.7-0.2,1.3-0.1,2-0.1c1.4,0,2.8,0,4.2,0c2.1,0,3.4,1.1,3.6,3.2c0.3,3.5,0.2,7.1,0.3,10.6c0.2,7.6,0.4,15.3,0.5,22.9
		c0,1.2-0.2,2.3-1.2,3c-0.3,0.3-0.7,0.5-1.1,0.6c-1.6,0.3-3.3,0.3-4.9,0.1c-1.5-0.2-2.6-1.5-2.7-3c-0.1-1.1,0-2.1,0-3.2
		c0-5.9,0-11.7,0-17.6C39.8,233.1,39.7,232.8,39.7,232.5z"/>
	<path class="st1" d="M108.3,257.3c-2.8,0-5.6,0.1-8.4,0c-2.4-0.1-3.3-1.4-2.9-3.8c0.8-5.2,1.6-10.4,2.4-15.5
		c0.9-5.8,1.8-11.6,2.8-17.4c0.4-2.5,1.9-3.8,4.5-3.7c1.2,0,2.5,0,3.7,0c1.9,0,3.1,1.5,2.8,3.3c-1.3,8-2.5,16-3.8,23.9
		c-0.3,2,0.9,3.4,2.9,3.4c2,0,4.1,0,6.1,0c2.3,0,3.4,1.1,3.3,3.4c-0.1,1.2-0.3,2.3-0.6,3.5c-0.5,2-2,2.9-4.3,3
		C113.9,257.3,111.1,257.3,108.3,257.3C108.3,257.3,108.3,257.3,108.3,257.3z"/>
	<path class="st1" d="M136.4,257.3c-2.7,0-5.4,0-8.1,0c-2.8,0-3.8-1.4-3.4-4.1c0.9-5.6,1.8-11.2,2.7-16.8c0.8-5.1,1.6-10.3,2.4-15.4
		c0.4-2.8,2.3-4.4,4.8-4.2c1.1,0.1,2.3,0,3.4,0c2,0,3.2,1.3,2.9,3.2c-0.5,3.4-1,6.8-1.6,10.2c-0.7,4.7-1.5,9.3-2.2,14
		c-0.3,1.9,1,3.3,2.9,3.3c2,0,3.9,0,5.9,0c2.8,0,3.8,1.3,3.4,4c-0.1,0.7-0.2,1.4-0.3,2.1c-0.4,2.3-1.9,3.7-4.3,3.7
		C142.1,257.4,139.2,257.3,136.4,257.3z"/>
	<path class="st1" d="M93.3,254c-1.4-6.4-2.7-12.8-4.1-19.3c-1-4.7-2-9.4-3-14.1c-0.5-2.5-2.4-4.1-4.9-4c-1.7,0.1-3.4,0.1-5.1,0
		c-3.2-0.2-5.2,1.3-6.6,4.1c-3.1,6.3-6.2,12.5-9.3,18.7c-2.4,4.9-4.9,9.7-7.3,14.6c-0.9,1.8-0.2,3,1.8,3.1c1.6,0.1,3.1,0.1,4.7,0.1
		c1.1,0,2.2-0.3,3.2-0.9c1.4-0.8,2.1-2.1,2.8-3.4c1.2-2.2,3-3.3,5.5-3.3c1,0,2.1,0,3.1,0c0.9,0,1.9,0,2.8,0c3.4,0,4.6,0.9,5.4,4.2
		c0.4,1.6,1.4,2.8,3,3.2c2,0.5,4,0.4,6,0.1C92.8,257,93.6,255.6,93.3,254z M75.7,240.7c-0.6,0-1.2-0.1-1.8-0.1
		c-1.3-0.1-1.7-0.7-1.6-2c0.1-0.9,0.5-1.8,0.9-2.6c0.9-2,1.7-4,2.7-6c0.1-0.2,0.2-0.4,0.3-0.7c0.2-0.3,0.5-0.6,0.8-0.6
		c0.4,0,0.6,0.4,0.7,0.7c0.5,1.6,0.6,3.2,0.9,4.8c0.2,0.8,0.3,1.6,0.4,2.4C79.5,239.7,78.7,240.7,75.7,240.7z"/>
</g>
</svg>
