<?xml version="1.0" encoding="utf-8"?>
<!-- Generator: Adobe Illustrator 26.0.1, SVG Export Plug-In . SVG Version: 6.00 Build 0)  -->
<svg version="1.1" id="Layer_1" xmlns="http://www.w3.org/2000/svg" xmlns:xlink="http://www.w3.org/1999/xlink" x="0px" y="0px"
	 viewBox="0 0 64.5 64.2" style="enable-background:new 0 0 64.5 64.2;" xml:space="preserve">
<path d="M64.5,54.7L60,50.2V15H46.8l-5.5-6.6H27.4l-4.2,5l-3.2-3.2l5.3-6.3h18.1l5.5,6.6H60c1.2,0,2.2,0.5,3.1,1.4
	c0.9,0.9,1.4,2,1.4,3.1V54.7z M46.8,37.1L31.6,21.8c2.2-0.4,4.3-0.3,6.4,0.3c2.1,0.5,3.9,1.6,5.5,3.1c1.6,1.6,2.6,3.4,3.2,5.5
	S47.3,34.9,46.8,37.1z M13.7,10.4l4.5,4.5H8.6v38.8h41.9L0,3.2L3.2,0l61,61L61,64.2l-6-6H8.6c-1.2,0-2.3-0.5-3.2-1.4s-1.4-2-1.4-3.2
	V15c0-1.2,0.5-2.3,1.4-3.2c0.9-0.9,2-1.4,3.2-1.4H13.7z M25.4,25.3l3.2,3.2c-0.9,0.8-1.5,1.7-1.9,2.7s-0.6,2.1-0.6,3.2
	c0,2.3,0.8,4.2,2.4,5.8c1.6,1.6,3.6,2.4,5.8,2.4c1.1,0,2.2-0.2,3.2-0.7c1-0.5,1.9-1.1,2.7-1.9l3.2,3.2c-1.2,1.3-2.6,2.2-4.2,2.9
	c-1.6,0.7-3.2,1-4.9,1c-3.5,0-6.5-1.2-9-3.7c-2.5-2.5-3.7-5.5-3.7-9c0-1.7,0.3-3.4,1-4.9C23.2,27.9,24.1,26.5,25.4,25.3z"/>
</svg>
