<?xml version="1.0" encoding="utf-8"?>
<!-- Generator: Adobe Illustrator 26.0.1, SVG Export Plug-In . SVG Version: 6.00 Build 0)  -->
<svg version="1.1" id="Layer_1" xmlns="http://www.w3.org/2000/svg" xmlns:xlink="http://www.w3.org/1999/xlink" x="0px" y="0px"
	 viewBox="0 0 6.8 6.8" style="enable-background:new 0 0 6.8 6.8;" xml:space="preserve">
<style type="text/css">
	.st0{fill:#171719;stroke:#171719;stroke-width:0.2145;stroke-miterlimit:10;}
</style>
<g>
	<path class="st0" d="M0.9,5C2,6.1,3.8,6.1,5,5c1.1-1.1,1.1-2.9,0-4c-1.1-1.1-2.9-1.1-4,0C-0.2,2-0.2,3.8,0.9,5z M1.1,4.8
		c-1-1-1-2.6,0-3.6s2.6-1,3.6,0s1,2.6,0,3.6S2.1,5.8,1.1,4.8z"/>
	<path class="st0" d="M6.3,6.6L4.8,5.1C4.7,5,4.7,4.9,4.8,4.8l0,0c0.1-0.1,0.2-0.1,0.3,0l1.5,1.5c0.1,0.1,0.1,0.2,0,0.3l0,0
		C6.6,6.7,6.4,6.7,6.3,6.6z"/>
</g>
</svg>
