<?xml version="1.0" encoding="utf-8"?>
<!-- Generator: Adobe Illustrator 26.0.1, SVG Export Plug-In . SVG Version: 6.00 Build 0)  -->
<svg version="1.1" id="Layer_1" xmlns="http://www.w3.org/2000/svg" xmlns:xlink="http://www.w3.org/1999/xlink" x="0px" y="0px"
	 viewBox="0 0 38.3 41.4" style="enable-background:new 0 0 38.3 41.4;" xml:space="preserve">
<style type="text/css">
	.st0{fill:#A8A8A8;}
</style>
<g>
	<path class="st0" d="M35.8,37.4V0H2.6v37.4H0v4h38.3v-4H35.8z M12.9,20.7H7.6v-5.3h5.3V20.7z M12.9,12H7.6V6.7h5.3V12z M16.6,6.7
		h5.3V12h-5.3V6.7z M16.6,15.4h5.3v5.3h-5.3V15.4z M18.5,37.4H15v-9.9h3.5V37.4z M23.5,37.4H20v-9.9h3.5V37.4z M30.8,20.7h-5.3v-5.3
		h5.3V20.7z M30.8,12h-5.3V6.7h5.3V12z"/>
</g>
</svg>
