<?xml version="1.0" encoding="utf-8"?>
<!-- Generator: Adobe Illustrator 26.0.1, SVG Export Plug-In . SVG Version: 6.00 Build 0)  -->
<svg version="1.1" id="Layer_1" xmlns="http://www.w3.org/2000/svg" xmlns:xlink="http://www.w3.org/1999/xlink" x="0px" y="0px"
	 viewBox="0 0 48 41.4" style="enable-background:new 0 0 48 41.4;" xml:space="preserve">
<style type="text/css">
	.st0{fill:#A8A8A8;}
</style>
<g>
	<rect y="18.3" class="st0" width="48" height="4.3"/>
	<rect x="6.2" y="24.4" class="st0" width="35.7" height="17"/>
	<polygon class="st0" points="19.9,15.6 19.9,5.6 4.1,5.6 4.1,15.6 10.1,15.6 10.1,17.1 8.9,17.1 8.9,18.4 10.1,18.4 10.1,18.5 
		13.9,18.5 13.9,18.4 15.1,18.4 15.1,17.1 13.9,17.1 13.9,15.6 	"/>
	<path class="st0" d="M40.8,18.3H24.5v-2.6c0-2.9,2.4-5.3,5.3-5.3h5.7c2.9,0,5.3,2.4,5.3,5.3V18.3z"/>
	<path class="st0" d="M32.6,8.4L32.6,8.4c-2.3,0-4.2-1.9-4.2-4.2l0,0c0-2.3,1.9-4.2,4.2-4.2l0,0c2.3,0,4.2,1.9,4.2,4.2l0,0
		C36.8,6.5,35,8.4,32.6,8.4z"/>
</g>
</svg>
