<?xml version="1.0" encoding="utf-8"?>
<!-- Generator: Adobe Illustrator 26.0.1, SVG Export Plug-In . SVG Version: 6.00 Build 0)  -->
<svg version="1.1" id="Layer_1" xmlns="http://www.w3.org/2000/svg" xmlns:xlink="http://www.w3.org/1999/xlink" x="0px" y="0px"
	 viewBox="0 0 35 35" style="enable-background:new 0 0 35 35;" xml:space="preserve">
<style type="text/css">
	.st0{fill:#F7F7F7;}
</style>
<path class="st0" d="M23.6,7.2H11.4c-2.3,0-4.2,1.9-4.2,4.2v12.2c0,2.3,1.9,4.2,4.2,4.2h12.2c2.3,0,4.2-1.9,4.2-4.2V11.4
	C27.8,9.1,25.9,7.2,23.6,7.2z M13.4,25h-3.1V15h3.1V25z M11.8,13.6c-1,0-1.8-0.8-1.8-1.8c0,0,0,0,0,0c0-1,0.8-1.8,1.8-1.8
	c0,0,0,0,0,0c1,0,1.8,0.8,1.8,1.8C13.6,12.8,12.8,13.6,11.8,13.6z M25,25h-3.1v-4.9c0-1.2,0-2.6-1.6-2.6c-1.6,0-1.9,1.3-1.9,2.6V25
	h-3.1l0-10h3v1.4h0c0.6-1,1.7-1.7,2.9-1.6c3.1,0,3.7,2.1,3.7,4.8V25z"/>
</svg>
