<?xml version="1.0" encoding="utf-8"?>
<!-- Generator: Adobe Illustrator 26.0.1, SVG Export Plug-In . SVG Version: 6.00 Build 0)  -->
<svg version="1.1" id="Layer_1" xmlns="http://www.w3.org/2000/svg" xmlns:xlink="http://www.w3.org/1999/xlink" x="0px" y="0px"
	 viewBox="0 0 35 35" style="enable-background:new 0 0 35 35;" xml:space="preserve">
<style type="text/css">
	.st0{fill:#F7F7F7;}
	.st1{fill:#FFFFFF;stroke:#F7F7F7;stroke-miterlimit:10;}
</style>
<g>
	<g id="Component_7_17_00000154411802298950860070000006147361954700009398_" transform="translate(1576.14 71.24)">
		<path id="Path_14_00000134248367864411575340000006638193693710922126_" class="st0" d="M-1558.6-58.6c-2.7,0-4.9,2.2-4.9,4.9
			c0,2.7,2.2,4.9,4.9,4.9c2.7,0,4.9-2.2,4.9-4.9C-1553.7-56.4-1555.9-58.6-1558.6-58.6 M-1558.6-50.6c-1.7,0-3.1-1.4-3.1-3.1
			c0-1.7,1.4-3.1,3.1-3.1c1.7,0,3.1,1.4,3.1,3.1c0,0,0,0,0,0C-1555.4-52-1556.8-50.6-1558.6-50.6"/>
		<path id="Path_15_00000091734772239679452840000007105086431187185290_" class="st0" d="M-1554.7-43.9h-7.9
			c-3.3,0-5.9-2.7-5.9-5.9v-7.9c0-3.3,2.7-5.9,5.9-5.9h7.9c3.3,0,5.9,2.7,5.9,5.9v7.9C-1548.8-46.5-1551.4-43.9-1554.7-43.9
			 M-1562.6-61.8c-2.3,0-4.1,1.8-4.1,4.1v7.9c0,2.3,1.8,4.1,4.1,4.1h7.9c2.3,0,4.1-1.8,4.1-4.1v-7.9c0-2.3-1.8-4.1-4.1-4.1
			L-1562.6-61.8z"/>
	</g>
	<circle class="st1" cx="22.3" cy="12.1" r="1.1"/>
</g>
</svg>
