<?xml version="1.0" encoding="utf-8"?>
<!-- Generator: Adobe Illustrator 26.0.1, SVG Export Plug-In . SVG Version: 6.00 Build 0)  -->
<svg version="1.1" id="Layer_1" xmlns="http://www.w3.org/2000/svg" xmlns:xlink="http://www.w3.org/1999/xlink" x="0px" y="0px"
	 viewBox="0 0 22.8 23.5" style="enable-background:new 0 0 22.8 23.5;" xml:space="preserve">
<style type="text/css">
	.st0{fill:#A7A7A6;}
</style>
<g>
	<g>
		<circle class="st0" cx="9.2" cy="2.9" r="2.9"/>
		<path class="st0" d="M11.8,17.8c-0.7,1.7-2.4,2.9-4.3,2.9c-2.6,0-4.7-2.1-4.7-4.7c0-2.2,1.5-4.1,3.6-4.5V8.6C2.8,9.2,0,12.3,0,16
			c0,4.1,3.3,7.5,7.5,7.5c3.5,0,6.5-2.4,7.2-5.7H11.8z"/>
		<rect x="7.7" y="5.3" class="st0" width="3" height="11.4"/>
		<rect x="7.7" y="13.7" class="st0" width="8.9" height="3"/>
		<rect x="7.7" y="9.2" class="st0" width="7.7" height="3"/>
		<rect x="17.1" y="13.4" transform="matrix(0.7071 -0.7071 0.7071 0.7071 -7.1761 18.3961)" class="st0" width="3" height="8.9"/>
	</g>
</g>
</svg>
