<?xml version="1.0" encoding="utf-8"?>
<!-- Generator: Adobe Illustrator 26.0.1, SVG Export Plug-In . SVG Version: 6.00 Build 0)  -->
<svg version="1.1" id="Layer_1" xmlns="http://www.w3.org/2000/svg" xmlns:xlink="http://www.w3.org/1999/xlink" x="0px" y="0px"
	 viewBox="0 0 122.9 65.8" style="enable-background:new 0 0 122.9 65.8;" xml:space="preserve">
<style type="text/css">
	.st0{fill:#FFFFFF;stroke:#FFFFFF;stroke-width:1.9609;stroke-miterlimit:10;}
</style>
<g>
	<path class="st0" d="M38.9,47C49,57.1,65.4,57.1,75.6,47c10.1-10.1,10.1-26.5,0-36.7C65.4,0.2,49,0.2,38.9,10.3
		C28.8,20.5,28.8,36.9,38.9,47z M40.6,45.3c-9.2-9.2-9.2-24.1,0-33.2c9.2-9.2,24.1-9.2,33.2,0c9.2,9.2,9.2,24.1,0,33.2
		C64.7,54.5,49.8,54.5,40.6,45.3z"/>
	<path class="st0" d="M88.2,62.5l-14-14c-0.8-0.8-0.8-2,0-2.8v0c0.8-0.8,2-0.8,2.8,0l14,14c0.8,0.8,0.8,2,0,2.8v0
		C90.2,63.2,89,63.2,88.2,62.5z"/>
</g>
</svg>
