<?xml version="1.0" encoding="utf-8"?>
<!-- Generator: Adobe Illustrator 26.0.1, SVG Export Plug-In . SVG Version: 6.00 Build 0)  -->
<svg version="1.1" id="Layer_1" xmlns="http://www.w3.org/2000/svg" xmlns:xlink="http://www.w3.org/1999/xlink" x="0px" y="0px"
	 viewBox="0 0 26.9 46.2" style="enable-background:new 0 0 26.9 46.2;" xml:space="preserve">
<style type="text/css">
	.st0{fill-rule:evenodd;clip-rule:evenodd;fill:#FFFFFF;}
	.st1{fill:#FFFFFF;}
</style>
<g>
	<g>
		<path id="Path_658_00000158728112973342584160000010403314255478985100_" class="st0" d="M6.4,0c2.6,0,4.7,2.1,4.7,4.7
			S9,9.3,6.4,9.3S1.7,7.3,1.7,4.7C1.8,2.1,3.8,0,6.4,0z"/>
		<g id="Group_902_00000113346628281588696580000004914534508042691725_" transform="translate(434.737 96.149)">
			<path id="Path_641_00000164499451757661409160000015173004897060160943_" class="st1" d="M-417.9-75.5c-0.4,0-0.7,0.3-0.7,0.8
				v7.8c0,0.5,0.2,0.8,0.7,0.8c0.4,0,0.6-0.3,0.6-0.8v-7.8C-417.2-75.2-417.5-75.5-417.9-75.5z"/>
			<path id="Path_642_00000014595372428012784950000001252368717374962864_" class="st1" d="M-429.7-71.2v4.2c0,0.5,0.2,0.8,0.7,0.8
				c0.4,0,0.7-0.3,0.7-0.8v-5.1C-429.2-71.9-429.7-71.6-429.7-71.2z"/>
			<path id="Path_643_00000143578877442247026200000017417356814785277328_" class="st1" d="M-410-83.3c0.1,0.2,0.1,0.4,0.1,0.6
				c0,1.4-1.2,2.6-2.6,2.6l0,0l0,0c-1.4,0-2.6-1.2-2.6-2.6c0-0.1,0-0.1,0-0.2c-6,1.3-11.2,4.7-19.6,1.9v17.3l0,0
				c0,2.1,1.7,3.8,3.8,3.8h19.2c2.1,0,3.8-1.7,3.8-3.8v-19.3C-408.6-83.2-409.3-83.3-410-83.3z M-426.1-64.6h-2.3v-0.4
				c-0.2,0.4-0.7,0.6-1.6,0.6c-1.3,0-2-0.6-2-1.8v-4.5c0-0.5,0.2-1,0.4-1.4c0.6-0.6,1.2-1.1,2-1.4c0.7-0.3,1.1-0.6,1.1-0.8v-1.9
				c0-0.5-0.2-0.8-0.7-0.8c-0.4,0-0.7,0.3-0.7,0.8v2.1h-2.3v-2.1c0-0.6,0.2-1.1,0.5-1.6c1.7,0.4,3.4,0.5,5.1,0.4
				c0.2,0.4,0.3,0.8,0.3,1.2V-64.6z M-422.3-64.6h-2.3v-13.1c0.8-0.1,1.5-0.3,2.3-0.5V-64.6z M-415-67c0.1,0.7-0.1,1.5-0.6,2
				c-0.5,0.3-1,0.5-1.6,0.5c-0.5,0-1-0.2-1.3-0.5v0.4h-2.3v-13.9c0.8-0.2,1.5-0.4,2.3-0.7v2.5c0.6-0.3,1.2-0.5,1.8-0.4
				c0.4,0,0.9,0.1,1.2,0.4c0.4,0.3,0.5,0.9,0.5,1.9V-67z M-411.2-64.6h-2.2v-14h2.2V-64.6z"/>
		</g>
		<path id="Path_659_00000173877506644797222380000012134075115448750245_" class="st1" d="M26.9,3.9v6C14.5,9.1,11.7,18.6,0,13.1V9
			C11.6,15.2,14.7,3.2,26.9,3.9z"/>
		<path id="Path_660_00000080191815244145207650000010785656753041901463_" class="st0" d="M22.2,11.5c1.1,0,2,0.9,2,2s-0.9,2-2,2
			s-2-0.9-2-2l0,0C20.3,12.4,21.1,11.5,22.2,11.5z"/>
	</g>
	<path class="st1" d="M7.1,41.7c-0.1,0-0.1,0.1-0.1,0.1c-0.6,1.3-1.1,2.5-1.7,3.8c-0.2,0.4-0.6,0.6-1,0.5c-0.3-0.1-0.5-0.3-0.6-0.6
		c-0.2-0.9-0.3-1.7-0.5-2.6c-0.1-0.4-0.2-0.9-0.2-1.3c-0.1,0-0.1,0.1-0.1,0.1C2.7,42.9,2.4,44,2,45.2c0,0.1-0.1,0.3-0.1,0.4
		c-0.1,0.4-0.4,0.6-0.9,0.6c-0.2,0-0.4,0-0.6,0c-0.3,0-0.5-0.3-0.4-0.6c0.3-0.9,0.5-1.7,0.8-2.6c0.3-1.1,0.7-2.2,1-3.4
		c0.1-0.5,0.5-0.8,1-0.7c0.3,0,0.5,0,0.8,0c0.4,0,0.7,0.2,0.7,0.6c0.1,0.6,0.2,1.2,0.3,1.8c0.1,0.4,0.2,0.9,0.2,1.3
		c0,0,0,0.1,0.1,0.1C5,42.7,5,42.7,5,42.6c0.4-1,0.8-2,1.3-2.9C6.4,39.4,6.6,39,7,38.9c0.1,0,0.2,0,0.4,0c0.3,0,0.5,0,0.8,0
		c0.4,0,0.6,0.2,0.6,0.6c0.1,0.6,0,1.3,0.1,1.9c0,1.4,0.1,2.7,0.1,4.1c0,0.2,0,0.4-0.2,0.5c-0.1,0.1-0.1,0.1-0.2,0.1
		c-0.3,0.1-0.6,0.1-0.9,0c-0.3,0-0.5-0.3-0.5-0.5c0-0.2,0-0.4,0-0.6c0-1.1,0-2.1,0-3.2C7.1,41.8,7.1,41.8,7.1,41.7z"/>
	<path class="st1" d="M19.4,46.2c-0.5,0-1,0-1.5,0c-0.4,0-0.6-0.3-0.5-0.7c0.1-0.9,0.3-1.9,0.4-2.8c0.2-1,0.3-2.1,0.5-3.1
		c0.1-0.4,0.3-0.7,0.8-0.7c0.2,0,0.4,0,0.7,0c0.3,0,0.6,0.3,0.5,0.6c-0.2,1.4-0.4,2.9-0.7,4.3c-0.1,0.4,0.2,0.6,0.5,0.6
		c0.4,0,0.7,0,1.1,0c0.4,0,0.6,0.2,0.6,0.6c0,0.2-0.1,0.4-0.1,0.6c-0.1,0.4-0.4,0.5-0.8,0.5C20.4,46.2,19.9,46.2,19.4,46.2
		L19.4,46.2z"/>
	<path class="st1" d="M24.5,46.2c-0.5,0-1,0-1.5,0c-0.5,0-0.7-0.3-0.6-0.7c0.2-1,0.3-2,0.5-3c0.1-0.9,0.3-1.8,0.4-2.8
		c0.1-0.5,0.4-0.8,0.9-0.8c0.2,0,0.4,0,0.6,0c0.4,0,0.6,0.2,0.5,0.6c-0.1,0.6-0.2,1.2-0.3,1.8c-0.1,0.8-0.3,1.7-0.4,2.5
		c-0.1,0.3,0.2,0.6,0.5,0.6c0.4,0,0.7,0,1.1,0c0.5,0,0.7,0.2,0.6,0.7c0,0.1,0,0.3-0.1,0.4c-0.1,0.4-0.3,0.7-0.8,0.7
		C25.5,46.2,25,46.2,24.5,46.2z"/>
	<path class="st1" d="M16.7,45.6c-0.3-1.1-0.5-2.3-0.7-3.5c-0.2-0.8-0.4-1.7-0.5-2.5c-0.1-0.4-0.4-0.7-0.9-0.7c-0.3,0-0.6,0-0.9,0
		c-0.6,0-0.9,0.2-1.2,0.7c-0.6,1.1-1.1,2.2-1.7,3.4c-0.4,0.9-0.9,1.7-1.3,2.6c-0.2,0.3,0,0.5,0.3,0.6c0.3,0,0.6,0,0.8,0
		c0.2,0,0.4-0.1,0.6-0.2c0.3-0.1,0.4-0.4,0.5-0.6c0.2-0.4,0.5-0.6,1-0.6c0.2,0,0.4,0,0.6,0c0.2,0,0.3,0,0.5,0c0.6,0,0.8,0.2,1,0.8
		c0.1,0.3,0.3,0.5,0.5,0.6c0.4,0.1,0.7,0.1,1.1,0C16.7,46.1,16.8,45.9,16.7,45.6z M13.6,43.2c-0.1,0-0.2,0-0.3,0
		c-0.2,0-0.3-0.1-0.3-0.4c0-0.2,0.1-0.3,0.2-0.5c0.2-0.4,0.3-0.7,0.5-1.1c0,0,0-0.1,0.1-0.1c0-0.1,0.1-0.1,0.1-0.1
		c0.1,0,0.1,0.1,0.1,0.1c0.1,0.3,0.1,0.6,0.2,0.9c0,0.1,0.1,0.3,0.1,0.4C14.3,43,14.1,43.2,13.6,43.2z"/>
</g>
</svg>
