<?xml version="1.0" encoding="utf-8"?>
<!-- Generator: Adobe Illustrator 26.0.1, SVG Export Plug-In . SVG Version: 6.00 Build 0)  -->
<svg version="1.1" id="Layer_1" xmlns="http://www.w3.org/2000/svg" xmlns:xlink="http://www.w3.org/1999/xlink" x="0px" y="0px"
	 viewBox="0 0 30.3 48.5" style="enable-background:new 0 0 30.3 48.5;" xml:space="preserve">
<style type="text/css">
	.st0{fill-rule:evenodd;clip-rule:evenodd;fill:#171719;}
	.st1{fill:#171719;}
</style>
<g>
	<g>
		<path id="Path_658_00000060752559477175972560000010368678025419209118_" class="st0" d="M8.2,0c2.6,0,4.6,2.1,4.6,4.6
			s-2.1,4.6-4.6,4.6c-2.6,0-4.6-2.1-4.6-4.6C3.6,2.1,5.7,0,8.2,0z"/>
		<g id="Group_902_00000122704853070651451460000002923658447491027645_" transform="translate(434.737 96.149)">
			<path id="Path_641_00000107565477291348924860000012359069290700991674_" class="st1" d="M-416.1-75.6c-0.4,0-0.7,0.3-0.7,0.8
				v7.7c0,0.5,0.2,0.8,0.7,0.8c0.4,0,0.6-0.3,0.6-0.8v-7.7C-415.5-75.4-415.7-75.6-416.1-75.6z"/>
			<path id="Path_642_00000103260303514948057880000013502069178415898806_" class="st1" d="M-427.8-71.4v4.2c0,0.5,0.2,0.8,0.7,0.8
				c0.4,0,0.7-0.3,0.7-0.8v-5.1C-427.4-72.1-427.9-71.8-427.8-71.4z"/>
			<path id="Path_643_00000071523714747827757410000007393833417464808379_" class="st1" d="M-408.3-83.4c0,0.2,0.1,0.4,0.1,0.6
				c0,1.4-1.2,2.6-2.6,2.6c0,0,0,0,0,0l0,0c-1.4,0-2.6-1.2-2.6-2.6c0-0.1,0-0.1,0-0.2c-6,1.3-11.1,4.7-19.5,1.9v17.2l0,0
				c0,2.1,1.7,3.8,3.8,3.8h19.1c2.1,0,3.8-1.7,3.8-3.8v-19.2C-406.9-83.3-407.6-83.4-408.3-83.4z M-424.3-64.8h-2.3v-0.5
				c-0.2,0.4-0.7,0.6-1.6,0.6c-1.3,0-2-0.6-2-1.7v-4.5c0-0.5,0.2-1,0.5-1.3c0.6-0.6,1.2-1.1,2-1.4c0.7-0.3,1.1-0.6,1.1-0.8v-1.9
				c0-0.5-0.2-0.8-0.7-0.8c-0.4,0-0.7,0.3-0.7,0.8v2.1h-2.3v-2.1c0-0.6,0.2-1.1,0.5-1.6c1.6,0.4,3.3,0.5,5,0.4
				c0.2,0.4,0.3,0.8,0.3,1.2L-424.3-64.8z M-420.5-64.8h-2.3v-13c0.8-0.1,1.5-0.3,2.3-0.5V-64.8z M-413.2-67.2
				c0.1,0.7-0.1,1.4-0.6,2c-0.5,0.3-1,0.5-1.6,0.5c-0.5,0-0.9-0.2-1.3-0.5v0.4h-2.3v-13.8c0.8-0.2,1.5-0.4,2.3-0.7v2.5
				c0.6-0.3,1.2-0.5,1.8-0.4c0.4,0,0.9,0.1,1.2,0.4c0.4,0.3,0.5,0.9,0.5,1.9L-413.2-67.2z M-409.5-64.8h-2.2v-13.9h2.2V-64.8z"/>
		</g>
		<path id="Path_659_00000040558188865261688400000002657034806615917198_" class="st1" d="M28.5,3.9v5.9C16.3,9,13.5,18.5,1.9,13
			V8.9C13.3,15.1,16.4,3.1,28.5,3.9z"/>
		<path id="Path_660_00000031196224916293082440000010417374362562851732_" class="st0" d="M23.9,11.4c1.1,0,1.9,0.9,2,1.9
			c0,1.1-0.9,1.9-1.9,2c-1.1,0-1.9-0.9-2-1.9c0,0,0,0,0,0C22,12.3,22.9,11.4,23.9,11.4z"/>
	</g>
	
		<image style="overflow:visible;" width="793" height="311" xlink:href="../Desktop/Render/web albi/123.png"  transform="matrix(3.817075e-02 0 0 3.817075e-02 0 36.6774)">
	</image>
</g>
</svg>
