<?xml version="1.0" encoding="utf-8"?>
<!-- Generator: Adobe Illustrator 26.0.1, SVG Export Plug-In . SVG Version: 6.00 Build 0)  -->
<svg version="1.1" id="Layer_1" xmlns="http://www.w3.org/2000/svg" xmlns:xlink="http://www.w3.org/1999/xlink" x="0px" y="0px"
	 viewBox="0 0 32.1 32.8" style="enable-background:new 0 0 32.1 32.8;" xml:space="preserve">
<style type="text/css">
	.st0{fill:#171719;}
</style>
<path class="st0" d="M16.4,14v5.6h9.3c-0.4,2.4-2.8,7.1-9.3,7.1c-5.6,0-10.2-4.6-10.2-10.3C6.2,10.7,10.8,6,16.4,6
	c3.2,0,5.3,1.4,6.5,2.5l4.4-4.3C24.5,1.6,20.8,0,16.4,0C7.3,0,0,7.3,0,16.4c0,9.1,7.3,16.4,16.4,16.4c9.5,0,15.7-6.6,15.7-16
	c0-1.1-0.1-1.9-0.3-2.7H16.4L16.4,14z"/>
</svg>
