<?xml version="1.0" encoding="utf-8"?>
<!-- Generator: Adobe Illustrator 26.0.1, SVG Export Plug-In . SVG Version: 6.00 Build 0)  -->
<svg version="1.1" id="Layer_1" xmlns="http://www.w3.org/2000/svg" xmlns:xlink="http://www.w3.org/1999/xlink" x="0px" y="0px"
	 viewBox="0 0 36.3 60.9" style="enable-background:new 0 0 36.3 60.9;" xml:space="preserve">
<style type="text/css">
	.st0{fill-rule:evenodd;clip-rule:evenodd;fill:#FFFFFF;}
	.st1{fill:#FFFFFF;}
</style>
<g>
	<path id="Path_658_00000082333323245204406110000007951204816118726552_" class="st0" d="M9.1,0c3.1,0,5.6,2.5,5.6,5.6
		s-2.5,5.6-5.6,5.6S3.5,8.7,3.5,5.6C3.5,2.5,6,0,9.1,0z"/>
	<g id="Group_902_00000001629870800980240950000011269253752780050359_" transform="translate(434.737 96.149)">
		<path id="Path_641_00000137853778744639541450000005239318376458937743_" class="st1" d="M-413.1-71.3c-0.5,0-0.8,0.3-0.8,0.9v9.3
			c0,0.6,0.3,0.9,0.8,0.9s0.8-0.3,0.8-0.9v-9.3C-412.3-71-412.6-71.3-413.1-71.3z"/>
		<path id="Path_642_00000040551314367409344390000015486576608587031178_" class="st1" d="M-427.3-66.1v5.1c0,0.6,0.3,0.9,0.8,0.9
			s0.8-0.3,0.8-0.9v-6.1C-426.7-67-427.3-66.6-427.3-66.1z"/>
		<path id="Path_643_00000141448836554252542390000000217301536225566888_" class="st1" d="M-403.6-80.7c0.1,0.2,0.1,0.5,0.1,0.7
			c0,1.7-1.4,3.1-3.1,3.1l0,0l0,0c-1.7,0-3.1-1.4-3.1-3.1c0-0.1,0-0.1,0-0.2c-7.3,1.6-13.5,5.6-23.6,2.2v20.8l0,0
			c0,2.5,2.1,4.6,4.6,4.6h23.1c2.5,0,4.6-2.1,4.6-4.6v-23.3C-401.9-80.6-402.7-80.7-403.6-80.7z M-423-58.2h-2.7v-0.5
			c-0.2,0.5-0.9,0.7-1.9,0.7c-1.6,0-2.4-0.7-2.4-2.1v-5.4c0-0.6,0.2-1.2,0.5-1.6c0.7-0.7,1.5-1.3,2.4-1.7c0.8-0.4,1.3-0.7,1.4-1
			v-2.3c0-0.6-0.3-0.9-0.8-0.9s-0.8,0.3-0.8,0.9v2.6h-2.7v-2.6c0-0.7,0.2-1.4,0.6-1.9c2,0.4,4,0.6,6.1,0.4c0.2,0.5,0.3,1,0.3,1.5
			V-58.2z M-418.4-58.2h-2.7v-15.7c0.9-0.2,1.8-0.3,2.7-0.6V-58.2z M-409.6-61c0.1,0.9-0.2,1.8-0.8,2.4c-0.6,0.4-1.2,0.6-1.9,0.6
			c-0.6,0-1.1-0.2-1.6-0.6v0.5h-2.7v-16.7c0.9-0.3,1.8-0.5,2.7-0.8v3c0.7-0.4,1.4-0.6,2.2-0.5c0.5,0,1.1,0.2,1.5,0.5
			s0.6,1.1,0.6,2.3L-409.6-61z M-405.1-58.2h-2.7V-75h2.7V-58.2z"/>
	</g>
	<path id="Path_659_00000140011617719385051330000003822343986479162800_" class="st1" d="M33.7,4.7v7.2c-14.9-1-18.3,10.5-32.3,3.9
		v-5C15.3,18.3,19,3.8,33.7,4.7z"/>
	<path id="Path_660_00000075164362467390952610000007274067318818129078_" class="st0" d="M28.1,13.8c1.3,0,2.4,1.1,2.4,2.4
		s-1.1,2.4-2.4,2.4s-2.4-1.1-2.4-2.4l0,0C25.8,14.9,26.8,13.8,28.1,13.8z"/>
	
		<image style="overflow:visible;enable-background:new    ;" width="793" height="311" xlink:href="../Desktop/Render/web albi/321.png"  transform="matrix(4.575928e-02 0 0 4.575928e-02 0 46.7052)">
	</image>
</g>
</svg>
