<?xml version="1.0" encoding="utf-8"?>
<!-- Generator: Adobe Illustrator 26.0.1, SVG Export Plug-In . SVG Version: 6.00 Build 0)  -->
<svg version="1.1" id="Layer_1" xmlns="http://www.w3.org/2000/svg" xmlns:xlink="http://www.w3.org/1999/xlink" x="0px" y="0px"
	 viewBox="0 0 23.5 17.4" style="enable-background:new 0 0 23.5 17.4;" xml:space="preserve">
<style type="text/css">
	.st0{fill:#A7A7A6;}
</style>
<g>
	<g>
		<path class="st0" d="M0,13.1v4.3h23.5v-4.3H0z M21.4,15.4H2.1V15h19.3V15.4z"/>
		<path class="st0" d="M21.5,3.1V2.3h-4.2V0H17v2.3H3.9V0H3.5v2.3H0.9L0.8,7.2l2.8,2.4v1.9h0.2v-2l2.5-2.3h8.9v5.6h6.4v-4h1.6V3.1
			H21.5z M18.4,7.3c-0.7,0-1.3-0.6-1.3-1.3s0.6-1.3,1.3-1.3c0.7,0,1.3,0.6,1.3,1.3S19.2,7.3,18.4,7.3z"/>
	</g>
</g>
</svg>
