<?xml version="1.0" encoding="utf-8"?>
<!-- Generator: Adobe Illustrator 26.0.1, SVG Export Plug-In . SVG Version: 6.00 Build 0)  -->
<svg version="1.1" id="Layer_1" xmlns="http://www.w3.org/2000/svg" xmlns:xlink="http://www.w3.org/1999/xlink" x="0px" y="0px"
	 viewBox="0 0 32.6 24.9" style="enable-background:new 0 0 32.6 24.9;" xml:space="preserve">
<style type="text/css">
	.st0{fill:#A8A8A8;}
</style>
<g>
	<g>
		<path class="st0" d="M22.1,24.9H0l0-3.6c0-4,3.2-7.2,7.2-7.2h7.7c4,0,7.2,3.2,7.2,7.2V24.9z"/>
		<path class="st0" d="M11,11.4L11,11.4c-3.1,0-5.7-2.5-5.7-5.7v0C5.3,2.5,7.9,0,11,0h0c3.1,0,5.7,2.5,5.7,5.7v0
			C16.7,8.8,14.2,11.4,11,11.4z"/>
	</g>
	<polygon class="st0" points="32.6,11.6 29.5,11.6 29.5,8.4 27.7,8.4 27.7,11.6 24.6,11.6 24.6,13.5 27.7,13.5 27.7,16.5 29.5,16.5 
		29.5,13.5 32.6,13.5 	"/>
</g>
</svg>
