<?xml version="1.0" encoding="utf-8"?>
<!-- Generator: Adobe Illustrator 26.0.1, SVG Export Plug-In . SVG Version: 6.00 Build 0)  -->
<svg version="1.1" id="Layer_1" xmlns="http://www.w3.org/2000/svg" xmlns:xlink="http://www.w3.org/1999/xlink" x="0px" y="0px"
	 viewBox="0 0 385 381.4" style="enable-background:new 0 0 385 381.4;" xml:space="preserve">
<style type="text/css">
	.st0{fill:#FFFFFF;}
	.st1{opacity:0.9;}
	.st2{fill:#003764;}
</style>
<g>
	<rect class="st0" width="385" height="381.4"/>
	<g class="st1">
		<path class="st2" d="M198.8,162.5c0.2-0.1,0.4-0.2,0.7-0.2c0.2,0,0.7,0.2,1.2,0.5l0.7,0.5l1.3,1.1l0.5,0.4l0.6,0.5l-4.4-4.6
			l-0.6,1.9L198.8,162.5z"/>
		<polygon class="st2" points="195.5,174.2 193.6,177.7 203.4,167.3 		"/>
		<polygon class="st2" points="181.5,167.3 191.2,177.8 189.4,174.2 		"/>
		<polygon class="st2" points="203.9,166.3 199.8,166.3 196.7,171.6 200.1,167 201.1,167.8 195.6,173.4 		"/>
		<polygon class="st2" points="189.2,173.4 183.8,167.8 184.8,167 188.2,171.6 185,166.3 181,166.3 		"/>
		<polygon class="st2" points="195.9,166.5 195.9,172.2 199.1,166.3 196.2,166.3 198.2,166.9 196.3,169.8 		"/>
		<polygon class="st2" points="185.8,166.3 189,172.2 189,166.5 188.5,169.8 186.6,166.9 188.6,166.4 		"/>
		<polygon class="st2" points="195.4,167.2 193,178.1 195.2,173.6 		"/>
		<polygon class="st2" points="189.6,173.6 191.8,178.1 189.5,167.2 		"/>
		<polygon class="st2" points="195,167.2 192.5,172.1 192.5,178.5 193.3,172.2 		"/>
		<polygon class="st2" points="189.8,167.2 191.6,172.2 192.4,178.5 192.3,172.1 		"/>
		<polygon class="st2" points="194.8,166.5 192.7,166.4 193.6,167.2 192.4,171 		"/>
		<polygon class="st2" points="192.1,166.5 190.1,166.5 192.4,171 191.3,167.2 		"/>
		<polygon class="st2" points="203.5,165.8 198.6,163.3 200.3,165.3 197.4,165.8 		"/>
		<polygon class="st2" points="196.9,166 198.8,160.8 196.2,160.8 197.8,161.6 		"/>
		<polygon class="st2" points="193.3,163.5 193.3,163.6 193.3,163.6 193.3,163.6 196.4,165.8 197.2,163.4 196.2,164.7 193.3,163.6 
			195.4,161.7 197.2,163.3 195.5,160.9 195,160.8 193.3,163.5 		"/>
		<polygon class="st2" points="192.8,163.6 194.6,160.8 192.5,160.8 193.6,161.6 		"/>
		<polygon class="st2" points="181.1,165.8 187.3,165.8 184.3,165.3 186.1,163.3 		"/>
		<path class="st2" d="M182.1,164.4l1.3-1.1l0.7-0.5c0.4-0.3,0.9-0.5,1.2-0.5c0.2,0,0.5,0,0.7,0.2l0.2,0.2l-0.6-1.9l-4.4,4.6
			l0.6-0.5L182.1,164.4z"/>
		<polygon class="st2" points="186.8,161.6 188.5,160.8 185.9,160.8 187.8,166 		"/>
		<polygon class="st2" points="189.3,161.7 191.4,163.5 188.5,164.6 187.5,163.5 188.2,165.8 191.4,163.6 191.4,163.6 191.4,163.6 
			191.5,163.5 191.4,163.5 189.6,160.8 189.2,160.8 187.5,163.2 		"/>
		<polygon class="st2" points="191.1,161.7 192.1,160.8 190.2,160.8 191.8,163.6 		"/>
		<polygon class="st2" points="191.4,164.7 192,165.3 190.8,165.9 193.8,165.9 192.8,165.3 193.3,164.6 195.7,165.7 192.4,163.5 
			189,165.7 		"/>
		<rect x="89.8" y="217.3" class="st2" width="39.2" height="0.6"/>
		<rect x="253" y="217.4" class="st2" width="41.9" height="0.6"/>
		<path class="st2" d="M147.9,219.1L147.9,219.1L147.9,219.1c-0.2,0.4-0.7,1-1.9,1c-1.3,0-2.6-0.6-2.6-2.1c0-1.4,1.3-1.9,2.5-1.9
			c1,0,1.6,0.3,1.8,0.9l0,0.1l0.1,0c0.1,0.1,0.4,0.1,0.5,0l0.1-0.1l0-0.1c-0.1-0.4-0.1-0.8-0.1-1l0-0.2l-0.2,0c-0.1,0-0.1,0-0.2,0
			l0,0c-0.5-0.1-1.2-0.2-1.7-0.2c-1,0-1.9,0.2-2.6,0.6c-0.8,0.5-1.3,1.2-1.3,2c0,0.9,0.5,1.6,1.4,2.1c0.7,0.3,1.5,0.5,2.4,0.5
			c0.6,0,1.3-0.1,1.5-0.2c0.1,0,0.2-0.1,0.3-0.1l0.1,0l0,0c0.2-0.2,0.4-0.7,0.5-1l0-0.1l0-0.1C148.2,219,148,219,147.9,219.1"/>
		<path class="st2" d="M156.6,215.5c-2,0-3.5,1.1-3.5,2.6c0,1.2,1.2,2.5,3.5,2.5c2,0,3.4-1.1,3.4-2.6
			C160.1,216.8,159,215.5,156.6,215.5 M156.5,216.1c1.7,0,2.3,1.1,2.3,2.2c0,1.3-1.1,1.8-2,1.8c-1.9,0-2.4-1.4-2.4-2.2
			C154.4,216.5,155.5,216.1,156.5,216.1"/>
		<path class="st2" d="M170.1,219.2c-0.1,0-0.3-0.1-0.4,0l0,0l0,0c-0.2,0.3-0.4,0.5-0.5,0.6c-0.1,0.1-0.3,0.1-1.1,0.1
			c-0.7,0-0.9-0.1-0.9-0.1c-0.1-0.1-0.1-0.2-0.1-0.6v-2.4c0-0.7,0-0.7,0.4-0.7l0.2,0l0.1,0c0.1,0,0.1-0.1,0.1-0.2
			c0-0.1-0.1-0.2-0.2-0.2l0,0l0,0c-0.5,0-0.8,0-1.2,0c-0.4,0-0.7,0-1.2,0l0,0l0,0c-0.1,0-0.2,0.1-0.2,0.3c0,0.1,0,0.2,0.1,0.2l0.3,0
			c0.4,0,0.4,0,0.4,0.7v2.5c0,0.7,0,0.7-0.4,0.7l-0.3,0l0,0c-0.1,0.1-0.1,0.2-0.1,0.3c0,0.1,0.1,0.2,0.2,0.2l0,0l0,0
			c0.5,0,0.8,0,1.2,0h0.9c1,0,1.9,0,2.3,0l0.1,0l0.1-0.1c0.1-0.2,0.4-0.9,0.4-1.1L170.1,219.2L170.1,219.2z"/>
		<path class="st2" d="M179.8,219.2c-0.1,0-0.3-0.1-0.4,0l0,0l0,0c-0.2,0.3-0.4,0.5-0.5,0.6c-0.1,0.1-0.3,0.1-1.1,0.1
			c-0.7,0-0.9-0.1-0.9-0.1c-0.1-0.1-0.1-0.2-0.1-0.6v-2.4c0-0.7,0-0.7,0.4-0.7l0.2,0l0.1,0c0.1,0,0.1-0.1,0.1-0.2
			c0-0.1-0.1-0.2-0.2-0.2l0,0l0,0c-0.5,0-0.8,0-1.2,0c-0.4,0-0.7,0-1.2,0l0,0l0,0c-0.1,0-0.2,0.1-0.2,0.2c0,0.1,0,0.2,0.1,0.2l0.3,0
			c0.5,0,0.5,0,0.5,0.7v2.5c0,0.7,0,0.7-0.4,0.7l-0.3,0l0,0c-0.1,0.1-0.1,0.2-0.1,0.3c0,0.1,0.1,0.2,0.2,0.2l0,0l0,0
			c0.5,0,0.8,0,1.2,0h0.9c1,0,1.9,0,2.3,0l0.1,0l0.1-0.1c0.1-0.2,0.4-0.9,0.4-1.1L179.8,219.2L179.8,219.2z"/>
		<path class="st2" d="M189.3,219.2L189.3,219.2c-0.3,0.4-0.5,0.6-0.6,0.7c-0.2,0.1-0.5,0.1-1.1,0.1c-0.8,0-1-0.1-1-0.1
			c-0.1-0.1-0.1-0.3-0.1-0.6v-1v0c0,0,0.1,0,0.1,0h0.5c0.3,0,0.6,0,0.7,0c0.1,0,0.1,0.1,0.2,0.1l0.1,0.3l0,0
			c0.1,0.1,0.2,0.1,0.3,0.1c0.1,0,0.2,0,0.2-0.1l0,0v-0.1c0-0.1,0-0.2,0-0.3c0-0.1,0-0.3,0-0.4c0-0.1,0-0.3,0-0.4c0-0.1,0-0.2,0-0.3
			v-0.1l0,0c0-0.1-0.1-0.1-0.2-0.1c0,0-0.2,0-0.3,0.1l0,0l-0.1,0.3c0,0.1,0,0.1-0.1,0.1c0,0-0.2,0-0.8,0h-0.5c0,0-0.1,0-0.1,0v0
			v-1.4c0,0,0-0.1,0-0.1c0,0,0.1,0,0.1,0h0.7c0.4,0,0.7,0,0.9,0c0.4,0.1,0.4,0.2,0.6,0.5l0.1,0.1c0.1,0.1,0.4,0.1,0.5,0l0.1-0.1
			l0-0.2c-0.1-0.4-0.1-0.8-0.2-0.9l-0.1-0.1l-0.1,0c-0.1,0-0.7,0-1.2,0h-1.8c-0.4,0-0.7,0-1.1,0l0,0l0,0c-0.1,0-0.2,0.2-0.2,0.3
			c0,0.1,0,0.2,0.1,0.2l0.2,0c0.4,0,0.4,0,0.4,0.7v2.5c0,0.7,0,0.7-0.4,0.7l-0.4,0l0,0c-0.1,0.1-0.1,0.2-0.1,0.3
			c0,0.1,0.1,0.2,0.2,0.2l0,0l0,0c0.6,0,0.9,0,1.3,0h0.8c0.8,0,1.7,0,2.5,0l0.1,0l0.1-0.1c0.1-0.2,0.4-0.7,0.4-1l0-0.1l0-0.1
			C189.6,219.2,189.4,219.1,189.3,219.2"/>
		<path class="st2" d="M200.2,219.1L200.2,219.1L200.2,219.1c-0.2,0.4-0.7,1-1.9,1c-1.3,0-2.6-0.6-2.6-2.1c0-1.4,1.3-1.9,2.5-1.9
			c1,0,1.6,0.3,1.8,0.9l0,0.1l0.1,0c0.1,0.1,0.4,0.1,0.5,0l0.1-0.1l0-0.1c-0.1-0.4-0.1-0.8-0.1-1l0-0.2l-0.2,0c0,0-0.1,0-0.2,0l0,0
			c-0.5-0.1-1.2-0.2-1.7-0.2c-1,0-1.9,0.2-2.6,0.6c-0.8,0.5-1.3,1.2-1.3,2c0,0.9,0.5,1.6,1.4,2.1c0.7,0.3,1.5,0.5,2.4,0.5
			c0.6,0,1.3-0.1,1.5-0.2c0.1,0,0.2-0.1,0.3-0.1l0.1,0l0,0c0.2-0.2,0.4-0.7,0.5-1l0-0.1l0-0.1C200.6,219,200.3,219,200.2,219.1"/>
		<path class="st2" d="M211.1,215.4L211.1,215.4L211.1,215.4c-0.2,0.2-0.2,0.2-0.7,0.2h-3.9c-0.3,0-0.6,0-0.6-0.1l0-0.1l0,0
			c-0.1-0.1-0.3-0.1-0.4,0l-0.1,0l0,0.1c-0.1,0.3-0.2,0.7-0.3,1l0,0.1l0.1,0.1c0.1,0.1,0.3,0.2,0.5,0.1l0,0l0,0
			c0.1-0.2,0.2-0.3,0.4-0.4c0.2-0.1,0.8-0.1,1.1-0.1h0.5c0,0,0.1,0,0.1,0v0v3.1c0,0.7,0,0.7-0.4,0.7l-0.3,0l-0.1,0
			c-0.1,0-0.2,0.1-0.2,0.3c0,0.1,0.1,0.2,0.2,0.2l0,0l0.3,0c0.4,0,0.7,0,1,0c0.3,0,0.6,0,1,0l0.2,0l0,0c0.1,0,0.2-0.1,0.2-0.2
			c0-0.1,0-0.2-0.1-0.2l-0.4,0c-0.4,0-0.4,0-0.4-0.7v-3.1v0c0,0,0.1,0,0.1,0h0.7c0.5,0,0.8,0,1,0.2c0,0,0.1,0.1,0.1,0.4l0,0.1l0,0
			c0.1,0.1,0.2,0.1,0.3,0.1c0.1,0,0.2-0.1,0.2-0.1l0-0.1l0-0.1c0-0.2,0-0.7,0.1-1l0-0.1l-0.1-0.1
			C211.4,215.4,211.1,215.4,211.1,215.4"/>
		<path class="st2" d="M218.4,216.1l0.2,0l0.1,0c0.1,0,0.1-0.1,0.1-0.2c0-0.1-0.1-0.2-0.2-0.2l0,0l0,0c-0.5,0-0.8,0-1.2,0
			c-0.4,0-0.7,0-1.2,0l0,0l0,0c-0.1,0-0.2,0.1-0.2,0.2c0,0.1,0,0.2,0.1,0.2l0.3,0c0.4,0,0.4,0,0.4,0.7v2.5c0,0.7,0,0.7-0.4,0.7
			l-0.3,0l0,0c-0.1,0.1-0.1,0.2-0.1,0.3c0,0.1,0.1,0.2,0.2,0.2l0,0l0,0c0.5,0,0.8,0,1.2,0c0.4,0,0.7,0,1.2,0l0,0l0,0
			c0.1,0,0.2-0.1,0.2-0.2c0-0.1,0-0.2-0.1-0.2l-0.3,0c-0.4,0-0.4,0-0.4-0.7v-2.5C218,216.1,218,216.1,218.4,216.1"/>
		<path class="st2" d="M227.3,215.5c-2,0-3.5,1.1-3.5,2.6c0,1.2,1.2,2.5,3.5,2.5c2,0,3.4-1.1,3.4-2.6
			C230.8,216.8,229.7,215.5,227.3,215.5 M227.2,216.1c1.7,0,2.3,1.2,2.3,2.2c0,1.3-1.1,1.8-2,1.8c-1.9,0-2.4-1.4-2.4-2.2
			C225.1,216.5,226.2,216.1,227.2,216.1"/>
		<path class="st2" d="M242.6,215.6L242.6,215.6L242.6,215.6c-0.4,0-0.6,0-1,0c-0.4,0-0.7,0-1.1,0l0,0c-0.1,0-0.2,0.1-0.2,0.2
			c0,0.1,0,0.2,0.1,0.3l0.2,0c0.4,0,0.5,0.1,0.5,0.1c0,0,0.1,0.2,0.1,1.3v1.5c-0.4-0.3-0.8-0.6-1.3-1.1l-1-0.9
			c-0.4-0.3-1.3-1.1-1.4-1.4l-0.1-0.1l-0.1,0c-0.1,0-0.3,0-0.4,0c-0.2,0-0.7,0-1.1,0l0,0l0,0c-0.1,0-0.2,0.1-0.2,0.2
			c0,0.1,0,0.2,0.1,0.3l0,0l0.2,0c0.3,0,0.4,0.1,0.5,0.1c0.1,0.1,0.1,0.2,0.1,0.4v2.1c0,0.3,0,1.1-0.1,1.3c0,0-0.1,0.1-0.3,0.1
			l-0.3,0l0,0c-0.1,0.1-0.1,0.1-0.1,0.2c0,0.1,0.1,0.2,0.1,0.2l0,0l0,0c0.3,0,0.6,0,1,0c0.3,0,0.7,0,1.1,0l0,0l0,0
			c0.1,0,0.1-0.1,0.1-0.2c0-0.1,0-0.2-0.1-0.2l0,0l-0.4,0c-0.3,0-0.4-0.1-0.4-0.1c-0.1-0.1-0.1-0.6-0.1-1.3v-1.5c0,0,0-0.1,0-0.1
			c0.1,0.1,0.3,0.3,0.5,0.4c0.1,0.1,0.3,0.2,0.4,0.3l2.2,1.8c0.7,0.6,1.1,0.9,1.2,1l0.1,0.1h0.1c0.2,0,0.3-0.1,0.3-0.2l0,0l0,0
			c0-0.1,0-0.3,0-1.2v-1.7c0-0.3,0-1.1,0.1-1.2c0,0,0.1-0.1,0.4-0.1l0.2,0l0,0c0.1-0.1,0.1-0.2,0.1-0.3
			C242.8,215.7,242.7,215.6,242.6,215.6"/>
		<path class="st2" d="M92.4,202.3c1.7,1.3,3.9,1.9,6.2,1.9c2.3,0,4.5-0.7,6.2-1.9c1.7-1.3,2.7-3.1,2.7-4.9c0-1.9-0.9-3.6-2.7-4.9
			c-1.6-1.3-3.8-2-6.2-2c-2.3,0-4.5,0.7-6.2,2c-1.7,1.3-2.7,3-2.7,4.9C89.8,199.2,90.7,201,92.4,202.3 M91.3,197.3
			c0-3,3.3-5.4,7.3-5.4s7.3,2.4,7.3,5.4c0,3-3.3,5.4-7.3,5.4C94.6,202.7,91.3,200.3,91.3,197.3"/>
		<path class="st2" d="M125.9,203.5c0-0.4-0.3-0.8-0.8-0.8h-14.7v-10.9c0-0.4-0.3-0.8-0.8-0.8c-0.4,0-0.8,0.3-0.8,0.8v12.3h16.2
			C125.6,204.2,125.9,203.9,125.9,203.5"/>
		<path class="st2" d="M129,191.1c-0.4,0-0.7,0.3-0.7,0.8v11.6c0,0.4,0.3,0.7,0.7,0.7c0.4,0,0.8-0.3,0.8-0.7v-11.6
			C129.7,191.5,129.4,191.1,129,191.1"/>
		<path class="st2" d="M148.2,190.9c-0.4-0.2-0.8-0.1-1,0.2l-7.1,10.7l-7.1-10.7c-0.2-0.3-0.7-0.4-1.1-0.2c-0.3,0.2-0.4,0.7-0.2,1.1
			l8.4,12.6l8.4-12.6C148.7,191.6,148.6,191.1,148.2,190.9L148.2,190.9z"/>
		<path class="st2" d="M166.9,203.4c0-0.4-0.3-0.8-0.8-0.8h-14.7v-4.3h14.7c0.4,0,0.8-0.3,0.8-0.8s-0.3-0.8-0.8-0.8h-14.7v-4.3h14.7
			c0.4,0,0.8-0.3,0.8-0.8c0-0.4-0.3-0.8-0.8-0.8h-16.2v13.1h16.2C166.6,204.2,166.9,203.9,166.9,203.4"/>
		<path class="st2" d="M184.8,204.1c0.2,0.1,0.4,0.2,0.6,0.1c0.2,0,0.4-0.2,0.5-0.3c0.1-0.2,0.2-0.4,0.1-0.6c0-0.2-0.1-0.4-0.3-0.5
			l-3.8-2.5c2.3-0.3,4.1-2.2,4.1-4.6c0-2.6-2.1-4.6-4.6-4.6H169v12.4c0,0.4,0.3,0.8,0.8,0.8c0.4,0,0.8-0.3,0.8-0.8v-3.1h8.7
			L184.8,204.1z M170.5,192.6h10.9c1.7,0,3.1,1.4,3.1,3.1c0,1.7-1.4,3.1-3.1,3.1h-10.9V192.6z"/>
		<path class="st2" d="M219.5,190.9c-0.4-0.2-0.8,0-1,0.4l-4.5,10.1l-5.8-11.5l-5.8,11.5l-4.5-10.1c-0.2-0.4-0.6-0.6-1-0.4
			c-0.2,0.1-0.3,0.2-0.4,0.4c-0.1,0.2-0.1,0.4,0,0.6l5.8,13.1l5.9-11.7L214,205l5.8-13.1c0.1-0.2,0.1-0.4,0-0.6
			C219.8,191.1,219.7,191,219.5,190.9"/>
		<path class="st2" d="M237.5,204.2c0.4,0,0.8-0.3,0.8-0.8"/>
		<path class="st2" d="M238.2,203.4c0-0.4-0.3-0.8-0.8-0.8h-14.7v-4.3h14.7c0.4,0,0.8-0.3,0.8-0.8s-0.3-0.8-0.8-0.8h-14.7v-4.3h14.7
			c0.4,0,0.8-0.3,0.8-0.8c0-0.4-0.3-0.8-0.8-0.8h-16.2v13.1h16.2"/>
		<path class="st2" d="M257.2,200.6c0-1.1-0.5-2.2-1.4-2.9c0.9-0.7,1.4-1.8,1.4-2.9c0-2-1.6-3.7-3.6-3.7h-13.3v13.1h13.3
			C255.5,204.3,257.2,202.6,257.2,200.6 M241.7,196.9v-4.3h11.8c1.2,0,2.1,1,2.1,2.1c0,1.2-1,2.1-2.1,2.1L241.7,196.9L241.7,196.9z
			 M255.6,200.6c0,1.2-1,2.1-2.1,2.1h-11.8v-4.3h11.8C254.7,198.4,255.6,199.4,255.6,200.6"/>
		<path class="st2" d="M276,203.4c0-0.4-0.3-0.8-0.8-0.8h-14.7v-4.3h14.7c0.4,0,0.8-0.3,0.8-0.8c0-0.4-0.3-0.8-0.8-0.8h-14.7v-4.3
			h14.7c0.4,0,0.8-0.3,0.8-0.8c0-0.4-0.3-0.8-0.8-0.8H259v13.1h16.2C275.6,204.2,276,203.8,276,203.4"/>
		<path class="st2" d="M291.1,200.3c2.3-0.3,4.2-2.2,4.2-4.6c0-2.6-2.1-4.7-4.7-4.7H278v12.5c0,0.4,0.3,0.8,0.8,0.8
			c0.4,0,0.8-0.4,0.8-0.8v-3.1h8.8l5.7,3.8c0.2,0.1,0.4,0.2,0.6,0.1c0.2,0,0.4-0.2,0.5-0.3c0.1-0.2,0.2-0.4,0.1-0.6
			c0-0.2-0.2-0.4-0.3-0.5L291.1,200.3z M290.5,198.8h-11v-6.3h11c1.7,0,3.1,1.4,3.1,3.1C293.7,197.4,292.3,198.8,290.5,198.8"/>
	</g>
</g>
</svg>
