<?xml version="1.0" encoding="utf-8"?>
<!-- Generator: Adobe Illustrator 26.0.1, SVG Export Plug-In . SVG Version: 6.00 Build 0)  -->
<svg version="1.1" id="Layer_1" xmlns="http://www.w3.org/2000/svg" xmlns:xlink="http://www.w3.org/1999/xlink" x="0px" y="0px"
	 viewBox="0 0 67.9 69.5" style="enable-background:new 0 0 67.9 69.5;" xml:space="preserve">
<path d="M55.2,46.1L55,45.9v-8.1h4.2v8.3H55.2z M51.2,42.1l-4.3-4.3h4.3V42.1z M62.9,46.1v-8.3H67v8.3H62.9z M64.3,69.5L41,46.1H0.5
	v-8.3h32.2L0,5.2l3.6-3.6l64.3,64.3L64.3,69.5z M55,34.1v-4.7c0-2.3-0.7-4.2-2-5.5c-1.4-1.3-3-2-4.9-2h-5.9c-3,0-5.5-1.2-7.5-3.5
	c-2-2.3-3-4.9-3-7.9s1-5.5,3-7.5c2-2,4.5-3,7.5-3v4.2c-1.9,0-3.5,0.6-4.7,1.7s-1.7,2.7-1.7,4.7s0.6,3.6,1.7,5.1
	c1.2,1.4,2.7,2.2,4.7,2.2H48c3,0,5.6,1,7.8,3.1s3.3,4.6,3.3,7.6v5.7H55z M62.9,34.1v-8.3c0-4.2-1.4-7.6-4.2-10.2s-6.2-4-10.4-4V7.4
	c1.9,0,3.5-0.7,4.7-2c1.2-1.3,1.7-2.9,1.7-4.8h4.2c0,1.8-0.3,3.4-1,4.7s-1.6,2.5-2.7,3.4c3.2,1.1,6,3.2,8.4,6.2S67,21.6,67,25.8v8.3
	H62.9z"/>
</svg>
