<?xml version="1.0" encoding="utf-8"?>
<!-- Generator: Adobe Illustrator 26.0.1, SVG Export Plug-In . SVG Version: 6.00 Build 0)  -->
<svg version="1.1" id="Layer_1" xmlns="http://www.w3.org/2000/svg" xmlns:xlink="http://www.w3.org/1999/xlink" x="0px" y="0px"
	 viewBox="0 0 21.6 23.5" style="enable-background:new 0 0 21.6 23.5;" xml:space="preserve">
<style type="text/css">
	.st0{fill:#A7A7A6;}
</style>
<g>
	<g>
		<path class="st0" d="M10.1,1.9v2.2h3.8V1.9H10.1z M13.2,3.8h-2.4V2.5h2.4V3.8z"/>
		<g>
			<polygon class="st0" points="21.6,15.7 6.4,15.7 8.9,3.8 21.6,3.8 			"/>
			<path class="st0" d="M5.7,4.9C5.1,4.8,4.6,4.6,4.1,4.4l0.1-2.6c0-0.6,0.5-1.1,1.1-1.1c0.6,0,1.1,0.5,1.1,1.1v0.1h0.8
				c0,0,0,0,0-0.1c0-1-0.8-1.9-1.9-1.9c-1,0-1.9,0.8-1.9,1.9c0,0.2,0.1,2.5,0.1,2.5c-0.5,0.2-1,0.4-1.8,0.5C1.1,5,0.5,5,0,5
				l3.5,16.5v2h0.6v-2L7.5,5C7,5,6.4,5,5.7,4.9z"/>
		</g>
	</g>
</g>
</svg>
