<?xml version="1.0" encoding="utf-8"?>
<!-- Generator: Adobe Illustrator 26.0.1, SVG Export Plug-In . SVG Version: 6.00 Build 0)  -->
<svg version="1.1" id="Layer_1" xmlns="http://www.w3.org/2000/svg" xmlns:xlink="http://www.w3.org/1999/xlink" x="0px" y="0px"
	 viewBox="0 0 71.4 72.1" style="enable-background:new 0 0 71.4 72.1;" xml:space="preserve">
<style type="text/css">
	.st0{fill-rule:evenodd;clip-rule:evenodd;}
</style>
<g>
	<path class="st0" d="M33.3,40.4L33.3,40.4L21.5,28.4c-0.4,0.1-0.9,0.3-1.3,0.5c-2,0.9-3.4,1.6-4.3,2.5C10,33.5,10.1,39.3,6.6,43
		c-1.5,1.5-3.4,2.8-4.8,2.3c-0.8-0.2-1.1-0.5-1.5-0.4C0.1,45,0.1,45.1,0,45.2c-0.1,0.2,0,0.3,0,0.5c0.2,2.4,2.2,4.8,7.6,3
		c3-1,3.8-2.7,4.8-5c-0.1,0.8-0.1,1.5-0.1,1.9c0,0.3-0.3,2.3-0.3,2.3c-0.4,0.5-0.7,1-1.2,1.4c-0.3,0.3-0.7,0.5-1,0.7
		c-0.2,0.1-0.4,0.2-0.6,0.4c-0.1,0.1-0.2,0.3-0.2,0.5C9,51.4,9,51.7,9,52c0.1,1.3,0.2,2.5,0.4,3.8c0.1,0.6,0.3,1.2,0.4,1.9
		c0,0,0.6,2,0.6,2.1c0.1,0.1,0.7,1.4,0.7,1.4c0.3,0.1,0.6,0.3,0.9,0.4c0.4,0.1,0.8,0,1.2,0c0.2,0,0.4,0,0.6-0.1
		c0.1,0,0.1-0.2,0.3-0.3c0.2,0,0.3,0.1,0.5,0.1c0.2,0,0.4-0.1,0.6-0.2c0.1-0.2,0.1-0.4,0.1-0.6c0-0.2-0.1-0.5-0.1-0.7
		c-0.1-0.2-0.2-0.4-0.4-0.7c0,0-0.5-0.2-0.6-0.2c-0.2,0-1-0.1-1-0.1c-0.2-0.2-0.4-0.4-0.5-0.6c-0.1-0.3-0.1-0.7-0.2-1.1
		c-0.1-0.4-0.3-0.7-0.3-1.1c0-0.4,0-0.8,0.1-1.1c0.1-0.4,0.2-0.8,0.5-1.1c0.1-0.1,1.4-1.5,2-2.1c0,0.2,0,0.4,0.1,0.5
		c0.1,0.6,0.3,1.3,0.4,1.9c0,0,0.6,2,0.7,2.1c0.1,0.1,0.7,1.4,0.7,1.4c0.3,0.1,0.6,0.3,0.9,0.4c0.4,0.1,0.8,0,1.2,0
		c0.2,0,0.4,0,0.6-0.1c0.1,0,0.1-0.2,0.3-0.3c0.2,0,0.3,0.1,0.5,0.1c0.2,0,0.4-0.1,0.6-0.2c0.1-0.2,0.1-0.4,0.1-0.6
		c0-0.2-0.1-0.5-0.1-0.7c-0.1-0.2-0.2-0.4-0.4-0.7c0,0-0.5-0.2-0.6-0.2c-0.2,0-1-0.1-1-0.1c-0.2-0.2-0.4-0.4-0.5-0.6
		c-0.1-0.3-0.1-0.7-0.2-1.1c-0.1-0.4-0.3-0.7-0.3-1.1c0-0.4,0-0.8,0.1-1.1c0.1-0.4,0.2-0.8,0.5-1.1l0.5-0.5c2.3-1,4.6-1.9,7.2-4.7
		c0.4-0.4,3-3.9,3.1-3.9c0.9,0,4.9,4.9,10.2,5.1L33.3,40.4z"/>
	<path class="st0" d="M54.3,47.2c0.2-0.6,0.3-1.2,0.6-1.8c0.2-0.7,0.5-1.4,0.9-2c0.4-0.7,1.1-1.2,1.6-1.8c0.4-0.5,0.8-0.9,1-1.5
		c0.3-0.9,0.3-1.9,0.4-2.8c0.3-2.1,0.5-3.7,1-5.8c0,0,0.7-1.2,0.7-1.7c0-0.5,0.4-2.2,0.4-2.2c0.1-0.6,0.2-1.2,0.3-1.8
		c0.7-2.1,0.8-0.7,0.7-3.1c0-0.1-0.4-1.4-0.4-1.4c-0.1-0.4-0.2-0.8-0.2-1.2c0-0.4,0-0.7,0.1-1.1c0-0.3,0.2-0.5,0.2-0.8
		c0,0,0.2-0.7,0.3-0.9c0-0.2,0.5-1.4,0.5-1.4c0.1-0.4,0.2-0.7,0.2-1.1c0-0.4,0-0.8,0-1.3c0-0.4-0.1-0.7-0.1-1.1c0-0.5,0.2-1,0.1-1.5
		c0-0.7-0.2-1.4-0.3-2c-0.1-0.4-0.2-0.8-0.3-1.3C62.1,7.3,62,7,61.8,6.7c-0.1-0.2-0.2-0.3-0.4-0.4c-0.1-0.1-0.3,0-0.5,0.1
		c-0.2,0.1-0.4,0.3-0.6,0.4c-0.7,0.7-0.9,1.1-1.4,2c-0.5,0.9-0.8,1.7-1.3,2.6c0,0-0.4,0.7-0.4,0.7c-0.1,0.1-0.8,0.8-0.8,0.8
		c-0.4,0.1-0.9,0.2-1.3,0.1c-0.3-0.1-0.6-0.3-0.8-0.5C54,12,53.7,11.5,53.5,11c-0.2-0.5-0.4-1.1-0.6-1.7c-0.4-0.8-0.6-1.2-1.2-1.9
		c-0.3-0.4-0.6-0.8-1.2-1c-1.4-0.6-1.9,4.7-2,5.4c-0.2,1.6-0.4,3,0.1,4.6c0.2,0.6,0.6,1.2,0.6,1.8c-0.1,0.9-1.9,3.5-2.5,4.4
		c-0.3,0.5-0.6,1-0.9,1.4c-1.1,1.9-3.5,2.7-5.7,2.9c-1.9,0.2-3.9,0.3-5.8,0.3L54.3,47.2z"/>
	<path class="st0" d="M51.1,58.1c0.1,0.3,0.4,0.7,0.4,0.7c0.2,0.4,0.3,0.8,0.5,1.2c0.2,0.5,0.5,0.8,1.1,0.9c0.2,0,1.1,0.3,1.2,0.3
		c0,0,0,0,0,0L51.1,58.1z"/>
	<path class="st0" d="M53.6,61.9c-0.3-0.1-1-0.7-1-0.7c-0.3-0.2-0.5-0.4-0.8-0.6c-0.2-0.1-0.5-0.1-0.8-0.2c0,0-0.3-0.1-0.3-0.2
		c-0.1-0.1-1-1.5-1-1.5c-0.2-0.4-0.6-0.8-0.7-1.2c-0.1-0.5,0-1,0-1.5l-3.8-3.8c0,0.5,0.1,0.9,0.1,1c0,0.3,0.1,2.9,0.1,2.9
		c0,0.4,0,0.8,0.1,1.2c0.2,0.5,0.5,0.9,0.7,1.3c0.3,0.5,0.6,0.9,0.8,1.5c0.2,0.4,0.3,0.9,0.4,1.4c0.1,0.3,0.2,0.5,0.4,0.8
		c0.2,0.3,0.4,0.7,0.7,0.9c0.4,0.3,0.8,0.4,1.2,0.4c0.4,0,0.8,0,1.3,0.1c0.4,0.1,0.4,0.3,1.2,0.2c0.2,0,0.4-0.1,0.5-0.1
		c0.1-0.1,0.2-0.2,0.3-0.2c0.8,0.4,1.2-0.1,1.1-0.9C54.2,62.5,53.9,62,53.6,61.9z"/>
</g>
<polygon points="4.3,4.2 0.7,7.8 33.4,40.4 33.3,40.4 41.6,48.8 41.7,48.8 65.1,72.1 68.6,68.5 "/>
</svg>
