<?xml version="1.0" encoding="utf-8"?>
<!-- Generator: Adobe Illustrator 26.0.1, SVG Export Plug-In . SVG Version: 6.00 Build 0)  -->
<svg version="1.1" id="Layer_1" xmlns="http://www.w3.org/2000/svg" xmlns:xlink="http://www.w3.org/1999/xlink" x="0px" y="0px"
	 viewBox="0 0 13.2 13.2" style="enable-background:new 0 0 13.2 13.2;" xml:space="preserve">
<g>
	<path d="M1.7,9.7c2.2,2.2,5.8,2.2,8,0c2.2-2.2,2.2-5.8,0-8c-2.2-2.2-5.8-2.2-8,0C-0.6,3.9-0.6,7.5,1.7,9.7z M2,9.3C0,7.3,0,4,2,2
		c2-2,5.3-2,7.3,0c2,2,2,5.3,0,7.3C7.3,11.3,4,11.3,2,9.3z"/>
	<path d="M12.5,13.1L9.4,10c-0.2-0.2-0.2-0.4,0-0.6h0c0.2-0.2,0.4-0.2,0.6,0l3.1,3.1c0.2,0.2,0.2,0.4,0,0.6v0
		C12.9,13.2,12.6,13.2,12.5,13.1z"/>
</g>
</svg>
