<?xml version="1.0" encoding="utf-8"?>
<!-- Generator: Adobe Illustrator 26.0.1, SVG Export Plug-In . SVG Version: 6.00 Build 0)  -->
<svg version="1.1" id="Layer_1" xmlns="http://www.w3.org/2000/svg" xmlns:xlink="http://www.w3.org/1999/xlink" x="0px" y="0px"
	 viewBox="0 0 19.4 19.4" style="enable-background:new 0 0 19.4 19.4;" xml:space="preserve">
<style type="text/css">
	.st0{fill:#7F7F7F;}
</style>
<g>
	<g>
		<path class="st0" d="M2.4,14.2c3.3,3.3,8.5,3.3,11.8,0c3.3-3.3,3.3-8.5,0-11.8C11-0.8,5.7-0.8,2.4,2.4C-0.8,5.7-0.8,11,2.4,14.2z
			 M3,13.7C0,10.7,0,5.9,3,3c3-3,7.7-3,10.7,0c3,3,3,7.7,0,10.7C10.7,16.6,5.9,16.6,3,13.7z"/>
		<path class="st0" d="M18.3,19.2l-4.5-4.5c-0.2-0.2-0.2-0.6,0-0.9l0,0c0.2-0.2,0.6-0.2,0.9,0l4.5,4.5c0.2,0.2,0.2,0.6,0,0.9l0,0
			C19,19.5,18.6,19.5,18.3,19.2z"/>
	</g>
</g>
</svg>
