<?xml version="1.0" encoding="utf-8"?>
<!-- Generator: Adobe Illustrator 26.0.1, SVG Export Plug-In . SVG Version: 6.00 Build 0)  -->
<svg version="1.1" id="Layer_1" xmlns="http://www.w3.org/2000/svg" xmlns:xlink="http://www.w3.org/1999/xlink" x="0px" y="0px"
	 viewBox="0 0 32.5 32" style="enable-background:new 0 0 32.5 32;" xml:space="preserve">
<style type="text/css">
	.st0{fill:#A8A8A8;stroke:#A8A7A7;stroke-width:0.5;stroke-miterlimit:10;}
</style>
<g>
	<polygon class="st0" points="30.7,0.2 19.6,0.2 19.6,1.8 29.8,1.8 13.8,17.8 14.9,18.9 30.7,3.1 30.7,13 32.3,13 32.3,1.8 
		32.3,0.2 	"/>
	<polygon class="st0" points="27.7,30.2 1.8,30.2 1.8,5.9 17.7,5.9 17.7,4.3 0.3,4.3 0.3,4.4 0.3,5.9 0.3,30.2 0.2,30.2 0.2,31.8 
		0.3,31.8 1.8,31.8 27.7,31.8 29.2,31.8 29.3,31.8 29.3,14.9 27.7,14.9 	"/>
</g>
</svg>
