<?xml version="1.0" encoding="utf-8"?>
<!-- Generator: Adobe Illustrator 26.0.1, SVG Export Plug-In . SVG Version: 6.00 Build 0)  -->
<svg version="1.1" id="Layer_1" xmlns="http://www.w3.org/2000/svg" xmlns:xlink="http://www.w3.org/1999/xlink" x="0px" y="0px"
	 viewBox="0 0 15.8 23.5" style="enable-background:new 0 0 15.8 23.5;" xml:space="preserve">
<style type="text/css">
	.st0{fill:#A7A7A6;}
</style>
<g>
	<g>
		<path class="st0" d="M14.7,21.8V4.5h-3.8c-0.5,1.2-1.7,2-3,2c-1.4,0-2.5-0.8-3-2H1.1v17.3H0v1.7h15.8v-1.7H14.7z M5.3,14.9H3.1
			v-2.2h2.2V14.9z M5.3,11.3H3.1V9.1h2.2V11.3z M6.8,9.1H9v2.2H6.8V9.1z M6.8,12.7H9v2.2H6.8V12.7z M7.6,21.8H6.1v-4.1h1.5V21.8z
			 M9.7,21.8H8.2v-4.1h1.5V21.8z M12.7,14.9h-2.2v-2.2h2.2V14.9z M12.7,11.3h-2.2V9.1h2.2V11.3z"/>
		<path class="st0" d="M7.9,0c-1.7,0-3,1.4-3,3c0,1.7,1.4,3,3,3s3-1.4,3-3C10.9,1.4,9.6,0,7.9,0z M8.9,3.3H8.1V4H7.7V3.3H6.9V2.8
			h0.8V2.1h0.4v0.8h0.8V3.3z"/>
	</g>
</g>
</svg>
