<?xml version="1.0" encoding="utf-8"?>
<!-- Generator: Adobe Illustrator 26.0.1, SVG Export Plug-In . SVG Version: 6.00 Build 0)  -->
<svg version="1.1" id="Layer_1" xmlns="http://www.w3.org/2000/svg" xmlns:xlink="http://www.w3.org/1999/xlink" x="0px" y="0px"
	 viewBox="0 0 73.2 72.1" style="enable-background:new 0 0 73.2 72.1;" xml:space="preserve">
<style type="text/css">
	.st0{fill-rule:evenodd;clip-rule:evenodd;}
</style>
<path class="st0" d="M21.9,39.2c-4.3,0-7.8,3.5-7.8,7.8s3.5,7.8,7.8,7.8s7.8-3.5,7.8-7.8S26.2,39.2,21.9,39.2z M21.9,53.4
	c-3.6,0-6.4-2.9-6.4-6.4c0-3.6,2.9-6.4,6.4-6.4s6.4,2.9,6.4,6.4C28.4,50.5,25.5,53.4,21.9,53.4z"/>
<path class="st0" d="M65.1,39.2c-4.3,0-7.8,3.5-7.8,7.8s3.5,7.8,7.8,7.8s7.8-3.5,7.8-7.8S69.3,39.2,65.1,39.2z M65.1,53.4
	c-3.6,0-6.4-2.9-6.4-6.4c0-3.6,2.9-6.4,6.4-6.4c3.6,0,6.4,2.9,6.4,6.4C71.5,50.5,68.6,53.4,65.1,53.4z"/>
<g>
	<path class="st0" d="M64.9,48.6L64.9,48.6c-0.9,0-1.6-0.7-1.6-1.6V11.4c0-0.9,0.7-1.6,1.6-1.6l0,0c0.9,0,1.6,0.7,1.6,1.6v35.6
		C66.4,47.9,65.8,48.6,64.9,48.6z"/>
	
		<rect x="60.8" y="6.7" transform="matrix(-1.836970e-16 1 -1 -1.836970e-16 73.117 -51.4919)" class="st0" width="2.9" height="8.3"/>
</g>
<g>
	<path class="st0" d="M37.4,45.2H25c-0.9,0-1.6,0.7-1.6,1.6s0.7,1.6,1.6,1.6h15.7L37.4,45.2z"/>
	<path class="st0" d="M54.9,48.5H56c0.9,0,1.6-0.7,1.6-1.6s-0.7-1.6-1.6-1.6h-4.5L54.9,48.5z"/>
</g>
<polygon points="3.6,4.2 0,7.8 32.7,40.4 32.6,40.4 40.9,48.8 41,48.8 64.3,72.1 67.9,68.5 "/>
</svg>
