<?xml version="1.0" encoding="utf-8"?>
<!-- Generator: Adobe Illustrator 26.0.1, SVG Export Plug-In . SVG Version: 6.00 Build 0)  -->
<svg version="1.1" id="Layer_1" xmlns="http://www.w3.org/2000/svg" xmlns:xlink="http://www.w3.org/1999/xlink" x="0px" y="0px"
	 viewBox="0 0 16.9 23.5" style="enable-background:new 0 0 16.9 23.5;" xml:space="preserve">
<style type="text/css">
	.st0{fill:#A7A7A6;}
</style>
<g>
	<g>
		<path class="st0" d="M16.9,15.8L16.9,15.8L14.4,10L2.7,10L0,15.7h0v6.4l0,0v1.3h3.4v-1.3h10.2v1.3h3.4v-1.3l0,0V15.8z M3.6,11.4
			l10,0l1.2,3.4H2.1L3.6,11.4z M2.8,19.8c-0.7,0-1.2-0.5-1.2-1.2c0-0.7,0.5-1.2,1.2-1.2c0.7,0,1.2,0.5,1.2,1.2
			C4,19.3,3.4,19.8,2.8,19.8z M10.2,19H6.7c-0.2,0-0.4-0.2-0.4-0.4c0-0.2,0.2-0.4,0.4-0.4h3.6c0.2,0,0.4,0.2,0.4,0.4
			C10.7,18.8,10.5,19,10.2,19z M13,18.6c0-0.7,0.5-1.2,1.2-1.2s1.2,0.5,1.2,1.2c0,0.7-0.5,1.2-1.2,1.2S13,19.3,13,18.6z"/>
		<g>
			<g>
				<path class="st0" d="M4.4,6.5L4.4,6.5L4.4,6.5c0-0.1-0.6-0.8-0.6-0.8S3.3,6.4,3.2,6.5l0,0h0c0,0.1,0,0.1,0,0.2
					c0,0.4,0.3,0.7,0.7,0.7c0.4,0,0.7-0.3,0.7-0.7C4.5,6.6,4.5,6.6,4.4,6.5z"/>
				<path class="st0" d="M6.8,6.5L6.8,6.5L6.8,6.5c0-0.1-0.6-0.8-0.6-0.8S5.6,6.4,5.5,6.5l0,0h0c0,0.1,0,0.1,0,0.2
					c0,0.4,0.3,0.7,0.7,0.7c0.4,0,0.7-0.3,0.7-0.7C6.8,6.6,6.8,6.6,6.8,6.5z"/>
				<path class="st0" d="M9.1,6.5L9.1,6.5L9.1,6.5c0-0.1-0.6-0.8-0.6-0.8S7.9,6.4,7.9,6.5l0,0h0c0,0.1,0,0.1,0,0.2
					c0,0.4,0.3,0.7,0.7,0.7c0.4,0,0.7-0.3,0.7-0.7C9.1,6.6,9.1,6.6,9.1,6.5z"/>
				<path class="st0" d="M11.4,6.5L11.4,6.5L11.4,6.5c0-0.1-0.6-0.8-0.6-0.8s-0.6,0.7-0.6,0.8l0,0h0c0,0.1,0,0.1,0,0.2
					c0,0.4,0.3,0.7,0.7,0.7c0.4,0,0.7-0.3,0.7-0.7C11.4,6.6,11.4,6.6,11.4,6.5z"/>
				<path class="st0" d="M13.7,6.5L13.7,6.5L13.7,6.5c0-0.1-0.6-0.8-0.6-0.8s-0.6,0.7-0.6,0.8l0,0h0c0,0.1,0,0.1,0,0.2
					c0,0.4,0.3,0.7,0.7,0.7c0.4,0,0.7-0.3,0.7-0.7C13.8,6.6,13.7,6.6,13.7,6.5z"/>
			</g>
			<g>
				<path class="st0" d="M5.6,3.4L5.6,3.4L5.6,3.4C5.6,3.3,5,2.6,5,2.6S4.4,3.3,4.4,3.4l0,0h0c0,0.1,0,0.1,0,0.2
					C4.3,4,4.6,4.3,5,4.3c0.4,0,0.7-0.3,0.7-0.7C5.6,3.6,5.6,3.5,5.6,3.4z"/>
				<path class="st0" d="M7.9,3.4L7.9,3.4L7.9,3.4c0-0.1-0.6-0.8-0.6-0.8S6.8,3.3,6.7,3.4l0,0h0c0,0.1,0,0.1,0,0.2
					C6.7,4,7,4.3,7.3,4.3C7.7,4.3,8,4,8,3.7C8,3.6,7.9,3.5,7.9,3.4z"/>
				<path class="st0" d="M10.2,3.4L10.2,3.4L10.2,3.4c0-0.1-0.6-0.8-0.6-0.8S9.1,3.3,9,3.4l0,0h0c0,0.1,0,0.1,0,0.2
					C9,4,9.3,4.3,9.6,4.3c0.4,0,0.7-0.3,0.7-0.7C10.3,3.6,10.3,3.5,10.2,3.4z"/>
				<path class="st0" d="M12.6,3.4L12.6,3.4L12.6,3.4c0-0.1-0.6-0.8-0.6-0.8s-0.6,0.7-0.6,0.8l0,0h0c0,0.1,0,0.1,0,0.2
					c0,0.4,0.3,0.7,0.7,0.7c0.4,0,0.7-0.3,0.7-0.7C12.6,3.6,12.6,3.5,12.6,3.4z"/>
			</g>
			<g>
				<path class="st0" d="M6.8,0.8L6.8,0.8L6.8,0.8C6.7,0.7,6.2,0,6.2,0S5.6,0.7,5.5,0.8l0,0h0c0,0.1,0,0.1,0,0.2
					c0,0.4,0.3,0.7,0.7,0.7c0.4,0,0.7-0.3,0.7-0.7C6.8,1,6.8,0.9,6.8,0.8z"/>
				<path class="st0" d="M9.1,0.8L9.1,0.8L9.1,0.8C9,0.7,8.5,0,8.5,0S7.9,0.7,7.9,0.8l0,0h0c0,0.1,0,0.1,0,0.2
					c0,0.4,0.3,0.7,0.7,0.7c0.4,0,0.7-0.3,0.7-0.7C9.1,1,9.1,0.9,9.1,0.8z"/>
				<path class="st0" d="M11.4,0.8L11.4,0.8L11.4,0.8c0-0.1-0.6-0.8-0.6-0.8s-0.6,0.7-0.6,0.8l0,0h0c0,0.1,0,0.1,0,0.2
					c0,0.4,0.3,0.7,0.7,0.7c0.4,0,0.7-0.3,0.7-0.7C11.4,1,11.4,0.9,11.4,0.8z"/>
			</g>
		</g>
	</g>
</g>
</svg>
