<?xml version="1.0" encoding="utf-8"?>
<!-- Generator: Adobe Illustrator 26.0.1, SVG Export Plug-In . SVG Version: 6.00 Build 0)  -->
<svg version="1.1" id="Layer_1" xmlns="http://www.w3.org/2000/svg" xmlns:xlink="http://www.w3.org/1999/xlink" x="0px" y="0px"
	 viewBox="0 0 23.5 17.5" style="enable-background:new 0 0 23.5 17.5;" xml:space="preserve">
<style type="text/css">
	.st0{fill:#A7A7A6;}
</style>
<g>
	<g>
		<g>
			<path class="st0" d="M11.7,8.9c-2.2,0-4.2,1.2-5.4,2.9l2.1,2.1c0.6-1.2,1.9-2.1,3.3-2.1c1.5,0,2.7,0.9,3.3,2.2l2.1-2.1
				C15.9,10.1,14,9,11.7,8.9z"/>
			<path class="st0" d="M11.7,4.6c-3.4,0-6.5,1.6-8.5,4.1l1.8,1.8c1.5-2,3.9-3.4,6.7-3.4c2.7,0,5.2,1.4,6.7,3.4l1.8-1.8
				C18.2,6.3,15.2,4.7,11.7,4.6z"/>
			<path class="st0" d="M11.8,0C7.1,0,2.8,2.1,0,5.5l2.1,2.1c2.3-2.8,5.8-4.6,9.7-4.6c3.9,0,7.4,1.8,9.7,4.7l2.1-2.1
				C20.7,2.2,16.5,0,11.8,0z"/>
		</g>
		<path class="st0" d="M12.1,17.5c-1.1,0.2-2.2-0.6-2.5-1.7c-0.2-1.1,0.6-2.2,1.7-2.5c1.1-0.2,2.3,0.6,2.5,1.7
			C14,16.2,13.2,17.3,12.1,17.5z"/>
	</g>
</g>
</svg>
