<?xml version="1.0" encoding="utf-8"?>
<!-- Generator: Adobe Illustrator 26.0.1, SVG Export Plug-In . SVG Version: 6.00 Build 0)  -->
<svg version="1.1" id="Layer_1" xmlns="http://www.w3.org/2000/svg" xmlns:xlink="http://www.w3.org/1999/xlink" x="0px" y="0px"
	 viewBox="0 0 35 35" style="enable-background:new 0 0 35 35;" xml:space="preserve">
<style type="text/css">
	.st0{fill:#F7F7F7;}
</style>
<g id="Component_8_17_00000011022952080998686580000010961435161995526590_" transform="translate(1604.279 72.242)">
	<path id="Path_12_00000074443165689524630450000000395644932394700964_" class="st0" d="M-1574.5-57.9c0-3-2.4-5.4-5.4-5.4h-13.7
		c-3,0-5.4,2.4-5.4,5.4v0v6.4c0,3,2.4,5.4,5.4,5.4h13.7c3,0,5.4-2.4,5.4-5.4V-57.9z M-1582.6-54.3l-6.2,3.1c-0.2,0.1-1.1,0-1.1-0.3
		v-6.3c0-0.3,0.8-0.5,1.1-0.3l5.9,3.2C-1582.6-54.8-1582.4-54.4-1582.6-54.3"/>
</g>
</svg>
